<svg width="547" height="31" viewBox="0 0 547 31" fill="none" xmlns="http://www.w3.org/2000/svg">
<mask id="path-1-inside-1_179_7191" fill="white">
<path d="M0.5 0H546.5V31H0.5V0Z"/>
</mask>
<path d="M546.5 31V29.2602H0.5V31V32.7398H546.5V31Z" fill="black" mask="url(#path-1-inside-1_179_7191)"/>
<rect width="542.52" height="26.0965" transform="translate(2.23975 1.73978)" fill="white"/>
<rect x="2.23975" y="5.2193" width="542.52" height="1.73977" fill="black"/>
<rect x="2.23975" y="8.69885" width="542.52" height="1.73977" fill="black"/>
<rect x="2.23975" y="12.1784" width="542.52" height="1.73977" fill="black"/>
<rect x="2.23975" y="15.6579" width="542.52" height="1.73977" fill="black"/>
<rect x="2.23975" y="19.1375" width="542.52" height="1.73977" fill="black"/>
<rect x="2.23975" y="22.617" width="542.52" height="1.73977" fill="black"/>
<rect x="0.5" width="544.26" height="1.73977" fill="white"/>
<rect x="0.5" width="1.73977" height="29.2602" fill="white"/>
<rect x="0.5" y="27.8362" width="546" height="1.73977" fill="white"/>
<rect x="544.76" width="1.73977" height="29.576" fill="white"/>
<rect width="22.617" height="22.617" transform="translate(12.6783 3.47952)" fill="white"/>
<rect x="15.288" y="6.08918" width="17.3977" height="17.3977" stroke="black" stroke-width="1.73977"/>
<rect width="122.357" height="27" transform="translate(212.5 3)" fill="#F3F3F3"/>
<path d="M233.664 23H231.924V21.2603V19.5205V17.7807V16.041H230.184H228.444V17.7807V19.5205V21.2603V23H226.705H224.965V21.2603V19.5205V17.7807V16.041V14.3012V12.5614V10.8217V9.0819H226.705V7.34214H228.444H230.184H231.924H233.664V9.0819H235.403V10.8217V12.5614V14.3012V16.041V17.7807V19.5205V21.2603V23H233.664ZM230.184 14.3012H231.924V12.5614V10.8217V9.0819H230.184H228.444V10.8217V12.5614V14.3012H230.184ZM244.102 23H242.363H240.623H238.883H237.143V21.2603V19.5205V17.7807V16.041V14.3012V12.5614V10.8217V9.0819V7.34214H238.883H240.623V9.0819V10.8217H242.363H244.102H245.842V12.5614H247.582V14.3012V16.041V17.7807V19.5205V21.2603H245.842V23H244.102ZM242.363 21.2603H244.102V19.5205V17.7807V16.041V14.3012V12.5614H242.363H240.623V14.3012V16.041V17.7807V19.5205V21.2603H242.363ZM256.281 23H254.541H252.801H251.061V21.2603H249.322V19.5205V17.7807V16.041V14.3012V12.5614H251.061V10.8217H252.801H254.541H256.281H258.02V12.5614H259.76V14.3012V16.041V17.7807V19.5205V21.2603H258.02V23H256.281ZM254.541 21.2603H256.281V19.5205V17.7807V16.041V14.3012V12.5614H254.541H252.801V14.3012V16.041V17.7807V19.5205V21.2603H254.541ZM270.199 23H268.459H266.719H264.98H263.24V21.2603H261.5V19.5205V17.7807V16.041V14.3012V12.5614V10.8217H263.24H264.98V12.5614V14.3012V16.041V17.7807V19.5205V21.2603H266.719H268.459V19.5205V17.7807V16.041V14.3012V12.5614V10.8217H270.199H271.939V12.5614V14.3012V16.041V17.7807V19.5205V21.2603V23H270.199ZM278.898 23H277.158V21.2603H275.418V19.5205V17.7807V16.041V14.3012V12.5614H273.678V10.8217H275.418V9.0819V7.34214H277.158H278.898V9.0819V10.8217H280.637V12.5614H278.898V14.3012V16.041V17.7807V19.5205V21.2603H280.637V23H278.898ZM291.076 23V21.2603V19.5205V17.7807V16.041V14.3012V12.5614V10.8217V9.0819V7.34214H292.816V9.0819H294.556V10.8217H296.295V12.5614H298.035V14.3012H299.775V12.5614H301.515V10.8217H303.254V9.0819H304.994V7.34214H306.734H308.474V9.0819V10.8217V12.5614V14.3012V16.041V17.7807V19.5205V21.2603V23H306.734H304.994V21.2603V19.5205V17.7807V16.041V14.3012H303.254V16.041H301.515V17.7807H299.775V19.5205H298.035V17.7807H296.295V16.041H294.556V14.3012H292.816V16.041V17.7807V19.5205V21.2603V23H291.076ZM317.172 21.2603H318.912V23H317.172H315.433H313.693H311.953V21.2603H310.213V19.5205V17.7807V16.041V14.3012V12.5614H311.953V10.8217H313.693H315.433H317.172H318.912V12.5614H320.652V14.3012V16.041V17.7807H318.912H317.172H315.433H313.693V19.5205V21.2603H315.433H317.172ZM318.912 21.2603V19.5205H320.652V21.2603H318.912ZM315.433 16.041H317.172V14.3012V12.5614H315.433H313.693V14.3012V16.041H315.433Z" fill="black"/>
</svg>
