<svg width="37" height="37" viewBox="0 0 37 37" fill="none" xmlns="http://www.w3.org/2000/svg">
<rect width="36.5351" height="36.5351" transform="translate(0.326538 0.438629)" fill="#F3F3F3"/>
<path d="M0.326538 0.438629H36.8616V36.9737H0.326538V0.438629Z" fill="#F3F3F3"/>
<path d="M34.252 0.438629H0.326538V34.3641H2.93619V3.04828H34.252V0.438629Z" fill="white"/>
<path d="M36.8616 0.438629H34.252V34.3641H0.326538V36.9737H36.8616V0.438629Z" fill="#A5A5A5"/>
<path fill-rule="evenodd" clip-rule="evenodd" d="M18.594 5.6579H15.9844V8.26755H13.3748V10.8772H10.7651V13.4868H8.15545V16.0965H5.54581V18.7061H2.93616V21.3158H10.7651V31.7544H23.8133V21.3158H31.6423V18.7061H29.0326V16.0965H26.423V13.4868H23.8133V10.8772H21.2037V8.26755H18.594V5.6579ZM18.594 8.26755V10.8772H21.2037V13.4868H23.8133V16.0965H26.423V18.7061H21.2037V29.1447H13.3748V18.7061H8.15545V16.0965H10.7651V13.4868H13.3748V10.8772H15.9844V8.26755H18.594Z" fill="#545487"/>
<path d="M15.9844 8.26758H18.5941V10.8772H21.2037V13.4869H23.8134V16.0965H26.423V18.7062H21.2037V29.1448H13.3748V18.7062H8.15546V16.0965H10.7651V13.4869H13.3748V10.8772H15.9844V8.26758Z" fill="#B3B3DA"/>
</svg>
