<svg width="42" height="41" viewBox="0 0 42 41" fill="none" xmlns="http://www.w3.org/2000/svg">
<g clip-path="url(#clip0_179_5518)">
<g clip-path="url(#clip1_179_5518)">
<rect x="2.14285" y="16.5286" width="36.4571" height="22.6286" fill="white"/>
<path fill-rule="evenodd" clip-rule="evenodd" d="M14.7143 8.98572H7.17143V10.2429H5.91428V11.5H4.65714V12.7571H3.4V14.0143H2.14285V15.2714H0.885712V40.4143H39.8571V15.2714H38.6V14.0143H18.4857V12.7571H17.2286V11.5H15.9714V10.2429H14.7143V8.98572ZM14.7143 10.2429V11.5H15.9714V12.7571H17.2286V14.0143H18.4857V15.2714H38.6V39.1571H2.14285V15.2714H3.4V14.0143H4.65714V12.7571H5.91428V11.5H7.17143V10.2429H14.7143Z" fill="black"/>
<path d="M7.17142 10.2429H14.7143V11.5H15.9714V12.7571H17.2286V14.0143H18.4857V15.2714H38.6V16.5286H2.14285V15.2714H3.4V14.0143H4.65714V12.7571H5.91428V11.5H7.17142V10.2429Z" fill="#DADAFF"/>
<rect width="1.25714" height="21.3714" transform="matrix(-1 0 0 1 38.6 17.7857)" fill="#B3B3FF"/>
<rect x="2.14285" y="36.6429" width="1.25714" height="1.25714" fill="#DADAFF"/>
<rect x="3.39999" y="37.9" width="1.25714" height="1.25714" fill="#DADAFF"/>
<rect x="4.65714" y="36.6429" width="1.25714" height="1.25714" fill="#DADAFF"/>
<rect x="7.17142" y="36.6429" width="1.25714" height="1.25714" fill="#DADAFF"/>
<rect x="9.6857" y="36.6429" width="1.25714" height="1.25714" fill="#DADAFF"/>
<rect x="12.2" y="36.6429" width="1.25714" height="1.25714" fill="#DADAFF"/>
<rect x="14.7143" y="36.6429" width="1.25714" height="1.25714" fill="#DADAFF"/>
<rect x="17.2286" y="36.6429" width="1.25714" height="1.25714" fill="#DADAFF"/>
<rect x="19.7429" y="36.6429" width="1.25714" height="1.25714" fill="#DADAFF"/>
<rect x="22.2571" y="36.6429" width="1.25714" height="1.25714" fill="#DADAFF"/>
<rect x="24.7714" y="36.6429" width="1.25714" height="1.25714" fill="#DADAFF"/>
<rect x="27.2857" y="36.6429" width="1.25714" height="1.25714" fill="#DADAFF"/>
<rect x="29.8" y="36.6429" width="1.25714" height="1.25714" fill="#DADAFF"/>
<rect x="32.3143" y="36.6429" width="1.25714" height="1.25714" fill="#DADAFF"/>
<rect x="34.8286" y="36.6429" width="1.25714" height="1.25714" fill="#DADAFF"/>
<rect x="8.42856" y="37.9" width="1.25714" height="1.25714" fill="#DADAFF"/>
<rect x="5.91428" y="37.9" width="1.25714" height="1.25714" fill="#DADAFF"/>
<rect x="13.4572" y="37.9" width="1.25714" height="1.25714" fill="#DADAFF"/>
<rect x="10.9428" y="37.9" width="1.25714" height="1.25714" fill="#DADAFF"/>
<rect x="18.4857" y="37.9" width="1.25714" height="1.25714" fill="#DADAFF"/>
<rect x="21" y="37.9" width="1.25714" height="1.25714" fill="#DADAFF"/>
<rect x="23.5143" y="37.9" width="1.25714" height="1.25714" fill="#DADAFF"/>
<rect x="26.0286" y="37.9" width="1.25714" height="1.25714" fill="#DADAFF"/>
<rect x="15.9714" y="37.9" width="1.25714" height="1.25714" fill="#DADAFF"/>
<rect x="28.5428" y="37.9" width="1.25714" height="1.25714" fill="#DADAFF"/>
<rect x="33.5714" y="37.9" width="1.25714" height="1.25714" fill="#DADAFF"/>
<rect x="31.0571" y="37.9" width="1.25714" height="1.25714" fill="#DADAFF"/>
<rect x="36.0857" y="37.9" width="1.25714" height="1.25714" fill="#DADAFF"/>
<rect x="2.14285" y="34.1286" width="1.25714" height="1.25714" fill="#DADAFF"/>
<rect x="3.39999" y="35.3857" width="1.25714" height="1.25714" fill="#DADAFF"/>
<rect x="4.65714" y="34.1286" width="1.25714" height="1.25714" fill="#DADAFF"/>
<rect x="7.17142" y="34.1286" width="1.25714" height="1.25714" fill="#DADAFF"/>
<rect x="9.6857" y="34.1286" width="1.25714" height="1.25714" fill="#DADAFF"/>
<rect x="12.2" y="34.1286" width="1.25714" height="1.25714" fill="#DADAFF"/>
<rect x="14.7143" y="34.1286" width="1.25714" height="1.25714" fill="#DADAFF"/>
<rect x="17.2286" y="34.1286" width="1.25714" height="1.25714" fill="#DADAFF"/>
<rect x="19.7429" y="34.1286" width="1.25714" height="1.25714" fill="#DADAFF"/>
<rect x="22.2571" y="34.1286" width="1.25714" height="1.25714" fill="#DADAFF"/>
<rect x="24.7714" y="34.1286" width="1.25714" height="1.25714" fill="#DADAFF"/>
<rect x="27.2857" y="34.1286" width="1.25714" height="1.25714" fill="#DADAFF"/>
<rect x="29.8" y="34.1286" width="1.25714" height="1.25714" fill="#DADAFF"/>
<rect x="32.3143" y="34.1286" width="1.25714" height="1.25714" fill="#DADAFF"/>
<rect x="34.8286" y="34.1286" width="1.25714" height="1.25714" fill="#DADAFF"/>
<rect x="8.42856" y="35.3857" width="1.25714" height="1.25714" fill="#DADAFF"/>
<rect x="5.91428" y="35.3857" width="1.25714" height="1.25714" fill="#DADAFF"/>
<rect x="13.4572" y="35.3857" width="1.25714" height="1.25714" fill="#DADAFF"/>
<rect x="10.9428" y="35.3857" width="1.25714" height="1.25714" fill="#DADAFF"/>
<rect x="18.4857" y="35.3857" width="1.25714" height="1.25714" fill="#DADAFF"/>
<rect x="21" y="35.3857" width="1.25714" height="1.25714" fill="#DADAFF"/>
<rect x="23.5143" y="35.3857" width="1.25714" height="1.25714" fill="#DADAFF"/>
<rect x="26.0286" y="35.3857" width="1.25714" height="1.25714" fill="#DADAFF"/>
<rect x="15.9714" y="35.3857" width="1.25714" height="1.25714" fill="#DADAFF"/>
<rect x="28.5428" y="35.3857" width="1.25714" height="1.25714" fill="#DADAFF"/>
<rect x="33.5714" y="35.3857" width="1.25714" height="1.25714" fill="#DADAFF"/>
<rect x="31.0571" y="35.3857" width="1.25714" height="1.25714" fill="#DADAFF"/>
<rect x="36.0857" y="35.3857" width="1.25714" height="1.25714" fill="#DADAFF"/>
<rect x="2.14285" y="31.6143" width="1.25714" height="1.25714" fill="#DADAFF"/>
<rect x="3.39999" y="32.8714" width="1.25714" height="1.25714" fill="#DADAFF"/>
<rect x="4.65714" y="31.6143" width="1.25714" height="1.25714" fill="#DADAFF"/>
<rect x="7.17142" y="31.6143" width="1.25714" height="1.25714" fill="#DADAFF"/>
<rect x="9.6857" y="31.6143" width="1.25714" height="1.25714" fill="#DADAFF"/>
<rect x="12.2" y="31.6143" width="1.25714" height="1.25714" fill="#DADAFF"/>
<rect x="14.7143" y="31.6143" width="1.25714" height="1.25714" fill="#DADAFF"/>
<rect x="17.2286" y="31.6143" width="1.25714" height="1.25714" fill="#DADAFF"/>
<rect x="19.7429" y="31.6143" width="1.25714" height="1.25714" fill="#DADAFF"/>
<rect x="22.2571" y="31.6143" width="1.25714" height="1.25714" fill="#DADAFF"/>
<rect x="24.7714" y="31.6143" width="1.25714" height="1.25714" fill="#DADAFF"/>
<rect x="27.2857" y="31.6143" width="1.25714" height="1.25714" fill="#DADAFF"/>
<rect x="29.8" y="31.6143" width="1.25714" height="1.25714" fill="#DADAFF"/>
<rect x="32.3143" y="31.6143" width="1.25714" height="1.25714" fill="#DADAFF"/>
<rect x="34.8286" y="31.6143" width="1.25714" height="1.25714" fill="#DADAFF"/>
<rect x="8.42856" y="32.8714" width="1.25714" height="1.25714" fill="#DADAFF"/>
<rect x="5.91428" y="32.8714" width="1.25714" height="1.25714" fill="#DADAFF"/>
<rect x="13.4572" y="32.8714" width="1.25714" height="1.25714" fill="#DADAFF"/>
<rect x="10.9428" y="32.8714" width="1.25714" height="1.25714" fill="#DADAFF"/>
<rect x="18.4857" y="32.8714" width="1.25714" height="1.25714" fill="#DADAFF"/>
<rect x="21" y="32.8714" width="1.25714" height="1.25714" fill="#DADAFF"/>
<rect x="23.5143" y="32.8714" width="1.25714" height="1.25714" fill="#DADAFF"/>
<rect x="26.0286" y="32.8714" width="1.25714" height="1.25714" fill="#DADAFF"/>
<rect x="15.9714" y="32.8714" width="1.25714" height="1.25714" fill="#DADAFF"/>
<rect x="28.5428" y="32.8714" width="1.25714" height="1.25714" fill="#DADAFF"/>
<rect x="33.5714" y="32.8714" width="1.25714" height="1.25714" fill="#DADAFF"/>
<rect x="31.0571" y="32.8714" width="1.25714" height="1.25714" fill="#DADAFF"/>
<rect x="36.0857" y="32.8714" width="1.25714" height="1.25714" fill="#DADAFF"/>
<rect x="2.14285" y="29.1" width="1.25714" height="1.25714" fill="#DADAFF"/>
<rect x="3.39999" y="30.3571" width="1.25714" height="1.25714" fill="#DADAFF"/>
<rect x="4.65714" y="29.1" width="1.25714" height="1.25714" fill="#DADAFF"/>
<rect x="7.17142" y="29.1" width="1.25714" height="1.25714" fill="#DADAFF"/>
<rect x="9.6857" y="29.1" width="1.25714" height="1.25714" fill="#DADAFF"/>
<rect x="12.2" y="29.1" width="1.25714" height="1.25714" fill="#DADAFF"/>
<rect x="14.7143" y="29.1" width="1.25714" height="1.25714" fill="#DADAFF"/>
<rect x="17.2286" y="29.1" width="1.25714" height="1.25714" fill="#DADAFF"/>
<rect x="19.7429" y="29.1" width="1.25714" height="1.25714" fill="#DADAFF"/>
<rect x="22.2571" y="29.1" width="1.25714" height="1.25714" fill="#DADAFF"/>
<rect x="24.7714" y="29.1" width="1.25714" height="1.25714" fill="#DADAFF"/>
<rect x="27.2857" y="29.1" width="1.25714" height="1.25714" fill="#DADAFF"/>
<rect x="29.8" y="29.1" width="1.25714" height="1.25714" fill="#DADAFF"/>
<rect x="32.3143" y="29.1" width="1.25714" height="1.25714" fill="#DADAFF"/>
<rect x="34.8286" y="29.1" width="1.25714" height="1.25714" fill="#DADAFF"/>
<rect x="8.42856" y="30.3571" width="1.25714" height="1.25714" fill="#DADAFF"/>
<rect x="5.91428" y="30.3571" width="1.25714" height="1.25714" fill="#DADAFF"/>
<rect x="13.4572" y="30.3571" width="1.25714" height="1.25714" fill="#DADAFF"/>
<rect x="10.9428" y="30.3571" width="1.25714" height="1.25714" fill="#DADAFF"/>
<rect x="18.4857" y="30.3571" width="1.25714" height="1.25714" fill="#DADAFF"/>
<rect x="21" y="30.3571" width="1.25714" height="1.25714" fill="#DADAFF"/>
<rect x="23.5143" y="30.3571" width="1.25714" height="1.25714" fill="#DADAFF"/>
<rect x="26.0286" y="30.3571" width="1.25714" height="1.25714" fill="#DADAFF"/>
<rect x="15.9714" y="30.3571" width="1.25714" height="1.25714" fill="#DADAFF"/>
<rect x="28.5428" y="30.3571" width="1.25714" height="1.25714" fill="#DADAFF"/>
<rect x="33.5714" y="30.3571" width="1.25714" height="1.25714" fill="#DADAFF"/>
<rect x="31.0571" y="30.3571" width="1.25714" height="1.25714" fill="#DADAFF"/>
<rect x="36.0857" y="30.3571" width="1.25714" height="1.25714" fill="#DADAFF"/>
<rect x="2.14285" y="26.5857" width="1.25714" height="1.25714" fill="#DADAFF"/>
<rect x="2.14285" y="24.0714" width="1.25714" height="1.25714" fill="#DADAFF"/>
<rect x="2.14285" y="21.5571" width="1.25714" height="1.25714" fill="#DADAFF"/>
<rect x="2.14285" y="19.0429" width="1.25714" height="1.25714" fill="#DADAFF"/>
<rect x="3.39999" y="27.8429" width="1.25714" height="1.25714" fill="#DADAFF"/>
<rect x="3.39999" y="25.3286" width="1.25714" height="1.25714" fill="#DADAFF"/>
<rect x="3.39999" y="20.3" width="1.25714" height="1.25714" fill="#DADAFF"/>
<rect x="3.39999" y="22.8143" width="1.25714" height="1.25714" fill="#DADAFF"/>
<rect x="3.39999" y="17.7857" width="1.25714" height="1.25714" fill="#DADAFF"/>
<rect x="4.65714" y="26.5857" width="1.25714" height="1.25714" fill="#DADAFF"/>
<rect x="4.65714" y="19.0429" width="1.25714" height="1.25714" fill="#DADAFF"/>
<rect x="4.65714" y="24.0714" width="1.25714" height="1.25714" fill="#DADAFF"/>
<rect x="4.65714" y="21.5571" width="1.25714" height="1.25714" fill="#DADAFF"/>
<rect x="7.17142" y="19.0429" width="1.25714" height="1.25714" fill="#DADAFF"/>
<rect x="7.17142" y="26.5857" width="1.25714" height="1.25714" fill="#DADAFF"/>
<rect x="7.17142" y="24.0714" width="1.25714" height="1.25714" fill="#DADAFF"/>
<rect x="7.17142" y="21.5571" width="1.25714" height="1.25714" fill="#DADAFF"/>
<rect x="9.6857" y="19.0429" width="1.25714" height="1.25714" fill="#DADAFF"/>
<rect x="9.6857" y="26.5857" width="1.25714" height="1.25714" fill="#DADAFF"/>
<rect x="9.6857" y="24.0714" width="1.25714" height="1.25714" fill="#DADAFF"/>
<rect x="12.2" y="19.0429" width="1.25714" height="1.25714" fill="#DADAFF"/>
<rect x="9.6857" y="21.5571" width="1.25714" height="1.25714" fill="#DADAFF"/>
<rect x="12.2" y="26.5857" width="1.25714" height="1.25714" fill="#DADAFF"/>
<rect x="14.7143" y="19.0429" width="1.25714" height="1.25714" fill="#DADAFF"/>
<rect x="12.2" y="24.0714" width="1.25714" height="1.25714" fill="#DADAFF"/>
<rect x="12.2" y="21.5571" width="1.25714" height="1.25714" fill="#DADAFF"/>
<rect x="17.2286" y="19.0429" width="1.25714" height="1.25714" fill="#DADAFF"/>
<rect x="14.7143" y="26.5857" width="1.25714" height="1.25714" fill="#DADAFF"/>
<rect x="14.7143" y="24.0714" width="1.25714" height="1.25714" fill="#DADAFF"/>
<rect x="14.7143" y="21.5571" width="1.25714" height="1.25714" fill="#DADAFF"/>
<rect x="19.7429" y="19.0429" width="1.25714" height="1.25714" fill="#DADAFF"/>
<rect x="17.2286" y="26.5857" width="1.25714" height="1.25714" fill="#DADAFF"/>
<rect x="17.2286" y="24.0714" width="1.25714" height="1.25714" fill="#DADAFF"/>
<rect x="22.2571" y="19.0429" width="1.25714" height="1.25714" fill="#DADAFF"/>
<rect x="17.2286" y="21.5571" width="1.25714" height="1.25714" fill="#DADAFF"/>
<rect x="19.7429" y="26.5857" width="1.25714" height="1.25714" fill="#DADAFF"/>
<rect x="24.7714" y="19.0429" width="1.25714" height="1.25714" fill="#DADAFF"/>
<rect x="19.7429" y="24.0714" width="1.25714" height="1.25714" fill="#DADAFF"/>
<rect x="19.7429" y="21.5571" width="1.25714" height="1.25714" fill="#DADAFF"/>
<rect x="27.2857" y="19.0429" width="1.25714" height="1.25714" fill="#DADAFF"/>
<rect x="22.2571" y="26.5857" width="1.25714" height="1.25714" fill="#DADAFF"/>
<rect x="22.2571" y="24.0714" width="1.25714" height="1.25714" fill="#DADAFF"/>
<rect x="22.2571" y="21.5571" width="1.25714" height="1.25714" fill="#DADAFF"/>
<rect x="29.8" y="19.0429" width="1.25714" height="1.25714" fill="#DADAFF"/>
<rect x="24.7714" y="26.5857" width="1.25714" height="1.25714" fill="#DADAFF"/>
<rect x="24.7714" y="24.0714" width="1.25714" height="1.25714" fill="#DADAFF"/>
<rect x="32.3143" y="19.0429" width="1.25714" height="1.25714" fill="#DADAFF"/>
<rect x="24.7714" y="21.5571" width="1.25714" height="1.25714" fill="#DADAFF"/>
<rect x="27.2857" y="26.5857" width="1.25714" height="1.25714" fill="#DADAFF"/>
<rect x="34.8286" y="19.0429" width="1.25714" height="1.25714" fill="#DADAFF"/>
<rect x="27.2857" y="24.0714" width="1.25714" height="1.25714" fill="#DADAFF"/>
<rect x="27.2857" y="21.5571" width="1.25714" height="1.25714" fill="#DADAFF"/>
<rect x="8.42856" y="20.3" width="1.25714" height="1.25714" fill="#DADAFF"/>
<rect x="29.8" y="26.5857" width="1.25714" height="1.25714" fill="#DADAFF"/>
<rect x="29.8" y="24.0714" width="1.25714" height="1.25714" fill="#DADAFF"/>
<rect x="29.8" y="21.5571" width="1.25714" height="1.25714" fill="#DADAFF"/>
<rect x="5.91428" y="20.3" width="1.25714" height="1.25714" fill="#DADAFF"/>
<rect x="32.3143" y="26.5857" width="1.25714" height="1.25714" fill="#DADAFF"/>
<rect x="32.3143" y="24.0714" width="1.25714" height="1.25714" fill="#DADAFF"/>
<rect x="13.4572" y="20.3" width="1.25714" height="1.25714" fill="#DADAFF"/>
<rect x="32.3143" y="21.5571" width="1.25714" height="1.25714" fill="#DADAFF"/>
<rect x="34.8286" y="26.5857" width="1.25714" height="1.25714" fill="#DADAFF"/>
<rect x="10.9428" y="20.3" width="1.25714" height="1.25714" fill="#DADAFF"/>
<rect x="34.8286" y="24.0714" width="1.25714" height="1.25714" fill="#DADAFF"/>
<rect x="34.8286" y="21.5571" width="1.25714" height="1.25714" fill="#DADAFF"/>
<rect x="18.4857" y="20.3" width="1.25714" height="1.25714" fill="#DADAFF"/>
<rect x="8.42856" y="27.8429" width="1.25714" height="1.25714" fill="#DADAFF"/>
<rect x="8.42856" y="25.3286" width="1.25714" height="1.25714" fill="#DADAFF"/>
<rect x="8.42856" y="22.8143" width="1.25714" height="1.25714" fill="#DADAFF"/>
<rect x="21" y="20.3" width="1.25714" height="1.25714" fill="#DADAFF"/>
<rect x="8.42856" y="17.7857" width="1.25714" height="1.25714" fill="#DADAFF"/>
<rect x="5.91428" y="27.8429" width="1.25714" height="1.25714" fill="#DADAFF"/>
<rect x="5.91428" y="25.3286" width="1.25714" height="1.25714" fill="#DADAFF"/>
<rect x="23.5143" y="20.3" width="1.25714" height="1.25714" fill="#DADAFF"/>
<rect x="5.91428" y="22.8143" width="1.25714" height="1.25714" fill="#DADAFF"/>
<rect x="5.91428" y="17.7857" width="1.25714" height="1.25714" fill="#DADAFF"/>
<rect x="13.4572" y="27.8429" width="1.25714" height="1.25714" fill="#DADAFF"/>
<rect x="26.0286" y="20.3" width="1.25714" height="1.25714" fill="#DADAFF"/>
<rect x="13.4572" y="25.3286" width="1.25714" height="1.25714" fill="#DADAFF"/>
<rect x="13.4572" y="22.8143" width="1.25714" height="1.25714" fill="#DADAFF"/>
<rect x="13.4572" y="17.7857" width="1.25714" height="1.25714" fill="#DADAFF"/>
<rect x="15.9714" y="20.3" width="1.25714" height="1.25714" fill="#DADAFF"/>
<rect x="10.9428" y="27.8429" width="1.25714" height="1.25714" fill="#DADAFF"/>
<rect x="10.9428" y="25.3286" width="1.25714" height="1.25714" fill="#DADAFF"/>
<rect x="10.9428" y="22.8143" width="1.25714" height="1.25714" fill="#DADAFF"/>
<rect x="28.5428" y="20.3" width="1.25714" height="1.25714" fill="#DADAFF"/>
<rect x="10.9428" y="17.7857" width="1.25714" height="1.25714" fill="#DADAFF"/>
<rect x="18.4857" y="27.8429" width="1.25714" height="1.25714" fill="#DADAFF"/>
<rect x="18.4857" y="25.3286" width="1.25714" height="1.25714" fill="#DADAFF"/>
<rect x="33.5714" y="20.3" width="1.25714" height="1.25714" fill="#DADAFF"/>
<rect x="18.4857" y="22.8143" width="1.25714" height="1.25714" fill="#DADAFF"/>
<rect x="18.4857" y="17.7857" width="1.25714" height="1.25714" fill="#DADAFF"/>
<rect x="21" y="27.8429" width="1.25714" height="1.25714" fill="#DADAFF"/>
<rect x="31.0571" y="20.3" width="1.25714" height="1.25714" fill="#DADAFF"/>
<rect x="21" y="25.3286" width="1.25714" height="1.25714" fill="#DADAFF"/>
<rect x="21" y="22.8143" width="1.25714" height="1.25714" fill="#DADAFF"/>
<rect x="21" y="17.7857" width="1.25714" height="1.25714" fill="#DADAFF"/>
<rect x="36.0857" y="20.3" width="1.25714" height="1.25714" fill="#DADAFF"/>
<rect x="23.5143" y="27.8429" width="1.25714" height="1.25714" fill="#DADAFF"/>
<rect x="23.5143" y="25.3286" width="1.25714" height="1.25714" fill="#DADAFF"/>
<rect x="23.5143" y="22.8143" width="1.25714" height="1.25714" fill="#DADAFF"/>
<rect x="23.5143" y="17.7857" width="1.25714" height="1.25714" fill="#DADAFF"/>
<rect x="26.0286" y="27.8429" width="1.25714" height="1.25714" fill="#DADAFF"/>
<rect x="26.0286" y="25.3286" width="1.25714" height="1.25714" fill="#DADAFF"/>
<rect x="26.0286" y="22.8143" width="1.25714" height="1.25714" fill="#DADAFF"/>
<rect x="26.0286" y="17.7857" width="1.25714" height="1.25714" fill="#DADAFF"/>
<rect x="15.9714" y="27.8429" width="1.25714" height="1.25714" fill="#DADAFF"/>
<rect x="15.9714" y="25.3286" width="1.25714" height="1.25714" fill="#DADAFF"/>
<rect x="15.9714" y="22.8143" width="1.25714" height="1.25714" fill="#DADAFF"/>
<rect x="15.9714" y="17.7857" width="1.25714" height="1.25714" fill="#DADAFF"/>
<rect x="28.5428" y="27.8429" width="1.25714" height="1.25714" fill="#DADAFF"/>
<rect x="28.5428" y="25.3286" width="1.25714" height="1.25714" fill="#DADAFF"/>
<rect x="28.5428" y="22.8143" width="1.25714" height="1.25714" fill="#DADAFF"/>
<rect x="28.5428" y="17.7857" width="1.25714" height="1.25714" fill="#DADAFF"/>
<rect x="33.5714" y="27.8429" width="1.25714" height="1.25714" fill="#DADAFF"/>
<rect x="33.5714" y="25.3286" width="1.25714" height="1.25714" fill="#DADAFF"/>
<rect x="33.5714" y="22.8143" width="1.25714" height="1.25714" fill="#DADAFF"/>
<rect x="33.5714" y="17.7857" width="1.25714" height="1.25714" fill="#DADAFF"/>
<rect x="31.0571" y="27.8429" width="1.25714" height="1.25714" fill="#DADAFF"/>
<rect x="31.0571" y="25.3286" width="1.25714" height="1.25714" fill="#DADAFF"/>
<rect x="31.0571" y="22.8143" width="1.25714" height="1.25714" fill="#DADAFF"/>
<rect x="31.0571" y="17.7857" width="1.25714" height="1.25714" fill="#DADAFF"/>
<rect x="36.0857" y="27.8429" width="1.25714" height="1.25714" fill="#DADAFF"/>
<rect x="36.0857" y="25.3286" width="1.25714" height="1.25714" fill="#DADAFF"/>
<rect x="36.0857" y="22.8143" width="1.25714" height="1.25714" fill="#DADAFF"/>
<rect x="36.0857" y="17.7857" width="1.25714" height="1.25714" fill="#DADAFF"/>
</g>
</g>
<defs>
<clipPath id="clip0_179_5518">
<rect width="40.2286" height="40.2286" fill="white" transform="translate(0.885712 0.185715)"/>
</clipPath>
<clipPath id="clip1_179_5518">
<rect width="40.2286" height="40.2286" fill="white" transform="translate(0.885712 0.185715)"/>
</clipPath>
</defs>
</svg>
