<svg width="10" height="10" viewBox="0 0 10 10" fill="none" xmlns="http://www.w3.org/2000/svg">
<path fill-rule="evenodd" clip-rule="evenodd" d="M10 6.17266L9.98603 6.25106L9.98507 6.25554C9.96459 6.37187 9.94506 6.48331 9.92108 6.59384C9.67178 7.7434 9.02788 8.61072 7.98288 9.1354C6.70859 9.77522 5.44255 9.69455 4.24019 8.92229C3.97008 8.74881 3.73221 8.51807 3.50197 8.29098C2.97859 7.775 2.45856 7.25568 1.93852 6.73637L1.93518 6.73304C1.51756 6.31591 1.09994 5.89879 0.680577 5.48341C0.414285 5.21975 0.275978 4.91854 0.344258 4.54253C0.405551 4.20459 0.608645 3.97272 0.925908 3.81586L0.822059 3.71068C0.744252 3.63156 0.667873 3.55398 0.58959 3.47848C0.443185 3.33726 0.326156 3.17932 0.276454 2.97781C0.144976 2.44526 0.438262 1.93326 0.964494 1.7779C0.978944 1.77362 0.993235 1.76886 1.00911 1.76355L1.0369 1.75439C0.986884 1.35069 1.11058 1.0151 1.44214 0.775411C1.77639 0.533914 2.13319 0.533682 2.48587 0.70279C2.51477 0.665211 2.5424 0.626442 2.56987 0.587738L2.57225 0.584092C2.63338 0.497575 2.6942 0.411574 2.76883 0.340105C3.14136 -0.0161596 3.72428 -0.0221327 4.09267 0.337351C4.54665 0.780326 4.9946 1.22954 5.44239 1.67874C5.63024 1.86712 5.81809 2.05549 6.00641 2.2434C6.21729 2.45379 6.42816 2.6641 6.63935 2.8742C6.65746 2.89233 6.67762 2.90853 6.71732 2.91641L6.69207 2.80681C6.67318 2.72476 6.65428 2.64259 6.63475 2.56071C6.60918 2.4538 6.58251 2.34715 6.55567 2.24049C6.4993 2.01592 6.44293 1.79134 6.39831 1.56448C6.28874 1.00854 6.65889 0.458359 7.20798 0.338253C7.77804 0.213556 8.34429 0.549906 8.47529 1.11016C8.65917 1.89608 8.89228 2.66475 9.22907 3.39927C9.30243 3.55929 9.38024 3.71725 9.45821 3.87521C9.52839 4.0176 9.59858 4.15999 9.66543 4.30389C9.84264 4.6847 9.94395 5.08704 9.99222 5.50816C10 5.72871 10 5.94592 10 6.17266ZM5.20833 3.37326C5.29995 3.4647 5.33425 3.57144 5.29551 3.69765C5.25994 3.8134 5.17626 3.87731 5.06225 3.8985C4.94569 3.92014 4.85359 3.8698 4.77198 3.78795C3.94896 2.96377 3.125 2.14045 2.30072 1.31757C2.1297 1.14674 1.90326 1.14254 1.7405 1.30368C1.58155 1.461 1.58886 1.69399 1.75908 1.86368L4.23336 4.32978C4.37579 4.47179 4.38881 4.65561 4.26512 4.7798C4.14078 4.90473 3.95436 4.89705 3.81352 4.75834C3.62297 4.5706 3.43401 4.38113 3.24457 4.19233L2.57717 3.52758C2.22148 3.1732 1.86595 2.81888 1.50994 2.46495C1.3521 2.30818 1.13631 2.29694 0.980215 2.43343C0.79443 2.59593 0.797129 2.83886 0.988313 3.02933L2.03252 4.06939C2.53589 4.57058 3.03925 5.07177 3.54214 5.57331C3.68299 5.71363 3.69045 5.89014 3.5658 6.01518C3.44179 6.13961 3.26188 6.13534 3.12294 6.00075C3.031 5.91173 2.94049 5.82117 2.84997 5.73059L2.72644 5.60692L2.38932 5.27142C2.1224 5.00591 1.85547 4.74039 1.58949 4.47408C1.46691 4.35141 1.32447 4.30977 1.16314 4.37332C0.902725 4.4759 0.84556 4.79419 1.05024 5.00014C1.27906 5.23039 1.5093 5.45918 1.73971 5.68797C1.865 5.81242 1.99028 5.93687 2.11525 6.06156C2.33136 6.27706 2.547 6.49313 2.76248 6.70921C3.22139 7.16927 3.68029 7.62931 4.14475 8.08374C5.06002 8.97926 6.48882 9.20572 7.63148 8.64912C9.22589 7.8725 9.85931 5.97972 9.04551 4.40286C8.53389 3.41155 8.14104 2.37856 7.90237 1.2877C7.88697 1.2174 7.85204 1.14583 7.80853 1.08827C7.67673 0.914136 7.43791 0.863876 7.24244 0.959379C7.033 1.06176 6.93979 1.28001 6.99917 1.52426C7.18639 2.29327 7.37344 3.06229 7.55828 3.83186C7.5713 3.88592 7.57844 3.94761 7.5659 4.00049C7.51636 4.21033 7.25372 4.34562 7.03347 4.1211C6.8045 3.88772 6.57298 3.65691 6.34146 3.4261L6.33956 3.4244L6.07962 3.16499C5.29678 2.38235 4.51394 1.59975 3.73094 0.817353C3.55024 0.636755 3.32746 0.625164 3.16454 0.786724C3.00098 0.948746 3.00956 1.17393 3.18772 1.35252C3.51658 1.6822 3.84575 2.01151 4.17937 2.34516L5.20833 3.37326Z" fill="white"/>
<path d="M0 7.8579C0.00968623 7.84429 0.0188961 7.83058 0.0279472 7.81705L0.0284235 7.81658C0.0609756 7.76813 0.0919398 7.72196 0.134178 7.69089C0.289158 7.57684 0.500984 7.64732 0.585779 7.83872C0.719004 8.13877 0.896691 8.4083 1.12344 8.64543C1.42785 8.96385 1.78719 9.19836 2.201 9.34999C2.32469 9.3953 2.39218 9.48922 2.39996 9.61858C2.40758 9.7453 2.3474 9.84148 2.23561 9.89937C2.1424 9.94769 2.04633 9.93373 1.9509 9.89636C1.07787 9.55465 0.444137 8.9588 0.0492251 8.10863C0.0377922 8.08414 0.0257241 8.06001 0.00698679 8.03369C0 7.97679 0 7.92192 0 7.8579Z" fill="white"/>
<path d="M2.94334 8.6531C2.93794 8.50499 2.84807 8.40725 2.65625 8.34543C2.37741 8.23584 2.1397 8.07859 1.93566 7.86973C1.76099 7.69099 1.62903 7.48474 1.52518 7.25817C1.4569 7.10909 1.30574 7.04653 1.15361 7.09551C1.01499 7.14012 0.929084 7.28297 0.957984 7.43236C0.968147 7.48431 0.9926 7.53445 1.0161 7.58266C1.33527 8.23697 1.8353 8.69062 2.52334 8.9329C2.74136 9.00963 2.95112 8.86767 2.94334 8.6531Z" fill="white"/>
</svg>
