<svg width="37" height="42" viewBox="0 0 37 42" fill="none" xmlns="http://www.w3.org/2000/svg">
<g clip-path="url(#clip0_160_3119)">
<rect width="36.5351" height="41.7544" transform="translate(0.326477 0.118439)" fill="#C0C0C0"/>
<rect x="0.326477" y="0.118439" width="36.5351" height="2.60965" fill="#777777"/>
<path d="M36.8616 2.72806H0.326477V39.2631H2.93613V5.33771H36.8616V2.72806Z" fill="#DADAFF"/>
<path d="M36.8616 5.33774H34.2519V39.2632H0.326477V41.8728H36.8616V5.33774Z" fill="#545487"/>
<rect x="10.7651" y="7.94739" width="15.6579" height="2.60965" fill="#B3B3DA"/>
<rect x="10.7651" y="10.557" width="15.6579" height="2.60965" fill="#DADAFF"/>
<rect x="10.7651" y="13.1667" width="15.6579" height="2.60965" fill="#8787B3"/>
<rect x="10.7651" y="15.7763" width="15.6579" height="2.60965" fill="#DADAFF"/>
<rect x="10.7651" y="18.386" width="15.6579" height="2.60965" fill="#8787B3"/>
<rect x="10.7651" y="20.9956" width="15.6579" height="2.60965" fill="#DADAFF"/>
<rect x="10.7651" y="26.2149" width="15.6579" height="2.60965" fill="#DADAFF"/>
<rect x="10.7651" y="31.4342" width="15.6579" height="2.60965" fill="#DADAFF"/>
<rect x="10.7651" y="23.6053" width="15.6579" height="2.60965" fill="#8787B3"/>
<rect x="10.7651" y="28.8246" width="15.6579" height="2.60965" fill="#8787B3"/>
</g>
<defs>
<clipPath id="clip0_160_3119">
<rect width="36.5351" height="41.7544" fill="white" transform="translate(0.326477 0.118439)"/>
</clipPath>
</defs>
</svg>
