<?xml version="1.0" encoding="UTF-8"?>
<svg width="120" height="120" xmlns="http://www.w3.org/2000/svg" viewBox="0 0 119.97 119.97">
  <defs>
    <style>
      .cls-1 {
        fill: #fff;
        stroke: #e6e6e6;
        stroke-miterlimit: 10;
        stroke-width: .91px;
      }

      .cls-2 {
        fill: #f2f2f2;
      }

      .cls-3 {
        fill: #00aeef;
      }

      .cls-4 {
        fill: #00b8a5;
      }

      .cls-5 {
        fill: #ccc;
      }

      .cls-6 {
        mix-blend-mode: multiply;
      }

      .cls-7 {
        isolation: isolate;
      }
    </style>
  </defs>
  <g class="cls-7">
    <g id="Layer_1" data-name="Layer 1">
      <g>
        <circle class="cls-1" cx="59.98" cy="59.98" r="59.53"/>
        <g>
          <path class="cls-5" d="M15.75,88.79l-1.19-1.8,9.72-6.46,2.89,4.36-1.56,1.04-1.7-2.56-2.7,1.79,1.59,2.39-1.56,1.04-1.59-2.39-3.9,2.59Z"/>
          <path class="cls-5" d="M29.09,95.46c-1.38,1.35-2.7,2.12-3.95,2.33-1.25,.2-2.34-.18-3.28-1.14-.94-.97-1.3-2.07-1.06-3.31,.24-1.24,1.05-2.54,2.45-3.9,1.38-1.35,2.7-2.12,3.94-2.32,1.24-.2,2.34,.19,3.29,1.17,.94,.97,1.29,2.07,1.05,3.3-.24,1.24-1.05,2.53-2.44,3.88Zm-4.3-4.42c-.95,.93-1.56,1.75-1.83,2.48s-.17,1.32,.28,1.79c.91,.94,2.35,.46,4.3-1.44,1.95-1.9,2.48-3.32,1.57-4.25-.46-.47-1.06-.59-1.79-.34-.73,.24-1.58,.83-2.53,1.76Z"/>
          <path class="cls-5" d="M39.55,95.67l-4.26,6.23c-.78,1.15-1.64,1.84-2.57,2.09-.93,.25-1.89,.04-2.87-.63-.96-.66-1.48-1.45-1.57-2.4-.09-.94,.27-2,1.07-3.17l4.25-6.21,1.78,1.22-4.34,6.34c-.84,1.23-.85,2.12-.04,2.67,.38,.26,.78,.3,1.2,.13,.42-.17,.83-.54,1.22-1.12l4.36-6.38,1.78,1.22Z"/>
          <path class="cls-5" d="M43.19,109.98l-2.44-1.02-.06-9.19-.1-.04c-.13,.65-.33,1.31-.62,1.99l-2.46,5.88-1.86-.78,4.51-10.77,2.46,1.03,.07,9.1,.08,.03c.12-.55,.33-1.19,.63-1.9l2.46-5.88,1.84,.77-4.51,10.77Z"/>
          <path class="cls-5" d="M54.62,106.44c-.37,1.89-1.04,3.26-2.01,4.11-.97,.85-2.18,1.13-3.62,.84l-2.8-.55,2.27-11.45,3.06,.61c1.33,.26,2.27,.96,2.82,2.09,.55,1.13,.64,2.58,.29,4.36Zm-2.2-.37c.51-2.56,.05-3.98-1.36-4.26l-.85-.17-1.53,7.75,.69,.14c.78,.15,1.42-.06,1.92-.63,.5-.58,.88-1.52,1.14-2.82Z"/>
          <path class="cls-5" d="M61.22,112.59l-5.26-.15,.34-11.67,5.26,.15-.05,1.88-3.09-.09-.08,2.78,2.86,.08-.05,1.88-2.86-.08-.09,3.23,3.09,.09-.06,1.9Z"/>
          <path class="cls-5" d="M65.22,107.71l.58,4.51-2.15,.28-1.49-11.58,2.82-.36c1.19-.15,2.11,.02,2.75,.51,.64,.49,1.04,1.32,1.18,2.48,.19,1.46-.17,2.55-1.09,3.26l2.88,4.79-2.3,.3-2.41-4.27-.77,.1Zm-.24-1.85l.55-.07c.51-.07,.85-.26,1.04-.57,.18-.32,.24-.76,.17-1.33-.08-.59-.25-1-.52-1.22-.27-.22-.65-.3-1.14-.24l-.54,.07,.43,3.36Z"/>
          <path class="cls-5" d="M80.66,99.5c.49,1.14,.57,2.14,.26,2.99-.31,.86-1.02,1.51-2.1,1.98l-.5,.21,1.66,3.89-2,.85-4.59-10.73,2.72-1.16c2.09-.89,3.6-.24,4.54,1.97Zm-3.08,3.45l.38-.16c.49-.21,.8-.5,.92-.87,.12-.37,.06-.86-.2-1.48-.24-.56-.53-.93-.87-1.11-.34-.18-.73-.17-1.19,.03l-.48,.21,1.45,3.38Z"/>
          <path class="cls-5" d="M90.18,103.06l-2.15-2.13-2.57,1.63,1.01,2.85-1.83,1.17-3.85-11.44,2.49-1.58,8.73,8.34-1.84,1.17Zm-3.52-3.53l-1.98-1.96c-.12-.12-.41-.42-.88-.91-.47-.49-.77-.82-.91-1,.19,.42,.38,.9,.59,1.42,.21,.52,.65,1.73,1.32,3.63l1.86-1.18Z"/>
          <path class="cls-5" d="M91.99,95.83l3.07,3.35-1.6,1.47-7.89-8.6,2.09-1.92c.89-.81,1.73-1.2,2.54-1.17,.81,.03,1.61,.48,2.4,1.34,1,1.09,1.33,2.18,.99,3.29l5.11,2.26-1.71,1.57-4.43-2.1-.57,.52Zm-1.26-1.38l.41-.38c.38-.35,.55-.7,.52-1.07-.03-.36-.24-.76-.63-1.18-.4-.44-.78-.67-1.12-.7-.35-.03-.7,.13-1.07,.46l-.4,.37,2.29,2.49Z"/>
          <path class="cls-5" d="M104.37,88.61l-1.41,1.83-5.12-1.53,.16,1.22,3.26,2.51-1.32,1.72-9.25-7.12,1.32-1.72,4.59,3.53-.92-1.67-1.99-4.04,1.42-1.84,2.36,5.22,6.91,1.87Z"/>
        </g>
        <g class="cls-6">
          <g>
            <path class="cls-5" d="M24.95,38.31l-2.91-.8-1.44,2.68,2.28,1.98-1.03,1.91-8.96-8.09,1.39-2.6,11.7,2.99-1.03,1.92Zm-4.8-1.35l-2.69-.74c-.16-.05-.57-.17-1.21-.37-.65-.2-1.07-.34-1.28-.42,.37,.28,.77,.59,1.21,.95,.43,.35,1.41,1.19,2.93,2.52l1.04-1.94Z"/>
            <path class="cls-5" d="M23.06,29.86l2.23-2.78,4.67,3.75c-.3,1.06-.8,2.03-1.51,2.92-.85,1.06-1.91,1.55-3.17,1.48-1.26-.07-2.65-.72-4.17-1.94-1.46-1.17-2.34-2.42-2.65-3.73-.3-1.32,.02-2.56,.96-3.74,.58-.73,1.33-1.27,2.23-1.63l.95,1.64c-.71,.28-1.25,.64-1.61,1.09-.52,.64-.64,1.38-.36,2.22,.27,.84,.91,1.65,1.9,2.45,1.02,.82,1.91,1.31,2.68,1.48,.76,.16,1.35-.01,1.77-.53,.22-.27,.41-.58,.56-.92l-2.09-1.67-.9,1.13-1.49-1.2Z"/>
            <path class="cls-5" d="M31.14,30.55l-8-8.5,1.49-1.4,8,8.5-1.49,1.4Z"/>
            <path class="cls-5" d="M39.4,15.02c.6,1.09,.78,2.07,.55,2.95-.23,.88-.86,1.61-1.9,2.17l-.48,.26,2.03,3.71-1.9,1.04-5.61-10.23,2.6-1.42c1.99-1.09,3.56-.59,4.71,1.51Zm-2.73,3.74l.36-.2c.47-.26,.74-.57,.83-.96,.09-.38-.03-.86-.35-1.45-.29-.54-.62-.88-.97-1.02-.35-.14-.75-.1-1.19,.15l-.46,.25,1.77,3.23Z"/>
            <path class="cls-5" d="M43.56,22.08l-4.08-10.94,2.03-.76,3.41,9.16,2.82-1.05,.66,1.78-4.85,1.81Z"/>
            <path class="cls-5" d="M53.96,19.1l-1.24-2.75-2.98,.6-.07,3.02-2.13,.43,.51-12.06,2.89-.58,5.16,10.91-2.14,.43Zm-2.02-4.56l-1.15-2.54c-.07-.15-.23-.54-.49-1.17-.26-.62-.42-1.04-.49-1.26,.02,.46,.04,.97,.04,1.54,0,.56-.02,1.85-.07,3.86l2.16-.44Z"/>
            <path class="cls-5" d="M58.16,11.7l1.39-4.66,2.27-.08-2.52,7.09,.17,4.68-2.14,.08-.16-4.59-3.01-6.98,2.29-.08,1.71,4.55Z"/>
            <path class="cls-5" d="M66.09,12.67l3.54,.46-.77,5.94c-1.06,.3-2.15,.37-3.28,.22-1.35-.18-2.32-.82-2.91-1.94-.59-1.12-.76-2.64-.51-4.57,.24-1.86,.85-3.26,1.81-4.2,.97-.94,2.2-1.32,3.69-1.12,.92,.12,1.77,.47,2.55,1.06l-.91,1.67c-.6-.47-1.19-.73-1.76-.81-.82-.11-1.51,.17-2.09,.84-.57,.67-.94,1.63-1.11,2.9-.17,1.3-.13,2.32,.13,3.05,.26,.74,.71,1.15,1.37,1.23,.35,.05,.71,.05,1.08,0l.35-2.65-1.43-.19,.25-1.9Z"/>
            <path class="cls-5" d="M72.7,16.03l-1.37,4.33-2.07-.65,3.51-11.13,2.71,.85c1.15,.36,1.91,.9,2.28,1.62,.37,.72,.39,1.63,.03,2.75-.44,1.41-1.23,2.24-2.35,2.5l.6,5.56-2.22-.7-.39-4.89-.74-.23Zm.56-1.78l.53,.17c.49,.15,.88,.13,1.18-.08,.3-.21,.54-.59,.71-1.14,.18-.57,.19-1.01,.04-1.32-.15-.31-.46-.54-.93-.69l-.52-.16-1.02,3.23Z"/>
            <path class="cls-5" d="M85.64,20.39c-.91,1.7-1.93,2.84-3.06,3.42-1.13,.57-2.29,.54-3.47-.09-1.19-.64-1.86-1.58-2.01-2.84-.15-1.25,.23-2.74,1.15-4.46,.91-1.7,1.93-2.84,3.05-3.41,1.12-.57,2.29-.53,3.49,.11,1.19,.63,1.85,1.58,2,2.83,.15,1.25-.24,2.73-1.15,4.43Zm-5.44-2.91c-.63,1.17-.96,2.15-.99,2.92-.03,.77,.24,1.31,.81,1.62,1.15,.62,2.37-.28,3.66-2.68,1.28-2.4,1.35-3.91,.21-4.52-.58-.31-1.18-.24-1.81,.22-.62,.45-1.25,1.27-1.88,2.45Z"/>
            <path class="cls-5" d="M96.1,21.35l-4.8,5.83c-.88,1.07-1.8,1.69-2.75,1.86-.95,.17-1.88-.13-2.8-.88-.9-.74-1.35-1.58-1.35-2.53,0-.95,.44-1.97,1.35-3.06l4.78-5.8,1.66,1.37-4.88,5.93c-.94,1.15-1.04,2.03-.28,2.66,.35,.29,.75,.37,1.18,.24,.43-.13,.87-.47,1.32-1.01l4.91-5.96,1.66,1.37Z"/>
            <path class="cls-5" d="M94.29,37.16l-1.66-2.07,4.33-8.11-.06-.08c-.42,.51-.92,.99-1.49,1.46l-4.97,3.99-1.26-1.57,9.1-7.31,1.67,2.08-4.29,8.03,.05,.07c.37-.43,.86-.88,1.46-1.37l4.97-3.99,1.25,1.56-9.1,7.31Z"/>
            <path class="cls-5" d="M103.3,41.73c-1.72,.87-3.21,1.18-4.48,.94-1.26-.24-2.23-1.02-2.89-2.34l-1.29-2.55,10.42-5.26,1.41,2.79c.61,1.21,.64,2.38,.08,3.51-.56,1.13-1.64,2.1-3.26,2.91Zm-1.06-1.96c2.33-1.17,3.17-2.4,2.52-3.69l-.39-.78-7.05,3.56,.32,.63c.36,.71,.92,1.08,1.68,1.12,.76,.04,1.74-.24,2.92-.84Z"/>
          </g>
        </g>
        <g>
          <path class="cls-3" d="M97.82,51.62l-1.43,20.88c-.62,7.09-6.42,9.78-12.95,9.13-5.18-.52-9.54-3.79-9.48-9.35,2.7,.77,5.82,1.56,8.64,1.03,1.02-.19,2.06-.6,2.67-1.47-4.45,.17-9.99-1.28-11.11-6.21l-1.98-14,11.75,.09,1.69,13.8h1.34l-1.69-13.89h12.55Z"/>
          <path class="cls-3" d="M21.42,66.31v5.08H9.67v-22.97h12.96c.18-.01,.35,.08,.53,.09,3.45,.18,7.64,.7,10.01,3.52,2.11,2.51,2.28,6.98,.57,9.74-2.43,3.93-8.13,4.46-12.32,4.55Zm0-6.59c1.53,.13,1.52-2.38,1.31-3.4-.15-.74-.4-1.48-1.31-1.32v4.72Z"/>
          <path class="cls-3" d="M73.33,71.39c-2.44-.11-5.01,.14-7.44,0-1.45-.08-2.92-.39-3.93-1.51-2.61,1.89-6.5,2.7-9.65,2-3.22-.72-4.55-3.33-4.27-6.5,.45-4.98,6.81-7.04,11.02-5.86l1.53,.52c-.72-2.49-3.8-2.53-5.91-2.26s-4.2,1.06-5.93,2.21c-.03-3.56,1.94-6.41,5.19-7.76,3.59-1.5,9.76-1.54,13.35-.05,6.53,2.71,4.21,9.18,4.79,14.71,.16,1.56,.62,3.07,1.25,4.5Zm-12.73-7.39c-1.05-.14-1.17,2.32-.49,2.32,.21,.02,.49-.56,.49-.67v-1.65Z"/>
          <rect class="cls-3" x="35.67" y="46.9" width="11.4" height="24.48"/>
          <path class="cls-3" d="M110.64,48.33l-1.34,13.44c-2.78-2.24-6.66-2.23-9.44,0l-1.34-13.44h12.11Z"/>
          <path class="cls-3" d="M103.85,61.44c4.99-.51,8.49,4.59,6.09,9.03-2.04,3.77-7.34,4.27-10.07,.96-3.07-3.72-.81-9.5,3.99-9.99Z"/>
        </g>
        <g>
          <path class="cls-4" d="M53.19,39.43c.28,.36,.74,.55,1.17,.66,1.4,.34,3.02,.02,4.29-.62-.42,2.98-3.65,3.55-6.16,3.42-3.08-.16-5.39-2.14-4.95-5.4,.35-2.61,2.57-3.71,4.99-3.84,2.83-.15,5.78,.7,6.16,3.92,.18,1.48-.3,1.82-1.68,2.06-1.28,.22-2.57,.16-3.82-.19Zm-.16-3.25c-.09,.07-.23,1.06-.24,1.23-.02,.51,.54,.46,1,.48h0c-.1-.45-.36-.97-.54-1.38-.03-.06-.14-.34-.22-.32Z"/>
          <path class="cls-4" d="M71.05,39.18c1.31,.74,3.05,1.03,4.55,.84,.2-.03,1.13-.17,1.02-.49-.02-.06-.12-.09-.18-.1-.69-.11-1.63,.08-2.36,.04-1.33-.07-2.63-.47-2.87-1.95-.67-4.26,6.76-4.58,9.14-2.96,.83,.57,1.22,1.4,1.25,2.4l-.08,.05c-.51-.23-1.14-.37-1.7-.42-.65-.07-2.91-.13-3.31,.42-.04,.06-.11,.13-.04,.2,.1,.12,.44,.1,.59,.1,1.51-.05,4.39-.8,4.82,1.36,.27,1.34-.35,2.73-1.51,3.43-1.73,1.05-5.46,1.11-7.3,.32-1.37-.58-2.03-1.76-2.01-3.23Z"/>
          <path class="cls-4" d="M64.43,31.35v2.45h1.77v3.74h-1.69v1.27s.09,.25,.11,.29c.39,.78,1.86,.63,2.58,.53v.58c0,1.63-1.5,2.86-3,3.1-2.85,.47-5.07-.68-5.1-3.78v-8.17s5.34,0,5.34,0Z"/>
          <path class="cls-4" d="M43.72,32.36v6.43h3.67l.06,.06v3.88h-6.13c-2.12,0-2.86-1.02-2.86-2.43v-7.93h5.26Z"/>
          <path class="cls-4" d="M68.12,38.06c.2-.65,.23-1.28,.03-1.94-.37-1.2-1.56-1.56-1.16-3.04,.52-1.96,3.43-1.7,3.69,.22,.24,1.81-.91,3.98-2.56,4.75Z"/>
        </g>
        <g>
          <g>
            <rect class="cls-2" x="45.56" y="81.53" width="29.26" height="10.85" rx="3.31" ry="3.31"/>
            <path d="M71.51,92.82h-22.63c-2.06,0-3.74-1.68-3.74-3.74v-4.23c0-2.06,1.68-3.74,3.74-3.74h22.63c2.06,0,3.74,1.68,3.74,3.74v4.23c0,2.06-1.68,3.74-3.74,3.74Zm-22.63-10.85c-1.59,0-2.88,1.29-2.88,2.88v4.23c0,1.59,1.29,2.88,2.88,2.88h22.63c1.59,0,2.88-1.29,2.88-2.88v-4.23c0-1.59-1.29-2.88-2.88-2.88h-22.63Z"/>
          </g>
          <g>
            <g>
              <path d="M69.95,90.56c0-.09,.03-.18,.1-.25,.81-.86,1.29-1.98,1.33-3.17,.05-1.18-.33-2.33-1.07-3.24-.08-.1-.17-.21-.27-.31-.14-.14-.13-.37,.01-.51,.14-.14,.37-.13,.51,.01,.11,.11,.21,.23,.31,.35,.84,1.05,1.28,2.37,1.22,3.72-.05,1.36-.6,2.65-1.53,3.63-.14,.14-.36,.15-.51,.01-.07-.07-.11-.17-.11-.26Z"/>
              <path d="M68.72,89.48c0-.09,.04-.18,.11-.25,.61-.61,.94-1.41,.94-2.27s-.33-1.66-.94-2.27c-.14-.14-.14-.37,0-.51,.14-.14,.37-.14,.51,0,.74,.74,1.15,1.73,1.15,2.78s-.41,2.04-1.15,2.78c-.14,.14-.37,.14-.51,0-.07-.07-.11-.16-.11-.25Z"/>
              <path d="M67.54,88.4c0-.09,.04-.18,.11-.25,.65-.65,.65-1.72,0-2.37-.14-.14-.14-.37,0-.51,.14-.14,.37-.14,.51,0,.94,.94,.94,2.46,0,3.39-.14,.14-.37,.14-.51,0-.07-.07-.11-.16-.11-.25Z"/>
            </g>
            <g>
              <path d="M50.39,89.1h-.88v-3.98h-.91v-.78h2.71v.78h-.91v3.98Z"/>
              <path d="M53.15,89.1l-.17-.5h-.02c-.13,.21-.26,.36-.4,.44-.14,.08-.31,.12-.52,.12-.27,0-.48-.1-.63-.3-.15-.2-.23-.48-.23-.83,0-.38,.1-.67,.31-.85,.21-.19,.52-.29,.94-.31l.48-.02v-.26c0-.34-.15-.51-.44-.51-.22,0-.47,.08-.75,.25l-.3-.6c.36-.23,.75-.34,1.18-.34,.38,0,.68,.11,.88,.33,.2,.22,.3,.53,.3,.94v2.44h-.64Zm-.75-.61c.16,0,.29-.07,.38-.21s.14-.33,.14-.57v-.31h-.27c-.2,.02-.34,.08-.43,.18-.09,.1-.14,.25-.14,.46,0,.3,.11,.45,.32,.45Z"/>
              <path d="M55.93,89.17c-.16,0-.29-.04-.42-.11-.12-.07-.23-.19-.34-.37h-.05c.03,.3,.05,.47,.05,.53v1.48h-.87v-5.23h.67l.15,.47h.04c.18-.36,.44-.54,.79-.54s.59,.16,.78,.49c.19,.33,.28,.79,.28,1.39s-.1,1.05-.29,1.38-.46,.5-.79,.5Zm-.27-3.03c-.17,0-.29,.08-.37,.24-.07,.16-.11,.42-.12,.78v.11c0,.4,.04,.69,.11,.87,.08,.18,.2,.27,.38,.27,.3,0,.46-.38,.46-1.15,0-.38-.04-.66-.11-.85-.07-.19-.19-.28-.35-.28Z"/>
              <path d="M60.16,89.1l-.91-4.06h-.04c.04,.31,.06,.6,.06,.86v3.2h-.82v-4.76h1.36l.81,3.74h.03l.81-3.74h1.38v4.76h-.84v-3.23c0-.27,.02-.54,.05-.82h-.03l-.9,4.05h-.97Z"/>
              <path d="M64.81,89.17c-.45,0-.81-.16-1.07-.48s-.39-.78-.39-1.37,.12-1.07,.36-1.4c.24-.34,.57-.5,.99-.5,.4,0,.71,.14,.93,.43,.23,.29,.34,.69,.34,1.21v.46h-1.74c0,.32,.07,.56,.2,.72,.13,.16,.3,.24,.52,.24,.28,0,.57-.09,.87-.26v.71c-.28,.17-.61,.25-1,.25Zm-.13-3.09c-.12,0-.23,.07-.31,.2-.08,.13-.13,.34-.14,.61h.88c0-.26-.04-.47-.12-.6-.08-.14-.18-.21-.31-.21Z"/>
            </g>
          </g>
        </g>
      </g>
    </g>
  </g>
</svg>
