<svg width="172" height="172" viewBox="0 0 172 172" fill="none" xmlns="http://www.w3.org/2000/svg">
<path d="M86 171C132.944 171 171 132.944 171 86C171 39.0558 132.944 1 86 1C39.0558 1 1 39.0558 1 86C1 132.944 39.0558 171 86 171Z" fill="white"/>
<path d="M86 171C132.944 171 171 132.944 171 86C171 39.0558 132.944 1 86 1C39.0558 1 1 39.0558 1 86C1 132.944 39.0558 171 86 171Z" stroke="#E6E6E6" stroke-width="0.91" stroke-miterlimit="10" stroke-dasharray="4.82 4.82"/>
<path d="M86 171C132.944 171 171 132.944 171 86C171 39.0558 132.944 1 86 1C39.0558 1 1 39.0558 1 86C1 132.944 39.0558 171 86 171Z" stroke="black" stroke-width="0.91" stroke-miterlimit="10" stroke-dasharray="4.82 4.82"/>
<g opacity="0.2">
<path d="M22.8461 127.136L21.147 124.566L35.0257 115.342L39.1522 121.568L36.9247 123.053L34.4974 119.398L30.6422 121.953L32.9125 125.366L30.685 126.851L28.4147 123.438L22.8461 127.136Z" fill="#CCCCCC"/>
<path d="M41.8937 136.66C39.9232 138.588 38.0385 139.687 36.2536 139.987C34.4688 140.273 32.9125 139.73 31.5703 138.359C30.2281 136.974 29.7141 135.404 30.0568 133.633C30.3995 131.863 31.556 130.006 33.555 128.065C35.5254 126.137 37.4102 125.037 39.1807 124.752C40.9513 124.466 42.5219 125.023 43.8784 126.423C45.2206 127.808 45.7203 129.378 45.3776 131.134C45.0349 132.905 43.8784 134.747 41.8937 136.674V136.66ZM35.7539 130.349C34.3974 131.677 33.5264 132.848 33.1409 133.89C32.7554 134.932 32.8982 135.775 33.5407 136.446C34.8401 137.788 36.8962 137.103 39.6805 134.39C42.4648 131.677 43.2216 129.649 41.9222 128.322C41.2654 127.65 40.4087 127.479 39.3664 127.836C38.324 128.179 37.1104 129.021 35.7539 130.349Z" fill="#CCCCCC"/>
<path d="M56.8289 136.96L50.7463 145.856C49.6326 147.498 48.4046 148.483 47.0767 148.84C45.7488 149.197 44.3781 148.897 42.9788 147.94C41.6081 146.998 40.8656 145.87 40.7371 144.513C40.6086 143.171 41.1226 141.658 42.2649 139.987L48.3332 131.12L50.8748 132.862L44.6779 141.915C43.4785 143.671 43.4643 144.942 44.6208 145.727C45.1634 146.098 45.7345 146.155 46.3342 145.913C46.9339 145.67 47.5194 145.142 48.0762 144.313L54.3017 135.204L56.8432 136.946L56.8289 136.96Z" fill="#CCCCCC"/>
<path d="M62.0263 157.393L58.5424 155.936L58.4567 142.814L58.3139 142.757C58.1283 143.685 57.8427 144.628 57.4287 145.599L53.9161 153.994L51.2603 152.881L57.7 137.503L61.2125 138.973L61.3124 151.967L61.4266 152.01C61.598 151.224 61.8978 150.311 62.3262 149.297L65.8387 140.901L68.466 142L62.0263 157.378V157.393Z" fill="#CCCCCC"/>
<path d="M78.3467 152.338C77.8184 155.037 76.8617 156.993 75.4767 158.206C74.0917 159.42 72.364 159.82 70.3079 159.406L66.3099 158.621L69.5511 142.272L73.9204 143.143C75.8194 143.514 77.1616 144.513 77.9469 146.127C78.7322 147.74 78.8607 149.811 78.361 152.352L78.3467 152.338ZM75.2054 151.81C75.9336 148.154 75.2768 146.127 73.2635 145.727L72.0499 145.484L69.8653 156.55L70.8505 156.75C71.9642 156.964 72.878 156.664 73.592 155.85C74.3059 155.022 74.8485 153.68 75.2197 151.824L75.2054 151.81Z" fill="#CCCCCC"/>
<path d="M87.7705 161.119L80.26 160.905L80.7455 144.242L88.256 144.456L88.1846 147.141L83.7725 147.012L83.6583 150.982L87.742 151.096L87.6706 153.78L83.5869 153.666L83.4584 158.278L87.8705 158.406L87.7848 161.119H87.7705Z" fill="#CCCCCC"/>
<path d="M93.4819 154.151L94.3101 160.591L91.2402 160.991L89.1127 144.456L93.1392 143.942C94.8384 143.728 96.152 143.971 97.0658 144.67C97.9797 145.37 98.5508 146.555 98.7507 148.212C99.022 150.296 98.508 151.853 97.1943 152.866L101.307 159.706L98.0225 160.134L94.5814 154.037L93.4819 154.18V154.151ZM93.1392 151.51L93.9246 151.41C94.6528 151.31 95.1382 151.039 95.4095 150.596C95.6665 150.139 95.7522 149.511 95.6523 148.697C95.538 147.855 95.2953 147.269 94.9098 146.955C94.5243 146.641 93.9817 146.527 93.282 146.612L92.511 146.712L93.125 151.51H93.1392Z" fill="#CCCCCC"/>
<path d="M115.528 142.429C116.228 144.056 116.342 145.484 115.899 146.698C115.457 147.926 114.443 148.854 112.901 149.525L112.187 149.825L114.557 155.379L111.701 156.593L105.147 141.272L109.031 139.616C112.015 138.345 114.171 139.273 115.514 142.429H115.528ZM111.13 147.355L111.673 147.126C112.372 146.826 112.815 146.412 112.986 145.884C113.158 145.356 113.072 144.656 112.701 143.771C112.358 142.971 111.944 142.443 111.459 142.186C110.973 141.929 110.416 141.943 109.759 142.229L109.074 142.529L111.144 147.355H111.13Z" fill="#CCCCCC"/>
<path d="M129.121 147.512L126.051 144.471L122.382 146.798L123.824 150.867L121.211 152.538L115.714 136.203L119.269 133.947L131.734 145.856L129.107 147.526L129.121 147.512ZM124.095 142.472L121.268 139.673C121.097 139.502 120.683 139.073 120.011 138.374C119.34 137.674 118.912 137.203 118.712 136.946C118.983 137.545 119.255 138.231 119.555 138.973C119.854 139.716 120.483 141.443 121.439 144.156L124.095 142.472Z" fill="#CCCCCC"/>
<path d="M131.706 137.188L136.089 141.972L133.804 144.071L122.539 131.791L125.523 129.05C126.794 127.893 127.993 127.336 129.15 127.379C130.306 127.422 131.448 128.065 132.576 129.292C134.004 130.849 134.476 132.405 133.99 133.99L141.286 137.217L138.845 139.459L132.519 136.46L131.706 137.203V137.188ZM129.906 135.218L130.492 134.675C131.034 134.176 131.277 133.676 131.234 133.148C131.191 132.634 130.892 132.062 130.335 131.463C129.764 130.835 129.221 130.506 128.736 130.463C128.236 130.42 127.736 130.649 127.208 131.12L126.637 131.648L129.906 135.204V135.218Z" fill="#CCCCCC"/>
<path d="M149.382 126.879L147.369 129.492L140.058 127.308L140.287 129.05L144.942 132.634L143.057 135.09L129.849 124.923L131.734 122.467L138.288 127.508L136.974 125.123L134.133 119.355L136.16 116.727L139.53 124.181L149.397 126.851L149.382 126.879Z" fill="#CCCCCC"/>
<g style="mix-blend-mode:multiply">
<path d="M35.9824 55.0585L31.8273 53.9162L29.7712 57.7428L33.0267 60.57L31.556 63.2972L18.7625 51.7459L20.7472 48.0334L37.4531 52.3027L35.9824 55.0442V55.0585ZM29.1287 53.1309L25.2878 52.0743C25.0593 52.0029 24.4739 51.8315 23.5601 51.546C22.632 51.2604 22.0323 51.0605 21.7324 50.9463C22.2607 51.3461 22.8319 51.7887 23.4601 52.3027C24.0741 52.8025 25.4734 54.0019 27.6437 55.9009L29.1287 53.1309Z" fill="#CCCCCC"/>
<path d="M33.2837 42.9931L36.4678 39.0236L43.1359 44.3781C42.7075 45.8916 41.9936 47.2766 40.9798 48.5474C39.7662 50.0609 38.2526 50.7606 36.4536 50.6606C34.6545 50.5607 32.6697 49.6326 30.4994 47.8906C28.4147 46.22 27.1582 44.4352 26.7156 42.5647C26.2872 40.68 26.7442 38.9094 28.0863 37.2246C28.9145 36.1822 29.9854 35.4112 31.2704 34.8972L32.6269 37.2388C31.6131 37.6386 30.8421 38.1527 30.3281 38.7952C29.5856 39.709 29.4142 40.7656 29.814 41.965C30.1996 43.1644 31.1134 44.321 32.527 45.4633C33.9834 46.6341 35.2542 47.3337 36.3536 47.5765C37.4388 47.8049 38.2812 47.5622 38.8809 46.8197C39.195 46.4342 39.4663 45.9916 39.6805 45.5061L36.6963 43.1216L35.4112 44.7351L33.2837 43.0216V42.9931Z" fill="#CCCCCC"/>
<path d="M44.8208 43.9783L33.3979 31.8416L35.5254 29.8426L46.9483 41.9793L44.8208 43.9783Z" fill="#CCCCCC"/>
<path d="M56.6148 21.8038C57.4716 23.3602 57.7286 24.7595 57.4002 26.016C57.0718 27.2725 56.1722 28.3148 54.6872 29.1144L54.0019 29.4857L56.9004 34.783L54.1875 36.268L46.1772 21.661L49.8897 19.6335C52.7311 18.0771 54.9728 18.7911 56.6148 21.7895V21.8038ZM52.7168 27.144L53.2308 26.8584C53.9019 26.4872 54.2874 26.0445 54.4159 25.4877C54.5445 24.9451 54.3731 24.2597 53.9162 23.4173C53.5021 22.6463 53.0309 22.1608 52.5312 21.9609C52.0314 21.761 51.4603 21.8181 50.832 22.1751L50.1752 22.532L52.7025 27.144H52.7168Z" fill="#CCCCCC"/>
<path d="M62.5547 31.8844L56.729 16.2637L59.6276 15.1785L64.4965 28.2576L68.5231 26.7584L69.4655 29.3L62.5404 31.8844H62.5547Z" fill="#CCCCCC"/>
<path d="M77.4043 27.6294L75.6338 23.7028L71.3788 24.5595L71.2788 28.8716L68.2375 29.4856L68.9657 12.2657L73.0922 11.4376L80.4599 27.0154L77.4043 27.6294ZM74.5201 21.1184L72.878 17.4917C72.7781 17.2775 72.5496 16.7206 72.1784 15.8211C71.8071 14.9358 71.5787 14.3361 71.4787 14.022C71.5073 14.6788 71.5359 15.407 71.5359 16.2209C71.5359 17.0205 71.5073 18.8624 71.4359 21.7324L74.5201 21.1041V21.1184Z" fill="#CCCCCC"/>
<path d="M83.4013 17.0634L85.386 10.4096L88.6273 10.2953L85.0291 20.4188L85.2718 27.1012L82.2162 27.2154L81.9877 20.6616L77.6899 10.6951L80.9597 10.5809L83.4013 17.0776V17.0634Z" fill="#CCCCCC"/>
<path d="M94.7241 18.4483L99.7787 19.1052L98.6793 27.5866C97.1658 28.015 95.6094 28.1149 93.996 27.9007C92.0684 27.6437 90.6833 26.7299 89.8409 25.1307C88.9985 23.5315 88.7557 21.3612 89.1127 18.6054C89.4554 15.9496 90.3264 13.9506 91.6971 12.6084C93.0821 11.2663 94.8384 10.7237 96.9659 11.0092C98.2795 11.1806 99.4932 11.6803 100.607 12.5228L99.3076 14.9073C98.4509 14.2362 97.6084 13.8649 96.7945 13.7507C95.6237 13.5937 94.6385 13.9935 93.8103 14.9501C92.9964 15.9068 92.4681 17.2775 92.2254 19.0909C91.9827 20.9471 92.0398 22.4035 92.411 23.4458C92.7823 24.5024 93.4248 25.0879 94.3672 25.2021C94.8669 25.2735 95.381 25.2735 95.9093 25.2021L96.409 21.4183L94.3672 21.147L94.7241 18.4341V18.4483Z" fill="#CCCCCC"/>
<path d="M104.162 23.246L102.206 29.4286L99.2505 28.5004L104.262 12.6085L108.132 13.8221C109.774 14.3362 110.859 15.1072 111.387 16.1353C111.915 17.1633 111.944 18.4627 111.43 20.0618C110.802 22.0751 109.674 23.2602 108.075 23.6315L108.931 31.5703L105.761 30.5708L105.205 23.5886L104.148 23.2602L104.162 23.246ZM104.962 20.7044L105.719 20.9471C106.418 21.1613 106.975 21.1327 107.403 20.8329C107.832 20.533 108.175 19.9905 108.417 19.2051C108.674 18.3913 108.689 17.763 108.474 17.3204C108.26 16.8777 107.818 16.5493 107.146 16.3352L106.404 16.1067L104.948 20.7187L104.962 20.7044Z" fill="#CCCCCC"/>
<path d="M122.639 29.4714C121.339 31.8987 119.883 33.5265 118.269 34.3546C116.656 35.1685 115 35.1257 113.315 34.2261C111.616 33.3123 110.659 31.9701 110.445 30.171C110.231 28.3862 110.773 26.2587 112.087 23.8028C113.386 21.3755 114.843 19.7477 116.442 18.9338C118.041 18.12 119.712 18.1771 121.425 19.0909C123.124 19.9905 124.067 21.3469 124.281 23.1317C124.495 24.9165 123.938 27.0298 122.639 29.4571V29.4714ZM114.871 25.3163C113.972 26.9869 113.5 28.3862 113.458 29.4857C113.415 30.5851 113.8 31.3562 114.614 31.7988C116.256 32.6841 117.998 31.399 119.84 27.9721C121.668 24.5453 121.768 22.3892 120.14 21.5183C119.312 21.0756 118.455 21.1756 117.556 21.8324C116.67 22.4749 115.771 23.6458 114.871 25.3306V25.3163Z" fill="#CCCCCC"/>
<path d="M137.574 30.8421L130.72 39.1665C129.464 40.6943 128.15 41.5796 126.794 41.8223C125.437 42.065 124.109 41.6367 122.796 40.5658C121.511 39.5092 120.868 38.3098 120.868 36.9533C120.868 35.5969 121.496 34.1404 122.796 32.5841L129.621 24.3026L131.991 26.2587L125.023 34.7259C123.681 36.3679 123.538 37.6244 124.623 38.524C125.123 38.938 125.694 39.0523 126.308 38.8666C126.922 38.681 127.55 38.1955 128.193 37.4245L135.204 28.9145L137.574 30.8707V30.8421Z" fill="#CCCCCC"/>
<path d="M134.99 53.4164L132.619 50.4608L138.802 38.8809L138.716 38.7667C138.117 39.4949 137.403 40.1802 136.589 40.8513L129.492 46.5485L127.693 44.3067L140.687 33.8691L143.071 36.8391L136.946 48.3047L137.017 48.4047C137.545 47.7907 138.245 47.1482 139.102 46.4485L146.198 40.7514L147.983 42.9788L134.99 53.4164Z" fill="#CCCCCC"/>
<path d="M147.855 59.9417C145.399 61.1839 143.271 61.6266 141.458 61.2839C139.659 60.9412 138.274 59.8275 137.331 57.9427L135.489 54.3017L150.368 46.7912L152.381 50.7749C153.252 52.5026 153.295 54.1732 152.495 55.7867C151.695 57.4001 150.153 58.7851 147.84 59.9417H147.855ZM146.341 57.1431C149.668 55.4725 150.867 53.7163 149.939 51.8744L149.382 50.7606L139.316 55.8438L139.773 56.7433C140.287 57.7571 141.087 58.2854 142.172 58.3425C143.257 58.3996 144.656 57.9998 146.341 57.1431Z" fill="#CCCCCC"/>
</g>
<path d="M140.03 74.0631L137.988 103.877C137.103 114 128.821 117.841 119.497 116.913C112.101 116.17 105.876 111.501 105.961 103.563C109.817 104.662 114.271 105.79 118.298 105.033C119.754 104.762 121.239 104.176 122.11 102.934C115.756 103.177 107.846 101.107 106.247 94.0673L103.42 74.0774L120.197 74.2059L122.61 93.9102H124.523L122.11 74.0774H140.03V74.0631Z" fill="#00AEEF"/>
<path d="M30.942 95.0383V102.292H14.1648V69.494H32.6697C32.9268 69.4797 33.1695 69.6083 33.4265 69.6225C38.3526 69.8795 44.3353 70.622 47.7193 74.6486C50.7321 78.2325 50.9748 84.615 48.5332 88.5558C45.0635 94.1673 36.9247 94.9241 30.942 95.0526V95.0383ZM30.942 85.6288C33.1267 85.8144 33.1124 82.2305 32.8125 80.7741C32.5984 79.7174 32.2414 78.6608 30.942 78.8893V85.6288Z" fill="#00AEEF"/>
<path d="M105.062 102.292C101.578 102.135 97.9083 102.492 94.4386 102.292C92.3682 102.178 90.2693 101.735 88.8271 100.136C85.1005 102.834 79.5461 103.991 75.0484 102.991C70.4507 101.963 68.5517 98.2367 68.9515 93.7104C69.594 86.5997 78.6751 83.6583 84.6864 85.3432L86.871 86.0857C85.8429 82.5303 81.4452 82.4732 78.4324 82.8587C75.4196 83.2443 72.4354 84.3723 69.9652 86.0143C69.9224 80.9311 72.7353 76.8618 77.3758 74.9342C82.5018 72.7924 91.3116 72.7353 96.4376 74.8628C105.761 78.7322 102.449 87.9704 103.277 95.8665C103.505 98.0939 104.162 100.25 105.062 102.292ZM86.8853 91.74C85.386 91.5401 85.2147 95.0526 86.1856 95.0526C86.4855 95.0811 86.8853 94.253 86.8853 94.0959V91.74Z" fill="#00AEEF"/>
<path d="M67.5664 67.3237H51.2889V102.278H67.5664V67.3237Z" fill="#00AEEF"/>
<path d="M158.335 69.3655L156.422 88.5559C152.452 85.3575 146.912 85.3718 142.943 88.5559L141.029 69.3655H158.321H158.335Z" fill="#00AEEF"/>
<path d="M148.64 88.0847C155.765 87.3565 160.762 94.6385 157.335 100.978C154.423 106.361 146.855 107.075 142.957 102.349C138.574 97.0373 141.8 88.7844 148.654 88.0847H148.64Z" fill="#00AEEF"/>
<path d="M102.463 116.77H70.1366C67.5264 116.77 65.4104 118.886 65.4104 121.496V127.536C65.4104 130.146 67.5264 132.262 70.1366 132.262H102.463C105.073 132.262 107.189 130.146 107.189 127.536V121.496C107.189 118.886 105.073 116.77 102.463 116.77Z" fill="#F2F2F2"/>
<path d="M102.463 132.891H70.1508C67.2095 132.891 64.8107 130.492 64.8107 127.551V121.511C64.8107 118.569 67.2095 116.171 70.1508 116.171H102.463C105.404 116.171 107.803 118.569 107.803 121.511V127.551C107.803 130.492 105.404 132.891 102.463 132.891ZM70.1508 117.398C67.8806 117.398 66.0386 119.24 66.0386 121.511V127.551C66.0386 129.821 67.8806 131.663 70.1508 131.663H102.463C104.733 131.663 106.575 129.821 106.575 127.551V121.511C106.575 119.24 104.733 117.398 102.463 117.398H70.1508Z" fill="black"/>
<path d="M100.236 129.664C100.236 129.535 100.278 129.407 100.378 129.307C101.535 128.079 102.22 126.48 102.277 124.781C102.349 123.096 101.806 121.454 100.75 120.154C100.635 120.011 100.507 119.854 100.364 119.712C100.164 119.512 100.179 119.183 100.378 118.983C100.578 118.784 100.907 118.798 101.107 118.998C101.264 119.155 101.406 119.326 101.549 119.497C102.749 120.997 103.377 122.881 103.291 124.809C103.22 126.751 102.435 128.593 101.107 129.992C100.907 130.192 100.593 130.206 100.378 130.006C100.278 129.906 100.221 129.764 100.221 129.635L100.236 129.664Z" fill="black"/>
<path d="M98.4794 128.122C98.4794 127.993 98.5365 127.865 98.6364 127.765C99.5074 126.894 99.9786 125.751 99.9786 124.524C99.9786 123.296 99.5074 122.153 98.6364 121.282C98.4365 121.082 98.4365 120.754 98.6364 120.554C98.8363 120.354 99.1647 120.354 99.3646 120.554C100.421 121.611 101.007 123.024 101.007 124.524C101.007 126.023 100.421 127.436 99.3646 128.493C99.1647 128.693 98.8363 128.693 98.6364 128.493C98.5365 128.393 98.4794 128.264 98.4794 128.136V128.122Z" fill="black"/>
<path d="M96.7945 126.58C96.7945 126.451 96.8516 126.323 96.9516 126.223C97.8797 125.294 97.8797 123.767 96.9516 122.839C96.7517 122.639 96.7517 122.31 96.9516 122.11C97.1515 121.91 97.4799 121.91 97.6798 122.11C99.022 123.453 99.022 125.623 97.6798 126.951C97.4799 127.151 97.1515 127.151 96.9516 126.951C96.8516 126.851 96.7945 126.722 96.7945 126.594V126.58Z" fill="black"/>
<path d="M72.3069 127.579H71.0504V121.896H69.751V120.782H73.6205V121.896H72.3212V127.579H72.3069Z" fill="black"/>
<path d="M76.2477 127.579L76.005 126.865H75.9764C75.7908 127.165 75.6052 127.379 75.4053 127.493C75.2054 127.608 74.9627 127.665 74.6628 127.665C74.2773 127.665 73.9775 127.522 73.7633 127.236C73.5491 126.951 73.4349 126.551 73.4349 126.051C73.4349 125.509 73.5777 125.095 73.8775 124.838C74.1774 124.566 74.62 124.424 75.2197 124.395L75.9051 124.366V123.995C75.9051 123.51 75.6909 123.267 75.2768 123.267C74.9627 123.267 74.6057 123.381 74.2059 123.624L73.7776 122.767C74.2916 122.439 74.8484 122.282 75.4624 122.282C76.005 122.282 76.4334 122.439 76.7189 122.753C77.0045 123.067 77.1473 123.51 77.1473 124.095V127.579H76.2335H76.2477ZM75.1769 126.708C75.4053 126.708 75.5909 126.608 75.7194 126.408C75.8479 126.208 75.9193 125.937 75.9193 125.594V125.152H75.5338C75.2482 125.18 75.0483 125.266 74.9198 125.409C74.7913 125.552 74.7199 125.766 74.7199 126.066C74.7199 126.494 74.877 126.708 75.1769 126.708Z" fill="black"/>
<path d="M80.2172 127.679C79.9887 127.679 79.8031 127.622 79.6175 127.522C79.4461 127.422 79.2891 127.251 79.132 126.994H79.0606C79.1034 127.422 79.132 127.665 79.132 127.75V129.864H77.8898V122.396H78.8464L79.0606 123.067H79.1177C79.3747 122.553 79.746 122.296 80.2457 122.296C80.7455 122.296 81.0882 122.524 81.3594 122.996C81.6307 123.467 81.7592 124.124 81.7592 124.98C81.7592 125.837 81.6165 126.48 81.3452 126.951C81.0739 127.422 80.6884 127.665 80.2172 127.665V127.679ZM79.8316 123.353C79.5889 123.353 79.4176 123.467 79.3033 123.695C79.2034 123.924 79.1463 124.295 79.132 124.809V124.966C79.132 125.537 79.1891 125.951 79.2891 126.208C79.4033 126.465 79.5746 126.594 79.8316 126.594C80.26 126.594 80.4885 126.051 80.4885 124.952C80.4885 124.409 80.4313 124.009 80.3314 123.738C80.2314 123.467 80.0601 123.338 79.8316 123.338V123.353Z" fill="black"/>
<path d="M86.257 127.579L84.9576 121.782H84.9005C84.9576 122.225 84.9862 122.639 84.9862 123.01V127.579H83.8154V120.782H85.7572L86.9138 126.123H86.9566L88.1132 120.782H90.0836V127.579H88.8842V122.967C88.8842 122.582 88.9128 122.196 88.9556 121.796H88.9128L87.6277 127.579H86.2427H86.257Z" fill="black"/>
<path d="M92.8965 127.679C92.254 127.679 91.7399 127.451 91.3687 126.994C90.9975 126.537 90.8118 125.88 90.8118 125.038C90.8118 124.195 90.9832 123.51 91.3259 123.039C91.6685 122.553 92.1397 122.325 92.7394 122.325C93.3106 122.325 93.7532 122.524 94.0673 122.939C94.3957 123.353 94.5528 123.924 94.5528 124.666V125.323H92.0683C92.0683 125.78 92.1683 126.123 92.3539 126.351C92.5395 126.58 92.7823 126.694 93.0964 126.694C93.4962 126.694 93.9103 126.565 94.3386 126.323V127.336C93.9388 127.579 93.4676 127.693 92.9108 127.693L92.8965 127.679ZM92.7109 123.267C92.5395 123.267 92.3825 123.367 92.2682 123.553C92.154 123.738 92.0826 124.038 92.0683 124.424H93.3249C93.3249 124.052 93.2677 123.752 93.1535 123.567C93.0393 123.367 92.8965 123.267 92.7109 123.267Z" fill="black"/>
<path d="M76.3049 56.6577C76.7047 57.1717 77.3615 57.443 77.9755 57.6001C79.9745 58.0856 82.2876 57.6287 84.101 56.7148C83.5013 60.9698 78.8893 61.7837 75.3054 61.5981C70.9076 61.3696 67.6093 58.5425 68.2375 53.8877C68.7373 50.161 71.9071 48.5904 75.3625 48.4047C79.4033 48.1906 83.6155 49.4042 84.1581 54.0019C84.4151 56.1151 83.7297 56.6006 81.7593 56.9433C79.9316 57.2574 78.0897 57.1717 76.3049 56.672V56.6577ZM76.0764 52.0172C75.9479 52.1171 75.748 53.5307 75.7338 53.7735C75.7052 54.5017 76.5048 54.4303 77.1616 54.4588C77.0188 53.8163 76.6476 53.0738 76.3906 52.4884C76.3477 52.4027 76.1907 52.0029 76.0764 52.0315V52.0172Z" fill="#00B8A5"/>
<path d="M101.806 56.3007C103.677 57.3573 106.161 57.7714 108.303 57.5001C108.589 57.4573 109.917 57.2574 109.759 56.8005C109.731 56.7148 109.588 56.672 109.502 56.6577C108.517 56.5006 107.175 56.7719 106.133 56.7148C104.234 56.6149 102.377 56.0437 102.035 53.9305C101.078 47.8478 111.687 47.3909 115.085 49.7041C116.27 50.5179 116.827 51.703 116.87 53.1309L116.756 53.2023C116.028 52.8739 115.128 52.674 114.329 52.6026C113.4 52.5026 110.174 52.417 109.602 53.2023C109.545 53.288 109.445 53.3879 109.545 53.4879C109.688 53.6592 110.174 53.6306 110.388 53.6306C112.544 53.5593 116.656 52.4884 117.27 55.5725C117.655 57.4858 116.77 59.4706 115.114 60.4701C112.644 61.9693 107.318 62.055 104.691 60.927C102.734 60.0988 101.792 58.4139 101.821 56.315L101.806 56.3007Z" fill="#00B8A5"/>
<path d="M92.354 45.1207V48.6189H94.8812V53.9591H92.4682V55.7724C92.4682 55.7724 92.5967 56.1294 92.6252 56.1865C93.1821 57.3002 95.281 57.0861 96.3091 56.9433V57.7714C96.3091 60.0988 94.1673 61.8551 92.0255 62.1978C87.9562 62.8689 84.7863 61.2268 84.7435 56.8005V45.1349H92.3682L92.354 45.1207Z" fill="#00B8A5"/>
<path d="M62.7831 46.5628V55.7439H68.0234L68.109 55.8296V61.3696H59.3563C56.3293 61.3696 55.2726 59.9132 55.2726 57.8999V46.5771H62.7831V46.5628Z" fill="#00B8A5"/>
<path d="M97.6227 54.7016C97.9083 53.7735 97.9511 52.8739 97.6656 51.9315C97.1373 50.2181 95.4381 49.7041 96.0093 47.5909C96.7517 44.7923 100.907 45.1635 101.278 47.905C101.621 50.4894 99.9787 53.5878 97.6227 54.6873V54.7016Z" fill="#00B8A5"/>
</g>
<g filter="url(#filter0_d_249_6578)">
<mask id="path-47-outside-1_249_6578" maskUnits="userSpaceOnUse" x="32" y="68" width="106" height="49" fill="black">
<rect fill="white" x="32" y="68" width="106" height="49"/>
<path d="M51.4812 74.1875V72.625H53.0437V74.1875H51.4812ZM49.9187 80.4375H51.4812V82H49.9187H48.3562H46.7937V80.4375H48.3562H49.9187ZM51.4812 80.4375V78.875V77.3125H53.0437V78.875V80.4375H51.4812ZM46.7937 80.4375H45.2312V78.875H46.7937V80.4375ZM51.4812 77.3125H49.9187H48.3562H46.7937V75.75H48.3562H49.9187H51.4812V77.3125ZM46.7937 75.75H45.2312V74.1875V72.625H46.7937V74.1875V75.75ZM51.4812 72.625H49.9187H48.3562H46.7937V71.0625H48.3562H49.9187H51.4812V72.625ZM62.2312 82V80.4375H63.7937V82H62.2312ZM62.2312 80.4375H60.6687V78.875V77.3125V75.75H59.1062V74.1875H60.6687V72.625V71.0625H62.2312V72.625V74.1875H63.7937V75.75H62.2312V77.3125V78.875V80.4375ZM71.4187 82V80.4375V78.875V77.3125V75.75H69.8562V74.1875H71.4187H72.9812V75.75V77.3125V78.875V80.4375V82H71.4187ZM71.4187 72.625V71.0625H72.9812V72.625H71.4187ZM83.7312 77.3125V75.75H85.2937V77.3125H83.7312ZM82.1687 80.4375H83.7312V82H82.1687H80.6062V80.4375H82.1687ZM83.7312 80.4375V78.875H85.2937V80.4375H83.7312ZM80.6062 80.4375H79.0437V78.875V77.3125V75.75H80.6062V77.3125V78.875V80.4375ZM83.7312 75.75H82.1687H80.6062V74.1875H82.1687H83.7312V75.75ZM96.0437 82V80.4375H97.6062V82H96.0437ZM91.3562 82V80.4375V78.875V77.3125V75.75V74.1875V72.625V71.0625H92.9187V72.625V74.1875V75.75V77.3125H94.4812V78.875H96.0437V80.4375H94.4812V78.875H92.9187V80.4375V82H91.3562ZM94.4812 77.3125V75.75H96.0437V77.3125H94.4812ZM96.0437 75.75V74.1875H97.6062V75.75H96.0437ZM106.794 80.4375H108.356V82H106.794H105.231V80.4375H106.794ZM105.231 80.4375H103.669V78.875V77.3125V75.75H105.231V77.3125H106.794H108.356V75.75H109.919V77.3125V78.875H108.356H106.794H105.231V80.4375ZM108.356 75.75H106.794H105.231V74.1875H106.794H108.356V75.75ZM115.981 82V80.4375V78.875V77.3125V75.75V74.1875H117.544V75.75H119.106V77.3125H117.544V78.875V80.4375V82H115.981ZM120.669 74.1875H122.231V75.75H120.669H119.106V74.1875H120.669ZM48.2699 93.58H50.3299V96.98H54.6499V98.94H50.3299V102.26H53.9499V112.02H51.9499V111.32H47.5299V112.02H45.5899V102.26H48.2699V93.58ZM47.5299 109.36H51.9499V104.2H47.5299V109.36ZM44.5299 94.2V107.02H42.6899V96.12H38.7699V107.02H36.8899V94.2H44.5299ZM39.8099 97.3H41.6099V103.86C41.5299 106.1 41.1699 107.9 40.5299 109.24C39.8899 110.48 38.8499 111.44 37.4099 112.12L36.2699 110.36C37.6299 109.7 38.5499 108.9 39.0299 107.94C39.4899 106.88 39.7499 105.52 39.8099 103.86V97.3ZM42.3299 107.48C43.3499 108.5 44.2299 109.5 44.9499 110.48L43.4299 111.98C42.8499 110.98 42.0299 109.92 40.9699 108.78L42.3299 107.48ZM66.1699 102.66H70.4699V99.22H72.5899V102.66H77.1699V104.7H72.5899V109.38H78.0299V111.42H65.4499V109.38H70.4699V104.7H66.1699V102.66ZM62.6699 104.66C62.1299 105.18 61.5699 105.68 60.9899 106.18L59.6499 104.44C61.8899 102.58 63.6899 100.46 65.0299 98.1H60.3699V96.06H66.0299C66.4099 95.18 66.7299 94.28 67.0099 93.36L69.1699 93.62C68.9299 94.46 68.6499 95.26 68.3499 96.06H78.0299V98.1H67.4299C66.6699 99.62 65.7699 101.04 64.7299 102.36V112.14H62.6699V104.66ZM89.7299 96.28H94.3699C94.1299 95.42 93.8699 94.62 93.5899 93.9L95.7299 93.54C95.9899 94.34 96.2499 95.26 96.5099 96.28H101.35V98.3H99.7499C99.1899 100.36 98.4099 102.12 97.4499 103.6C98.8899 104.84 100.19 106.08 101.37 107.32L99.7299 108.96C98.7299 107.76 97.5499 106.52 96.1899 105.26C94.6499 106.96 92.7699 108.2 90.5299 108.98L89.3499 107.08C91.4899 106.42 93.2499 105.36 94.6499 103.9C93.3699 102.8 91.9899 101.68 90.4699 100.56L91.8899 99.18C93.3099 100.22 94.6499 101.24 95.8899 102.28C96.6499 101.12 97.2299 99.78 97.6699 98.3H89.7299V96.28ZM85.4699 93.74C86.7899 94.78 87.9099 95.82 88.8299 96.86L87.3299 98.34C86.5699 97.34 85.4699 96.26 84.0299 95.1L85.4699 93.74ZM96.8499 111.76C95.7699 111.76 94.5899 111.74 93.3299 111.72C92.0499 111.7 91.0099 111.58 90.1699 111.38C89.3699 111.14 88.6899 110.68 88.1099 110C87.8499 109.66 87.6099 109.5 87.3699 109.5C86.9899 109.5 86.3099 110.4 85.3099 112.2L83.7699 110.76C84.7699 109.16 85.6499 108.14 86.4499 107.7V102.22H83.8099V100.3H88.3899V107.92L88.5899 108.12C89.0299 108.64 89.4899 109.04 89.9499 109.3C90.5299 109.6 91.3899 109.76 92.5499 109.8C93.6899 109.82 95.0299 109.84 96.5499 109.84C97.5499 109.84 98.5499 109.82 99.5899 109.82C100.61 109.78 101.39 109.74 101.93 109.7L101.43 111.76H96.8499ZM111.05 100.04V102.02H115.21V100.04H111.05ZM115.21 103.94H108.99V94.16H123.51V103.94H117.33V105.72H124.31V107.7H117.33V109.52H125.15V111.54H107.37V109.52H115.21V107.7H108.23V105.72H115.21V103.94ZM117.33 102.02H121.45V100.04H117.33V102.02ZM121.45 98.12V96.08H117.33V98.12H121.45ZM115.21 96.08H111.05V98.12H115.21V96.08ZM131.85 95.72H134.55L134.05 105.9H132.35L131.85 95.72ZM133.19 106.98C133.63 106.98 134.01 107.12 134.31 107.4C134.59 107.68 134.75 108.04 134.75 108.48C134.75 108.92 134.59 109.3 134.31 109.58C133.99 109.86 133.63 110 133.19 110C132.75 110 132.39 109.84 132.11 109.56C131.79 109.28 131.65 108.92 131.65 108.48C131.65 108.04 131.79 107.68 132.11 107.4C132.39 107.12 132.75 106.98 133.19 106.98Z"/>
</mask>
<path d="M51.4812 74.1875V72.625H53.0437V74.1875H51.4812ZM49.9187 80.4375H51.4812V82H49.9187H48.3562H46.7937V80.4375H48.3562H49.9187ZM51.4812 80.4375V78.875V77.3125H53.0437V78.875V80.4375H51.4812ZM46.7937 80.4375H45.2312V78.875H46.7937V80.4375ZM51.4812 77.3125H49.9187H48.3562H46.7937V75.75H48.3562H49.9187H51.4812V77.3125ZM46.7937 75.75H45.2312V74.1875V72.625H46.7937V74.1875V75.75ZM51.4812 72.625H49.9187H48.3562H46.7937V71.0625H48.3562H49.9187H51.4812V72.625ZM62.2312 82V80.4375H63.7937V82H62.2312ZM62.2312 80.4375H60.6687V78.875V77.3125V75.75H59.1062V74.1875H60.6687V72.625V71.0625H62.2312V72.625V74.1875H63.7937V75.75H62.2312V77.3125V78.875V80.4375ZM71.4187 82V80.4375V78.875V77.3125V75.75H69.8562V74.1875H71.4187H72.9812V75.75V77.3125V78.875V80.4375V82H71.4187ZM71.4187 72.625V71.0625H72.9812V72.625H71.4187ZM83.7312 77.3125V75.75H85.2937V77.3125H83.7312ZM82.1687 80.4375H83.7312V82H82.1687H80.6062V80.4375H82.1687ZM83.7312 80.4375V78.875H85.2937V80.4375H83.7312ZM80.6062 80.4375H79.0437V78.875V77.3125V75.75H80.6062V77.3125V78.875V80.4375ZM83.7312 75.75H82.1687H80.6062V74.1875H82.1687H83.7312V75.75ZM96.0437 82V80.4375H97.6062V82H96.0437ZM91.3562 82V80.4375V78.875V77.3125V75.75V74.1875V72.625V71.0625H92.9187V72.625V74.1875V75.75V77.3125H94.4812V78.875H96.0437V80.4375H94.4812V78.875H92.9187V80.4375V82H91.3562ZM94.4812 77.3125V75.75H96.0437V77.3125H94.4812ZM96.0437 75.75V74.1875H97.6062V75.75H96.0437ZM106.794 80.4375H108.356V82H106.794H105.231V80.4375H106.794ZM105.231 80.4375H103.669V78.875V77.3125V75.75H105.231V77.3125H106.794H108.356V75.75H109.919V77.3125V78.875H108.356H106.794H105.231V80.4375ZM108.356 75.75H106.794H105.231V74.1875H106.794H108.356V75.75ZM115.981 82V80.4375V78.875V77.3125V75.75V74.1875H117.544V75.75H119.106V77.3125H117.544V78.875V80.4375V82H115.981ZM120.669 74.1875H122.231V75.75H120.669H119.106V74.1875H120.669ZM48.2699 93.58H50.3299V96.98H54.6499V98.94H50.3299V102.26H53.9499V112.02H51.9499V111.32H47.5299V112.02H45.5899V102.26H48.2699V93.58ZM47.5299 109.36H51.9499V104.2H47.5299V109.36ZM44.5299 94.2V107.02H42.6899V96.12H38.7699V107.02H36.8899V94.2H44.5299ZM39.8099 97.3H41.6099V103.86C41.5299 106.1 41.1699 107.9 40.5299 109.24C39.8899 110.48 38.8499 111.44 37.4099 112.12L36.2699 110.36C37.6299 109.7 38.5499 108.9 39.0299 107.94C39.4899 106.88 39.7499 105.52 39.8099 103.86V97.3ZM42.3299 107.48C43.3499 108.5 44.2299 109.5 44.9499 110.48L43.4299 111.98C42.8499 110.98 42.0299 109.92 40.9699 108.78L42.3299 107.48ZM66.1699 102.66H70.4699V99.22H72.5899V102.66H77.1699V104.7H72.5899V109.38H78.0299V111.42H65.4499V109.38H70.4699V104.7H66.1699V102.66ZM62.6699 104.66C62.1299 105.18 61.5699 105.68 60.9899 106.18L59.6499 104.44C61.8899 102.58 63.6899 100.46 65.0299 98.1H60.3699V96.06H66.0299C66.4099 95.18 66.7299 94.28 67.0099 93.36L69.1699 93.62C68.9299 94.46 68.6499 95.26 68.3499 96.06H78.0299V98.1H67.4299C66.6699 99.62 65.7699 101.04 64.7299 102.36V112.14H62.6699V104.66ZM89.7299 96.28H94.3699C94.1299 95.42 93.8699 94.62 93.5899 93.9L95.7299 93.54C95.9899 94.34 96.2499 95.26 96.5099 96.28H101.35V98.3H99.7499C99.1899 100.36 98.4099 102.12 97.4499 103.6C98.8899 104.84 100.19 106.08 101.37 107.32L99.7299 108.96C98.7299 107.76 97.5499 106.52 96.1899 105.26C94.6499 106.96 92.7699 108.2 90.5299 108.98L89.3499 107.08C91.4899 106.42 93.2499 105.36 94.6499 103.9C93.3699 102.8 91.9899 101.68 90.4699 100.56L91.8899 99.18C93.3099 100.22 94.6499 101.24 95.8899 102.28C96.6499 101.12 97.2299 99.78 97.6699 98.3H89.7299V96.28ZM85.4699 93.74C86.7899 94.78 87.9099 95.82 88.8299 96.86L87.3299 98.34C86.5699 97.34 85.4699 96.26 84.0299 95.1L85.4699 93.74ZM96.8499 111.76C95.7699 111.76 94.5899 111.74 93.3299 111.72C92.0499 111.7 91.0099 111.58 90.1699 111.38C89.3699 111.14 88.6899 110.68 88.1099 110C87.8499 109.66 87.6099 109.5 87.3699 109.5C86.9899 109.5 86.3099 110.4 85.3099 112.2L83.7699 110.76C84.7699 109.16 85.6499 108.14 86.4499 107.7V102.22H83.8099V100.3H88.3899V107.92L88.5899 108.12C89.0299 108.64 89.4899 109.04 89.9499 109.3C90.5299 109.6 91.3899 109.76 92.5499 109.8C93.6899 109.82 95.0299 109.84 96.5499 109.84C97.5499 109.84 98.5499 109.82 99.5899 109.82C100.61 109.78 101.39 109.74 101.93 109.7L101.43 111.76H96.8499ZM111.05 100.04V102.02H115.21V100.04H111.05ZM115.21 103.94H108.99V94.16H123.51V103.94H117.33V105.72H124.31V107.7H117.33V109.52H125.15V111.54H107.37V109.52H115.21V107.7H108.23V105.72H115.21V103.94ZM117.33 102.02H121.45V100.04H117.33V102.02ZM121.45 98.12V96.08H117.33V98.12H121.45ZM115.21 96.08H111.05V98.12H115.21V96.08ZM131.85 95.72H134.55L134.05 105.9H132.35L131.85 95.72ZM133.19 106.98C133.63 106.98 134.01 107.12 134.31 107.4C134.59 107.68 134.75 108.04 134.75 108.48C134.75 108.92 134.59 109.3 134.31 109.58C133.99 109.86 133.63 110 133.19 110C132.75 110 132.39 109.84 132.11 109.56C131.79 109.28 131.65 108.92 131.65 108.48C131.65 108.04 131.79 107.68 132.11 107.4C132.39 107.12 132.75 106.98 133.19 106.98Z" fill="black"/>
<path d="M51.4812 74.1875H48.8626V76.8061H51.4812V74.1875ZM51.4812 72.625V70.0064H48.8626V72.625H51.4812ZM53.0437 72.625H55.6622V70.0064H53.0437V72.625ZM53.0437 74.1875V76.8061H55.6622V74.1875H53.0437ZM51.4812 80.4375H54.0997V77.8189H51.4812V80.4375ZM51.4812 82V84.6186H54.0997V82H51.4812ZM46.7937 82H44.1751V84.6186H46.7937V82ZM46.7937 80.4375V77.8189H44.1751V80.4375H46.7937ZM51.4812 80.4375H48.8626V83.0561H51.4812V80.4375ZM51.4812 77.3125V74.6939H48.8626V77.3125H51.4812ZM53.0437 77.3125H55.6622V74.6939H53.0437V77.3125ZM53.0437 80.4375V83.0561H55.6622V80.4375H53.0437ZM46.7937 80.4375V83.0561H49.4122V80.4375H46.7937ZM45.2312 80.4375H42.6126V83.0561H45.2312V80.4375ZM45.2312 78.875V76.2564H42.6126V78.875H45.2312ZM46.7937 78.875H49.4122V76.2564H46.7937V78.875ZM51.4812 77.3125V79.9311H54.0997V77.3125H51.4812ZM46.7937 77.3125H44.1751V79.9311H46.7937V77.3125ZM46.7937 75.75V73.1314H44.1751V75.75H46.7937ZM51.4812 75.75H54.0997V73.1314H51.4812V75.75ZM46.7937 75.75V78.3686H49.4122V75.75H46.7937ZM45.2312 75.75H42.6126V78.3686H45.2312V75.75ZM45.2312 72.625V70.0064H42.6126V72.625H45.2312ZM46.7937 72.625H49.4122V70.0064H46.7937V72.625ZM51.4812 72.625V75.2436H54.0997V72.625H51.4812ZM46.7937 72.625H44.1751V75.2436H46.7937V72.625ZM46.7937 71.0625V68.4439H44.1751V71.0625H46.7937ZM51.4812 71.0625H54.0997V68.4439H51.4812V71.0625ZM51.4812 74.1875H54.0997V72.625H51.4812H48.8626V74.1875H51.4812ZM51.4812 72.625V75.2436H53.0437V72.625V70.0064H51.4812V72.625ZM53.0437 72.625H50.4251V74.1875H53.0437H55.6622V72.625H53.0437ZM53.0437 74.1875V71.5689H51.4812V74.1875V76.8061H53.0437V74.1875ZM49.9187 80.4375V83.0561H51.4812V80.4375V77.8189H49.9187V80.4375ZM51.4812 80.4375H48.8626V82H51.4812H54.0997V80.4375H51.4812ZM51.4812 82V79.3814H49.9187V82V84.6186H51.4812V82ZM49.9187 82V79.3814H48.3562V82V84.6186H49.9187V82ZM48.3562 82V79.3814H46.7937V82V84.6186H48.3562V82ZM46.7937 82H49.4122V80.4375H46.7937H44.1751V82H46.7937ZM46.7937 80.4375V83.0561H48.3562V80.4375V77.8189H46.7937V80.4375ZM48.3562 80.4375V83.0561H49.9187V80.4375V77.8189H48.3562V80.4375ZM51.4812 80.4375H54.0997V78.875H51.4812H48.8626V80.4375H51.4812ZM51.4812 78.875H54.0997V77.3125H51.4812H48.8626V78.875H51.4812ZM51.4812 77.3125V79.9311H53.0437V77.3125V74.6939H51.4812V77.3125ZM53.0437 77.3125H50.4251V78.875H53.0437H55.6622V77.3125H53.0437ZM53.0437 78.875H50.4251V80.4375H53.0437H55.6622V78.875H53.0437ZM53.0437 80.4375V77.8189H51.4812V80.4375V83.0561H53.0437V80.4375ZM46.7937 80.4375V77.8189H45.2312V80.4375V83.0561H46.7937V80.4375ZM45.2312 80.4375H47.8497V78.875H45.2312H42.6126V80.4375H45.2312ZM45.2312 78.875V81.4936H46.7937V78.875V76.2564H45.2312V78.875ZM46.7937 78.875H44.1751V80.4375H46.7937H49.4122V78.875H46.7937ZM51.4812 77.3125V74.6939H49.9187V77.3125V79.9311H51.4812V77.3125ZM49.9187 77.3125V74.6939H48.3562V77.3125V79.9311H49.9187V77.3125ZM48.3562 77.3125V74.6939H46.7937V77.3125V79.9311H48.3562V77.3125ZM46.7937 77.3125H49.4122V75.75H46.7937H44.1751V77.3125H46.7937ZM46.7937 75.75V78.3686H48.3562V75.75V73.1314H46.7937V75.75ZM48.3562 75.75V78.3686H49.9187V75.75V73.1314H48.3562V75.75ZM49.9187 75.75V78.3686H51.4812V75.75V73.1314H49.9187V75.75ZM51.4812 75.75H48.8626V77.3125H51.4812H54.0997V75.75H51.4812ZM46.7937 75.75V73.1314H45.2312V75.75V78.3686H46.7937V75.75ZM45.2312 75.75H47.8497V74.1875H45.2312H42.6126V75.75H45.2312ZM45.2312 74.1875H47.8497V72.625H45.2312H42.6126V74.1875H45.2312ZM45.2312 72.625V75.2436H46.7937V72.625V70.0064H45.2312V72.625ZM46.7937 72.625H44.1751V74.1875H46.7937H49.4122V72.625H46.7937ZM46.7937 74.1875H44.1751V75.75H46.7937H49.4122V74.1875H46.7937ZM51.4812 72.625V70.0064H49.9187V72.625V75.2436H51.4812V72.625ZM49.9187 72.625V70.0064H48.3562V72.625V75.2436H49.9187V72.625ZM48.3562 72.625V70.0064H46.7937V72.625V75.2436H48.3562V72.625ZM46.7937 72.625H49.4122V71.0625H46.7937H44.1751V72.625H46.7937ZM46.7937 71.0625V73.6811H48.3562V71.0625V68.4439H46.7937V71.0625ZM48.3562 71.0625V73.6811H49.9187V71.0625V68.4439H48.3562V71.0625ZM49.9187 71.0625V73.6811H51.4812V71.0625V68.4439H49.9187V71.0625ZM51.4812 71.0625H48.8626V72.625H51.4812H54.0997V71.0625H51.4812ZM62.2312 82H59.6126V84.6186H62.2312V82ZM62.2312 80.4375V77.8189H59.6126V80.4375H62.2312ZM63.7937 80.4375H66.4122V77.8189H63.7937V80.4375ZM63.7937 82V84.6186H66.4122V82H63.7937ZM62.2312 80.4375V83.0561H64.8497V80.4375H62.2312ZM60.6687 80.4375H58.0501V83.0561H60.6687V80.4375ZM60.6687 75.75H63.2872V73.1314H60.6687V75.75ZM59.1062 75.75H56.4876V78.3686H59.1062V75.75ZM59.1062 74.1875V71.5689H56.4876V74.1875H59.1062ZM60.6687 74.1875V76.8061H63.2872V74.1875H60.6687ZM60.6687 71.0625V68.4439H58.0501V71.0625H60.6687ZM62.2312 71.0625H64.8497V68.4439H62.2312V71.0625ZM62.2312 74.1875H59.6126V76.8061H62.2312V74.1875ZM63.7937 74.1875H66.4122V71.5689H63.7937V74.1875ZM63.7937 75.75V78.3686H66.4122V75.75H63.7937ZM62.2312 75.75V73.1314H59.6126V75.75H62.2312ZM62.2312 82H64.8497V80.4375H62.2312H59.6126V82H62.2312ZM62.2312 80.4375V83.0561H63.7937V80.4375V77.8189H62.2312V80.4375ZM63.7937 80.4375H61.1751V82H63.7937H66.4122V80.4375H63.7937ZM63.7937 82V79.3814H62.2312V82V84.6186H63.7937V82ZM62.2312 80.4375V77.8189H60.6687V80.4375V83.0561H62.2312V80.4375ZM60.6687 80.4375H63.2872V78.875H60.6687H58.0501V80.4375H60.6687ZM60.6687 78.875H63.2872V77.3125H60.6687H58.0501V78.875H60.6687ZM60.6687 77.3125H63.2872V75.75H60.6687H58.0501V77.3125H60.6687ZM60.6687 75.75V73.1314H59.1062V75.75V78.3686H60.6687V75.75ZM59.1062 75.75H61.7247V74.1875H59.1062H56.4876V75.75H59.1062ZM59.1062 74.1875V76.8061H60.6687V74.1875V71.5689H59.1062V74.1875ZM60.6687 74.1875H63.2872V72.625H60.6687H58.0501V74.1875H60.6687ZM60.6687 72.625H63.2872V71.0625H60.6687H58.0501V72.625H60.6687ZM60.6687 71.0625V73.6811H62.2312V71.0625V68.4439H60.6687V71.0625ZM62.2312 71.0625H59.6126V72.625H62.2312H64.8497V71.0625H62.2312ZM62.2312 72.625H59.6126V74.1875H62.2312H64.8497V72.625H62.2312ZM62.2312 74.1875V76.8061H63.7937V74.1875V71.5689H62.2312V74.1875ZM63.7937 74.1875H61.1751V75.75H63.7937H66.4122V74.1875H63.7937ZM63.7937 75.75V73.1314H62.2312V75.75V78.3686H63.7937V75.75ZM62.2312 75.75H59.6126V77.3125H62.2312H64.8497V75.75H62.2312ZM62.2312 77.3125H59.6126V78.875H62.2312H64.8497V77.3125H62.2312ZM62.2312 78.875H59.6126V80.4375H62.2312H64.8497V78.875H62.2312ZM71.4187 82H68.8001V84.6186H71.4187V82ZM71.4187 75.75H74.0372V73.1314H71.4187V75.75ZM69.8562 75.75H67.2376V78.3686H69.8562V75.75ZM69.8562 74.1875V71.5689H67.2376V74.1875H69.8562ZM72.9812 74.1875H75.5997V71.5689H72.9812V74.1875ZM72.9812 82V84.6186H75.5997V82H72.9812ZM71.4187 72.625H68.8001V75.2436H71.4187V72.625ZM71.4187 71.0625V68.4439H68.8001V71.0625H71.4187ZM72.9812 71.0625H75.5997V68.4439H72.9812V71.0625ZM72.9812 72.625V75.2436H75.5997V72.625H72.9812ZM71.4187 82H74.0372V80.4375H71.4187H68.8001V82H71.4187ZM71.4187 80.4375H74.0372V78.875H71.4187H68.8001V80.4375H71.4187ZM71.4187 78.875H74.0372V77.3125H71.4187H68.8001V78.875H71.4187ZM71.4187 77.3125H74.0372V75.75H71.4187H68.8001V77.3125H71.4187ZM71.4187 75.75V73.1314H69.8562V75.75V78.3686H71.4187V75.75ZM69.8562 75.75H72.4747V74.1875H69.8562H67.2376V75.75H69.8562ZM69.8562 74.1875V76.8061H71.4187V74.1875V71.5689H69.8562V74.1875ZM71.4187 74.1875V76.8061H72.9812V74.1875V71.5689H71.4187V74.1875ZM72.9812 74.1875H70.3626V75.75H72.9812H75.5997V74.1875H72.9812ZM72.9812 75.75H70.3626V77.3125H72.9812H75.5997V75.75H72.9812ZM72.9812 77.3125H70.3626V78.875H72.9812H75.5997V77.3125H72.9812ZM72.9812 78.875H70.3626V80.4375H72.9812H75.5997V78.875H72.9812ZM72.9812 80.4375H70.3626V82H72.9812H75.5997V80.4375H72.9812ZM72.9812 82V79.3814H71.4187V82V84.6186H72.9812V82ZM71.4187 72.625H74.0372V71.0625H71.4187H68.8001V72.625H71.4187ZM71.4187 71.0625V73.6811H72.9812V71.0625V68.4439H71.4187V71.0625ZM72.9812 71.0625H70.3626V72.625H72.9812H75.5997V71.0625H72.9812ZM72.9812 72.625V70.0064H71.4187V72.625V75.2436H72.9812V72.625ZM83.7312 77.3125H81.1126V79.9311H83.7312V77.3125ZM83.7312 75.75V73.1314H81.1126V75.75H83.7312ZM85.2937 75.75H87.9122V73.1314H85.2937V75.75ZM85.2937 77.3125V79.9311H87.9122V77.3125H85.2937ZM83.7312 80.4375H86.3497V77.8189H83.7312V80.4375ZM83.7312 82V84.6186H86.3497V82H83.7312ZM80.6062 82H77.9876V84.6186H80.6062V82ZM80.6062 80.4375V77.8189H77.9876V80.4375H80.6062ZM83.7312 80.4375H81.1126V83.0561H83.7312V80.4375ZM83.7312 78.875V76.2564H81.1126V78.875H83.7312ZM85.2937 78.875H87.9122V76.2564H85.2937V78.875ZM85.2937 80.4375V83.0561H87.9122V80.4375H85.2937ZM80.6062 80.4375V83.0561H83.2247V80.4375H80.6062ZM79.0437 80.4375H76.4251V83.0561H79.0437V80.4375ZM79.0437 75.75V73.1314H76.4251V75.75H79.0437ZM80.6062 75.75H83.2247V73.1314H80.6062V75.75ZM83.7312 75.75V78.3686H86.3497V75.75H83.7312ZM80.6062 75.75H77.9876V78.3686H80.6062V75.75ZM80.6062 74.1875V71.5689H77.9876V74.1875H80.6062ZM83.7312 74.1875H86.3497V71.5689H83.7312V74.1875ZM83.7312 77.3125H86.3497V75.75H83.7312H81.1126V77.3125H83.7312ZM83.7312 75.75V78.3686H85.2937V75.75V73.1314H83.7312V75.75ZM85.2937 75.75H82.6751V77.3125H85.2937H87.9122V75.75H85.2937ZM85.2937 77.3125V74.6939H83.7312V77.3125V79.9311H85.2937V77.3125ZM82.1687 80.4375V83.0561H83.7312V80.4375V77.8189H82.1687V80.4375ZM83.7312 80.4375H81.1126V82H83.7312H86.3497V80.4375H83.7312ZM83.7312 82V79.3814H82.1687V82V84.6186H83.7312V82ZM82.1687 82V79.3814H80.6062V82V84.6186H82.1687V82ZM80.6062 82H83.2247V80.4375H80.6062H77.9876V82H80.6062ZM80.6062 80.4375V83.0561H82.1687V80.4375V77.8189H80.6062V80.4375ZM83.7312 80.4375H86.3497V78.875H83.7312H81.1126V80.4375H83.7312ZM83.7312 78.875V81.4936H85.2937V78.875V76.2564H83.7312V78.875ZM85.2937 78.875H82.6751V80.4375H85.2937H87.9122V78.875H85.2937ZM85.2937 80.4375V77.8189H83.7312V80.4375V83.0561H85.2937V80.4375ZM80.6062 80.4375V77.8189H79.0437V80.4375V83.0561H80.6062V80.4375ZM79.0437 80.4375H81.6622V78.875H79.0437H76.4251V80.4375H79.0437ZM79.0437 78.875H81.6622V77.3125H79.0437H76.4251V78.875H79.0437ZM79.0437 77.3125H81.6622V75.75H79.0437H76.4251V77.3125H79.0437ZM79.0437 75.75V78.3686H80.6062V75.75V73.1314H79.0437V75.75ZM80.6062 75.75H77.9876V77.3125H80.6062H83.2247V75.75H80.6062ZM80.6062 77.3125H77.9876V78.875H80.6062H83.2247V77.3125H80.6062ZM80.6062 78.875H77.9876V80.4375H80.6062H83.2247V78.875H80.6062ZM83.7312 75.75V73.1314H82.1687V75.75V78.3686H83.7312V75.75ZM82.1687 75.75V73.1314H80.6062V75.75V78.3686H82.1687V75.75ZM80.6062 75.75H83.2247V74.1875H80.6062H77.9876V75.75H80.6062ZM80.6062 74.1875V76.8061H82.1687V74.1875V71.5689H80.6062V74.1875ZM82.1687 74.1875V76.8061H83.7312V74.1875V71.5689H82.1687V74.1875ZM83.7312 74.1875H81.1126V75.75H83.7312H86.3497V74.1875H83.7312ZM96.0437 82H93.4251V84.6186H96.0437V82ZM96.0437 80.4375V77.8189H93.4251V80.4375H96.0437ZM97.6062 80.4375H100.225V77.8189H97.6062V80.4375ZM97.6062 82V84.6186H100.225V82H97.6062ZM91.3562 82H88.7376V84.6186H91.3562V82ZM91.3562 71.0625V68.4439H88.7376V71.0625H91.3562ZM92.9187 71.0625H95.5372V68.4439H92.9187V71.0625ZM92.9187 77.3125H90.3001V79.9311H92.9187V77.3125ZM94.4812 77.3125H97.0997V74.6939H94.4812V77.3125ZM94.4812 78.875H91.8626V81.4936H94.4812V78.875ZM96.0437 78.875H98.6622V76.2564H96.0437V78.875ZM96.0437 80.4375V83.0561H98.6622V80.4375H96.0437ZM94.4812 80.4375H91.8626V83.0561H94.4812V80.4375ZM94.4812 78.875H97.0997V76.2564H94.4812V78.875ZM92.9187 78.875V76.2564H90.3001V78.875H92.9187ZM92.9187 82V84.6186H95.5372V82H92.9187ZM94.4812 77.3125H91.8626V79.9311H94.4812V77.3125ZM94.4812 75.75V73.1314H91.8626V75.75H94.4812ZM96.0437 75.75H98.6622V73.1314H96.0437V75.75ZM96.0437 77.3125V79.9311H98.6622V77.3125H96.0437ZM96.0437 75.75H93.4251V78.3686H96.0437V75.75ZM96.0437 74.1875V71.5689H93.4251V74.1875H96.0437ZM97.6062 74.1875H100.225V71.5689H97.6062V74.1875ZM97.6062 75.75V78.3686H100.225V75.75H97.6062ZM96.0437 82H98.6622V80.4375H96.0437H93.4251V82H96.0437ZM96.0437 80.4375V83.0561H97.6062V80.4375V77.8189H96.0437V80.4375ZM97.6062 80.4375H94.9876V82H97.6062H100.225V80.4375H97.6062ZM97.6062 82V79.3814H96.0437V82V84.6186H97.6062V82ZM91.3562 82H93.9747V80.4375H91.3562H88.7376V82H91.3562ZM91.3562 80.4375H93.9747V78.875H91.3562H88.7376V80.4375H91.3562ZM91.3562 78.875H93.9747V77.3125H91.3562H88.7376V78.875H91.3562ZM91.3562 77.3125H93.9747V75.75H91.3562H88.7376V77.3125H91.3562ZM91.3562 75.75H93.9747V74.1875H91.3562H88.7376V75.75H91.3562ZM91.3562 74.1875H93.9747V72.625H91.3562H88.7376V74.1875H91.3562ZM91.3562 72.625H93.9747V71.0625H91.3562H88.7376V72.625H91.3562ZM91.3562 71.0625V73.6811H92.9187V71.0625V68.4439H91.3562V71.0625ZM92.9187 71.0625H90.3001V72.625H92.9187H95.5372V71.0625H92.9187ZM92.9187 72.625H90.3001V74.1875H92.9187H95.5372V72.625H92.9187ZM92.9187 74.1875H90.3001V75.75H92.9187H95.5372V74.1875H92.9187ZM92.9187 75.75H90.3001V77.3125H92.9187H95.5372V75.75H92.9187ZM92.9187 77.3125V79.9311H94.4812V77.3125V74.6939H92.9187V77.3125ZM94.4812 77.3125H91.8626V78.875H94.4812H97.0997V77.3125H94.4812ZM94.4812 78.875V81.4936H96.0437V78.875V76.2564H94.4812V78.875ZM96.0437 78.875H93.4251V80.4375H96.0437H98.6622V78.875H96.0437ZM96.0437 80.4375V77.8189H94.4812V80.4375V83.0561H96.0437V80.4375ZM94.4812 80.4375H97.0997V78.875H94.4812H91.8626V80.4375H94.4812ZM94.4812 78.875V76.2564H92.9187V78.875V81.4936H94.4812V78.875ZM92.9187 78.875H90.3001V80.4375H92.9187H95.5372V78.875H92.9187ZM92.9187 80.4375H90.3001V82H92.9187H95.5372V80.4375H92.9187ZM92.9187 82V79.3814H91.3562V82V84.6186H92.9187V82ZM94.4812 77.3125H97.0997V75.75H94.4812H91.8626V77.3125H94.4812ZM94.4812 75.75V78.3686H96.0437V75.75V73.1314H94.4812V75.75ZM96.0437 75.75H93.4251V77.3125H96.0437H98.6622V75.75H96.0437ZM96.0437 77.3125V74.6939H94.4812V77.3125V79.9311H96.0437V77.3125ZM96.0437 75.75H98.6622V74.1875H96.0437H93.4251V75.75H96.0437ZM96.0437 74.1875V76.8061H97.6062V74.1875V71.5689H96.0437V74.1875ZM97.6062 74.1875H94.9876V75.75H97.6062H100.225V74.1875H97.6062ZM97.6062 75.75V73.1314H96.0437V75.75V78.3686H97.6062V75.75ZM108.356 80.4375H110.975V77.8189H108.356V80.4375ZM108.356 82V84.6186H110.975V82H108.356ZM105.231 82H102.613V84.6186H105.231V82ZM105.231 80.4375V77.8189H102.613V80.4375H105.231ZM105.231 80.4375V83.0561H107.85V80.4375H105.231ZM103.669 80.4375H101.05V83.0561H103.669V80.4375ZM103.669 75.75V73.1314H101.05V75.75H103.669ZM105.231 75.75H107.85V73.1314H105.231V75.75ZM105.231 77.3125H102.613V79.9311H105.231V77.3125ZM108.356 77.3125V79.9311H110.975V77.3125H108.356ZM108.356 75.75V73.1314H105.738V75.75H108.356ZM109.919 75.75H112.537V73.1314H109.919V75.75ZM109.919 78.875V81.4936H112.537V78.875H109.919ZM105.231 78.875V76.2564H102.613V78.875H105.231ZM108.356 75.75V78.3686H110.975V75.75H108.356ZM105.231 75.75H102.613V78.3686H105.231V75.75ZM105.231 74.1875V71.5689H102.613V74.1875H105.231ZM108.356 74.1875H110.975V71.5689H108.356V74.1875ZM106.794 80.4375V83.0561H108.356V80.4375V77.8189H106.794V80.4375ZM108.356 80.4375H105.738V82H108.356H110.975V80.4375H108.356ZM108.356 82V79.3814H106.794V82V84.6186H108.356V82ZM106.794 82V79.3814H105.231V82V84.6186H106.794V82ZM105.231 82H107.85V80.4375H105.231H102.613V82H105.231ZM105.231 80.4375V83.0561H106.794V80.4375V77.8189H105.231V80.4375ZM105.231 80.4375V77.8189H103.669V80.4375V83.0561H105.231V80.4375ZM103.669 80.4375H106.287V78.875H103.669H101.05V80.4375H103.669ZM103.669 78.875H106.287V77.3125H103.669H101.05V78.875H103.669ZM103.669 77.3125H106.287V75.75H103.669H101.05V77.3125H103.669ZM103.669 75.75V78.3686H105.231V75.75V73.1314H103.669V75.75ZM105.231 75.75H102.613V77.3125H105.231H107.85V75.75H105.231ZM105.231 77.3125V79.9311H106.794V77.3125V74.6939H105.231V77.3125ZM106.794 77.3125V79.9311H108.356V77.3125V74.6939H106.794V77.3125ZM108.356 77.3125H110.975V75.75H108.356H105.738V77.3125H108.356ZM108.356 75.75V78.3686H109.919V75.75V73.1314H108.356V75.75ZM109.919 75.75H107.3V77.3125H109.919H112.537V75.75H109.919ZM109.919 77.3125H107.3V78.875H109.919H112.537V77.3125H109.919ZM109.919 78.875V76.2564H108.356V78.875V81.4936H109.919V78.875ZM108.356 78.875V76.2564H106.794V78.875V81.4936H108.356V78.875ZM106.794 78.875V76.2564H105.231V78.875V81.4936H106.794V78.875ZM105.231 78.875H102.613V80.4375H105.231H107.85V78.875H105.231ZM108.356 75.75V73.1314H106.794V75.75V78.3686H108.356V75.75ZM106.794 75.75V73.1314H105.231V75.75V78.3686H106.794V75.75ZM105.231 75.75H107.85V74.1875H105.231H102.613V75.75H105.231ZM105.231 74.1875V76.8061H106.794V74.1875V71.5689H105.231V74.1875ZM106.794 74.1875V76.8061H108.356V74.1875V71.5689H106.794V74.1875ZM108.356 74.1875H105.738V75.75H108.356H110.975V74.1875H108.356ZM115.981 82H113.363V84.6186H115.981V82ZM115.981 74.1875V71.5689H113.363V74.1875H115.981ZM117.544 74.1875H120.162V71.5689H117.544V74.1875ZM117.544 75.75H114.925V78.3686H117.544V75.75ZM119.106 75.75H121.725V73.1314H119.106V75.75ZM119.106 77.3125V79.9311H121.725V77.3125H119.106ZM117.544 77.3125V74.6939H114.925V77.3125H117.544ZM117.544 82V84.6186H120.162V82H117.544ZM122.231 74.1875H124.85V71.5689H122.231V74.1875ZM122.231 75.75V78.3686H124.85V75.75H122.231ZM119.106 75.75H116.488V78.3686H119.106V75.75ZM119.106 74.1875V71.5689H116.488V74.1875H119.106ZM115.981 82H118.6V80.4375H115.981H113.363V82H115.981ZM115.981 80.4375H118.6V78.875H115.981H113.363V80.4375H115.981ZM115.981 78.875H118.6V77.3125H115.981H113.363V78.875H115.981ZM115.981 77.3125H118.6V75.75H115.981H113.363V77.3125H115.981ZM115.981 75.75H118.6V74.1875H115.981H113.363V75.75H115.981ZM115.981 74.1875V76.8061H117.544V74.1875V71.5689H115.981V74.1875ZM117.544 74.1875H114.925V75.75H117.544H120.162V74.1875H117.544ZM117.544 75.75V78.3686H119.106V75.75V73.1314H117.544V75.75ZM119.106 75.75H116.488V77.3125H119.106H121.725V75.75H119.106ZM119.106 77.3125V74.6939H117.544V77.3125V79.9311H119.106V77.3125ZM117.544 77.3125H114.925V78.875H117.544H120.162V77.3125H117.544ZM117.544 78.875H114.925V80.4375H117.544H120.162V78.875H117.544ZM117.544 80.4375H114.925V82H117.544H120.162V80.4375H117.544ZM117.544 82V79.3814H115.981V82V84.6186H117.544V82ZM120.669 74.1875V76.8061H122.231V74.1875V71.5689H120.669V74.1875ZM122.231 74.1875H119.613V75.75H122.231H124.85V74.1875H122.231ZM122.231 75.75V73.1314H120.669V75.75V78.3686H122.231V75.75ZM120.669 75.75V73.1314H119.106V75.75V78.3686H120.669V75.75ZM119.106 75.75H121.725V74.1875H119.106H116.488V75.75H119.106ZM119.106 74.1875V76.8061H120.669V74.1875V71.5689H119.106V74.1875ZM48.2699 93.58V90.9614H45.6513V93.58H48.2699ZM50.3299 93.58H52.9485V90.9614H50.3299V93.58ZM50.3299 96.98H47.7113V99.5986H50.3299V96.98ZM54.6499 96.98H57.2685V94.3614H54.6499V96.98ZM54.6499 98.94V101.559H57.2685V98.94H54.6499ZM50.3299 98.94V96.3214H47.7113V98.94H50.3299ZM50.3299 102.26H47.7113V104.879H50.3299V102.26ZM53.9499 102.26H56.5685V99.6414H53.9499V102.26ZM53.9499 112.02V114.639H56.5685V112.02H53.9499ZM51.9499 112.02H49.3313V114.639H51.9499V112.02ZM51.9499 111.32H54.5685V108.701H51.9499V111.32ZM47.5299 111.32V108.701H44.9113V111.32H47.5299ZM47.5299 112.02V114.639H50.1485V112.02H47.5299ZM45.5899 112.02H42.9713V114.639H45.5899V112.02ZM45.5899 102.26V99.6414H42.9713V102.26H45.5899ZM48.2699 102.26V104.879H50.8885V102.26H48.2699ZM47.5299 109.36H44.9113V111.979H47.5299V109.36ZM51.9499 109.36V111.979H54.5685V109.36H51.9499ZM51.9499 104.2H54.5685V101.581H51.9499V104.2ZM47.5299 104.2V101.581H44.9113V104.2H47.5299ZM44.5299 94.2H47.1485V91.5814H44.5299V94.2ZM44.5299 107.02V109.639H47.1485V107.02H44.5299ZM42.6899 107.02H40.0713V109.639H42.6899V107.02ZM42.6899 96.12H45.3085V93.5014H42.6899V96.12ZM38.7699 96.12V93.5014H36.1513V96.12H38.7699ZM38.7699 107.02V109.639H41.3885V107.02H38.7699ZM36.8899 107.02H34.2713V109.639H36.8899V107.02ZM36.8899 94.2V91.5814H34.2713V94.2H36.8899ZM39.8099 97.3V94.6814H37.1913V97.3H39.8099ZM41.6099 97.3H44.2285V94.6814H41.6099V97.3ZM41.6099 103.86L44.2268 103.953L44.2285 103.907V103.86H41.6099ZM40.5299 109.24L42.8568 110.441L42.8754 110.405L42.8928 110.369L40.5299 109.24ZM37.4099 112.12L35.2121 113.544L36.4572 115.466L38.5281 114.488L37.4099 112.12ZM36.2699 110.36L35.1267 108.004L32.4618 109.297L34.0721 111.784L36.2699 110.36ZM39.0299 107.94L41.3721 109.111L41.4038 109.048L41.4321 108.982L39.0299 107.94ZM39.8099 103.86L42.4268 103.955L42.4285 103.907V103.86H39.8099ZM42.3299 107.48L44.1815 105.628L42.3712 103.818L40.5205 105.587L42.3299 107.48ZM44.9499 110.48L46.7892 112.344L48.4004 110.754L47.0602 108.93L44.9499 110.48ZM43.4299 111.98L41.1648 113.294L42.8618 116.22L45.2692 113.844L43.4299 111.98ZM40.9699 108.78L39.1605 106.887L37.2936 108.672L39.0522 110.563L40.9699 108.78ZM48.2699 93.58V96.1986H50.3299V93.58V90.9614H48.2699V93.58ZM50.3299 93.58H47.7113V96.98H50.3299H52.9485V93.58H50.3299ZM50.3299 96.98V99.5986H54.6499V96.98V94.3614H50.3299V96.98ZM54.6499 96.98H52.0313V98.94H54.6499H57.2685V96.98H54.6499ZM54.6499 98.94V96.3214H50.3299V98.94V101.559H54.6499V98.94ZM50.3299 98.94H47.7113V102.26H50.3299H52.9485V98.94H50.3299ZM50.3299 102.26V104.879H53.9499V102.26V99.6414H50.3299V102.26ZM53.9499 102.26H51.3313V112.02H53.9499H56.5685V102.26H53.9499ZM53.9499 112.02V109.401H51.9499V112.02V114.639H53.9499V112.02ZM51.9499 112.02H54.5685V111.32H51.9499H49.3313V112.02H51.9499ZM51.9499 111.32V108.701H47.5299V111.32V113.939H51.9499V111.32ZM47.5299 111.32H44.9113V112.02H47.5299H50.1485V111.32H47.5299ZM47.5299 112.02V109.401H45.5899V112.02V114.639H47.5299V112.02ZM45.5899 112.02H48.2085V102.26H45.5899H42.9713V112.02H45.5899ZM45.5899 102.26V104.879H48.2699V102.26V99.6414H45.5899V102.26ZM48.2699 102.26H50.8885V93.58H48.2699H45.6513V102.26H48.2699ZM47.5299 109.36V111.979H51.9499V109.36V106.741H47.5299V109.36ZM51.9499 109.36H54.5685V104.2H51.9499H49.3313V109.36H51.9499ZM51.9499 104.2V101.581H47.5299V104.2V106.819H51.9499V104.2ZM47.5299 104.2H44.9113V109.36H47.5299H50.1485V104.2H47.5299ZM44.5299 94.2H41.9113V107.02H44.5299H47.1485V94.2H44.5299ZM44.5299 107.02V104.401H42.6899V107.02V109.639H44.5299V107.02ZM42.6899 107.02H45.3085V96.12H42.6899H40.0713V107.02H42.6899ZM42.6899 96.12V93.5014H38.7699V96.12V98.7386H42.6899V96.12ZM38.7699 96.12H36.1513V107.02H38.7699H41.3885V96.12H38.7699ZM38.7699 107.02V104.401H36.8899V107.02V109.639H38.7699V107.02ZM36.8899 107.02H39.5085V94.2H36.8899H34.2713V107.02H36.8899ZM36.8899 94.2V96.8186H44.5299V94.2V91.5814H36.8899V94.2ZM39.8099 97.3V99.9186H41.6099V97.3V94.6814H39.8099V97.3ZM41.6099 97.3H38.9913V103.86H41.6099H44.2285V97.3H41.6099ZM41.6099 103.86L38.993 103.767C38.9198 105.816 38.5934 107.219 38.167 108.111L40.5299 109.24L42.8928 110.369C43.7464 108.581 44.14 106.384 44.2268 103.953L41.6099 103.86ZM40.5299 109.24L38.203 108.039C37.8633 108.697 37.2885 109.281 36.2918 109.752L37.4099 112.12L38.5281 114.488C40.4113 113.599 41.9165 112.263 42.8568 110.441L40.5299 109.24ZM37.4099 112.12L39.6077 110.696L38.4677 108.936L36.2699 110.36L34.0721 111.784L35.2121 113.544L37.4099 112.12ZM36.2699 110.36L37.4132 112.716C39.0734 111.91 40.5429 110.769 41.3721 109.111L39.0299 107.94L36.6878 106.769C36.557 107.031 36.1864 107.49 35.1267 108.004L36.2699 110.36ZM39.0299 107.94L41.4321 108.982C42.0658 107.522 42.3597 105.81 42.4268 103.955L39.8099 103.86L37.193 103.765C37.1401 105.23 36.9141 106.238 36.6278 106.898L39.0299 107.94ZM39.8099 103.86H42.4285V97.3H39.8099H37.1913V103.86H39.8099ZM42.3299 107.48L40.4783 109.332C41.4291 110.282 42.2163 111.182 42.8397 112.03L44.9499 110.48L47.0602 108.93C46.2436 107.818 45.2708 106.718 44.1815 105.628L42.3299 107.48ZM44.9499 110.48L43.1106 108.616L41.5906 110.116L43.4299 111.98L45.2692 113.844L46.7892 112.344L44.9499 110.48ZM43.4299 111.98L45.6951 110.666C44.9867 109.445 44.0317 108.227 42.8876 106.997L40.9699 108.78L39.0522 110.563C40.0281 111.613 40.7131 112.515 41.1648 113.294L43.4299 111.98ZM40.9699 108.78L42.7793 110.673L44.1393 109.373L42.3299 107.48L40.5205 105.587L39.1605 106.887L40.9699 108.78ZM66.1699 102.66V100.041H63.5513V102.66H66.1699ZM70.4699 102.66V105.279H73.0885V102.66H70.4699ZM70.4699 99.22V96.6014H67.8513V99.22H70.4699ZM72.5899 99.22H75.2085V96.6014H72.5899V99.22ZM72.5899 102.66H69.9713V105.279H72.5899V102.66ZM77.1699 102.66H79.7885V100.041H77.1699V102.66ZM77.1699 104.7V107.319H79.7885V104.7H77.1699ZM72.5899 104.7V102.081H69.9713V104.7H72.5899ZM72.5899 109.38H69.9713V111.999H72.5899V109.38ZM78.0299 109.38H80.6485V106.761H78.0299V109.38ZM78.0299 111.42V114.039H80.6485V111.42H78.0299ZM65.4499 111.42H62.8313V114.039H65.4499V111.42ZM65.4499 109.38V106.761H62.8313V109.38H65.4499ZM70.4699 109.38V111.999H73.0885V109.38H70.4699ZM70.4699 104.7H73.0885V102.081H70.4699V104.7ZM66.1699 104.7H63.5513V107.319H66.1699V104.7ZM62.6699 104.66H65.2885V98.5031L60.8536 102.774L62.6699 104.66ZM60.9899 106.18L58.9153 107.778L60.6037 109.97L62.6997 108.163L60.9899 106.18ZM59.6499 104.44L57.9771 102.425L56.0352 104.038L57.5753 106.038L59.6499 104.44ZM65.0299 98.1L67.307 99.3929L69.528 95.4814H65.0299V98.1ZM60.3699 98.1H57.7513V100.719H60.3699V98.1ZM60.3699 96.06V93.4414H57.7513V96.06H60.3699ZM66.0299 96.06V98.6786H67.7515L68.4339 97.0981L66.0299 96.06ZM67.0099 93.36L67.3229 90.7602L65.1438 90.4979L64.5048 92.5976L67.0099 93.36ZM69.1699 93.62L71.6878 94.3394L72.5312 91.3871L69.4829 91.0202L69.1699 93.62ZM68.3499 96.06L65.8981 95.1406L64.5713 98.6786H68.3499V96.06ZM78.0299 96.06H80.6485V93.4414H78.0299V96.06ZM78.0299 98.1V100.719H80.6485V98.1H78.0299ZM67.4299 98.1V95.4814H65.8116L65.0878 96.9289L67.4299 98.1ZM64.7299 102.36L62.673 100.739L62.1113 101.452V102.36H64.7299ZM64.7299 112.14V114.759H67.3485V112.14H64.7299ZM62.6699 112.14H60.0513V114.759H62.6699V112.14ZM66.1699 102.66V105.279H70.4699V102.66V100.041H66.1699V102.66ZM70.4699 102.66H73.0885V99.22H70.4699H67.8513V102.66H70.4699ZM70.4699 99.22V101.839H72.5899V99.22V96.6014H70.4699V99.22ZM72.5899 99.22H69.9713V102.66H72.5899H75.2085V99.22H72.5899ZM72.5899 102.66V105.279H77.1699V102.66V100.041H72.5899V102.66ZM77.1699 102.66H74.5513V104.7H77.1699H79.7885V102.66H77.1699ZM77.1699 104.7V102.081H72.5899V104.7V107.319H77.1699V104.7ZM72.5899 104.7H69.9713V109.38H72.5899H75.2085V104.7H72.5899ZM72.5899 109.38V111.999H78.0299V109.38V106.761H72.5899V109.38ZM78.0299 109.38H75.4113V111.42H78.0299H80.6485V109.38H78.0299ZM78.0299 111.42V108.801H65.4499V111.42V114.039H78.0299V111.42ZM65.4499 111.42H68.0685V109.38H65.4499H62.8313V111.42H65.4499ZM65.4499 109.38V111.999H70.4699V109.38V106.761H65.4499V109.38ZM70.4699 109.38H73.0885V104.7H70.4699H67.8513V109.38H70.4699ZM70.4699 104.7V102.081H66.1699V104.7V107.319H70.4699V104.7ZM66.1699 104.7H68.7885V102.66H66.1699H63.5513V104.7H66.1699ZM62.6699 104.66L60.8536 102.774C60.36 103.249 59.8388 103.715 59.2801 104.197L60.9899 106.18L62.6997 108.163C63.3011 107.645 63.8998 107.111 64.4863 106.546L62.6699 104.66ZM60.9899 106.18L63.0646 104.582L61.7246 102.842L59.6499 104.44L57.5753 106.038L58.9153 107.778L60.9899 106.18ZM59.6499 104.44L61.3228 106.455C63.7877 104.408 65.7994 102.048 67.307 99.3929L65.0299 98.1L62.7528 96.8071C61.5804 98.8719 59.9922 100.752 57.9771 102.425L59.6499 104.44ZM65.0299 98.1V95.4814H60.3699V98.1V100.719H65.0299V98.1ZM60.3699 98.1H62.9885V96.06H60.3699H57.7513V98.1H60.3699ZM60.3699 96.06V98.6786H66.0299V96.06V93.4414H60.3699V96.06ZM66.0299 96.06L68.4339 97.0981C68.8594 96.1128 69.2118 95.1187 69.515 94.1224L67.0099 93.36L64.5048 92.5976C64.248 93.4413 63.9604 94.2472 63.6259 95.0219L66.0299 96.06ZM67.0099 93.36L66.697 95.9598L68.857 96.2198L69.1699 93.62L69.4829 91.0202L67.3229 90.7602L67.0099 93.36ZM69.1699 93.62L66.6521 92.9006C66.4389 93.6468 66.1853 94.3745 65.8981 95.1406L68.3499 96.06L70.8018 96.9794C71.1145 96.1455 71.421 95.2732 71.6878 94.3394L69.1699 93.62ZM68.3499 96.06V98.6786H78.0299V96.06V93.4414H68.3499V96.06ZM78.0299 96.06H75.4113V98.1H78.0299H80.6485V96.06H78.0299ZM78.0299 98.1V95.4814H67.4299V98.1V100.719H78.0299V98.1ZM67.4299 98.1L65.0878 96.9289C64.4065 98.2916 63.6017 99.5608 62.673 100.739L64.7299 102.36L66.7868 103.981C67.9381 102.519 68.9334 100.948 69.7721 99.2711L67.4299 98.1ZM64.7299 102.36H62.1113V112.14H64.7299H67.3485V102.36H64.7299ZM64.7299 112.14V109.521H62.6699V112.14V114.759H64.7299V112.14ZM62.6699 112.14H65.2885V104.66H62.6699H60.0513V112.14H62.6699ZM89.7299 96.28V93.6614H87.1113V96.28H89.7299ZM94.3699 96.28V98.8986H97.8193L96.8921 95.5761L94.3699 96.28ZM93.5899 93.9L93.1555 91.3177L89.9836 91.8513L91.1494 94.8491L93.5899 93.9ZM95.7299 93.54L98.2203 92.7306L97.5223 90.5831L95.2955 90.9577L95.7299 93.54ZM96.5099 96.28L93.9725 96.9268L94.4751 98.8986H96.5099V96.28ZM101.35 96.28H103.969V93.6614H101.35V96.28ZM101.35 98.3V100.919H103.969V98.3H101.35ZM99.7499 98.3V95.6814H97.7482L97.223 97.6131L99.7499 98.3ZM97.4499 103.6L95.253 102.175L94.0091 104.093L95.7412 105.584L97.4499 103.6ZM101.37 107.32L103.222 109.172L105.028 107.365L103.267 105.515L101.37 107.32ZM99.7299 108.96L97.7183 110.636L99.554 112.839L101.582 110.812L99.7299 108.96ZM96.1899 105.26L97.9696 103.339L96.0271 101.539L94.2492 103.502L96.1899 105.26ZM90.5299 108.98L88.3054 110.362L89.4114 112.142L91.391 111.453L90.5299 108.98ZM89.3499 107.08L88.5782 104.578L85.3347 105.578L87.1254 108.462L89.3499 107.08ZM94.6499 103.9L96.54 105.712L98.4539 103.716L96.3566 101.914L94.6499 103.9ZM90.4699 100.56L88.6449 98.6821L86.4293 100.835L88.9166 102.668L90.4699 100.56ZM91.8899 99.18L93.4372 97.0674L91.6519 95.7599L90.0649 97.3021L91.8899 99.18ZM95.8899 102.28L94.2072 104.286L96.4652 106.18L98.0803 103.715L95.8899 102.28ZM97.6699 98.3L100.18 99.0462L101.18 95.6814H97.6699V98.3ZM89.7299 98.3H87.1113V100.919H89.7299V98.3ZM85.4699 93.74L87.0905 91.6831L85.3151 90.2844L83.6719 91.8363L85.4699 93.74ZM88.8299 96.86L90.6691 98.724L92.4343 96.9823L90.7912 95.125L88.8299 96.86ZM87.3299 98.34L85.2451 99.9245L87.048 102.297L89.1691 100.204L87.3299 98.34ZM84.0299 95.1L82.2319 93.1963L80.0503 95.2567L82.3872 97.1392L84.0299 95.1ZM93.3299 111.72L93.3715 109.102L93.3708 109.102L93.3299 111.72ZM90.1699 111.38L89.4175 113.888L89.4899 113.91L89.5634 113.927L90.1699 111.38ZM88.1099 110L86.0298 111.591L86.0723 111.646L86.1176 111.699L88.1099 110ZM85.3099 112.2L83.5214 114.113L85.9706 116.403L87.599 113.472L85.3099 112.2ZM83.7699 110.76L81.5494 109.372L80.4068 111.2L81.9814 112.673L83.7699 110.76ZM86.4499 107.7L87.7119 109.994L89.0685 109.248V107.7H86.4499ZM86.4499 102.22H89.0685V99.6014H86.4499V102.22ZM83.8099 102.22H81.1913V104.839H83.8099V102.22ZM83.8099 100.3V97.6814H81.1913V100.3H83.8099ZM88.3899 100.3H91.0085V97.6814H88.3899V100.3ZM88.3899 107.92H85.7713V109.005L86.5383 109.772L88.3899 107.92ZM88.5899 108.12L90.5889 106.429L90.5186 106.345L90.4415 106.268L88.5899 108.12ZM89.9499 109.3L88.6614 111.58L88.7037 111.604L88.7469 111.626L89.9499 109.3ZM92.5499 109.8L92.4597 112.417L92.4818 112.418L92.504 112.418L92.5499 109.8ZM99.5899 109.82V112.439H99.6413L99.6925 112.437L99.5899 109.82ZM101.93 109.7L104.475 110.318L105.323 106.823L101.736 107.089L101.93 109.7ZM101.43 111.76V114.379H103.489L103.975 112.378L101.43 111.76ZM89.7299 96.28V98.8986H94.3699V96.28V93.6614H89.7299V96.28ZM94.3699 96.28L96.8921 95.5761C96.6343 94.6524 96.3482 93.768 96.0305 92.9509L93.5899 93.9L91.1494 94.8491C91.3916 95.472 91.6255 96.1876 91.8477 96.9839L94.3699 96.28ZM93.5899 93.9L94.0243 96.4823L96.1643 96.1223L95.7299 93.54L95.2955 90.9577L93.1555 91.3177L93.5899 93.9ZM95.7299 93.54L93.2396 94.3494C93.4771 95.0802 93.7217 95.943 93.9725 96.9268L96.5099 96.28L99.0474 95.6332C98.7781 94.577 98.5028 93.5998 98.2203 92.7306L95.7299 93.54ZM96.5099 96.28V98.8986H101.35V96.28V93.6614H96.5099V96.28ZM101.35 96.28H98.7313V98.3H101.35H103.969V96.28H101.35ZM101.35 98.3V95.6814H99.7499V98.3V100.919H101.35V98.3ZM99.7499 98.3L97.223 97.6131C96.7255 99.4432 96.0486 100.949 95.253 102.175L97.4499 103.6L99.6468 105.025C100.771 103.291 101.654 101.277 102.277 98.9869L99.7499 98.3ZM97.4499 103.6L95.7412 105.584C97.1174 106.769 98.3544 107.95 99.473 109.125L101.37 107.32L103.267 105.515C102.025 104.21 100.662 102.911 99.1586 101.616L97.4499 103.6ZM101.37 107.32L99.5183 105.468L97.8783 107.108L99.7299 108.96L101.582 110.812L103.222 109.172L101.37 107.32ZM99.7299 108.96L101.742 107.284C100.662 105.988 99.4029 104.667 97.9696 103.339L96.1899 105.26L94.4103 107.181C95.697 108.373 96.7979 109.532 97.7183 110.636L99.7299 108.96ZM96.1899 105.26L94.2492 103.502C93.0109 104.869 91.5052 105.868 89.6688 106.507L90.5299 108.98L91.391 111.453C94.0346 110.532 96.2889 109.051 98.1306 107.018L96.1899 105.26ZM90.5299 108.98L92.7544 107.598L91.5744 105.698L89.3499 107.08L87.1254 108.462L88.3054 110.362L90.5299 108.98ZM89.3499 107.08L90.1217 109.582C92.6449 108.804 94.8028 107.524 96.54 105.712L94.6499 103.9L92.7599 102.088C91.697 103.196 90.3349 104.036 88.5782 104.578L89.3499 107.08ZM94.6499 103.9L96.3566 101.914C95.037 100.78 93.6055 99.6178 92.0233 98.4519L90.4699 100.56L88.9166 102.668C90.3744 103.742 91.7028 104.82 92.9432 105.886L94.6499 103.9ZM90.4699 100.56L92.2949 102.438L93.7149 101.058L91.8899 99.18L90.0649 97.3021L88.6449 98.6821L90.4699 100.56ZM91.8899 99.18L90.3427 101.293C91.7412 102.317 93.0297 103.299 94.2072 104.286L95.8899 102.28L97.5727 100.274C96.2701 99.1812 94.8786 98.1231 93.4372 97.0674L91.8899 99.18ZM95.8899 102.28L98.0803 103.715C99.0106 102.295 99.6855 100.709 100.18 99.0462L97.6699 98.3L95.1599 97.5538C94.7744 98.8506 94.2892 99.945 93.6996 100.845L95.8899 102.28ZM97.6699 98.3V95.6814H89.7299V98.3V100.919H97.6699V98.3ZM89.7299 98.3H92.3485V96.28H89.7299H87.1113V98.3H89.7299ZM85.4699 93.74L83.8494 95.7969C85.071 96.7594 86.0713 97.6936 86.8686 98.595L88.8299 96.86L90.7912 95.125C89.7486 93.9464 88.5088 92.8006 87.0905 91.6831L85.4699 93.74ZM88.8299 96.86L86.9908 94.996L85.4908 96.476L87.3299 98.34L89.1691 100.204L90.6691 98.724L88.8299 96.86ZM87.3299 98.34L89.4147 96.7555C88.4815 95.5276 87.208 94.2976 85.6726 93.0608L84.0299 95.1L82.3872 97.1392C83.7319 98.2224 84.6584 99.1524 85.2451 99.9245L87.3299 98.34ZM84.0299 95.1L85.8279 97.0037L87.2679 95.6437L85.4699 93.74L83.6719 91.8363L82.2319 93.1963L84.0299 95.1ZM96.8499 111.76V109.141C95.7955 109.141 94.6396 109.122 93.3715 109.102L93.3299 111.72L93.2884 114.338C94.5402 114.358 95.7443 114.379 96.8499 114.379V111.76ZM93.3299 111.72L93.3708 109.102C92.2227 109.084 91.3816 108.977 90.7764 108.833L90.1699 111.38L89.5634 113.927C90.6383 114.183 91.8771 114.316 93.289 114.338L93.3299 111.72ZM90.1699 111.38L90.9224 108.872C90.6503 108.79 90.3876 108.635 90.1022 108.301L88.1099 110L86.1176 111.699C86.9923 112.725 88.0896 113.49 89.4175 113.888L90.1699 111.38ZM88.1099 110L90.19 108.409C89.7927 107.89 88.8744 106.881 87.3699 106.881V109.5V112.119C86.8696 112.119 86.4891 111.942 86.2697 111.794C86.076 111.664 86.0021 111.554 86.0298 111.591L88.1099 110ZM87.3699 109.5V106.881C86.3145 106.881 85.5922 107.454 85.3359 107.671C84.9963 107.958 84.7126 108.295 84.4887 108.589C84.0315 109.19 83.5395 109.995 83.0209 110.928L85.3099 112.2L87.599 113.472C88.0803 112.605 88.4284 112.06 88.6561 111.761C88.7748 111.605 88.7948 111.604 88.7209 111.667C88.6804 111.701 88.5634 111.796 88.3734 111.89C88.1856 111.983 87.8368 112.119 87.3699 112.119V109.5ZM85.3099 112.2L87.0984 110.287L85.5584 108.847L83.7699 110.76L81.9814 112.673L83.5214 114.113L85.3099 112.2ZM83.7699 110.76L85.9905 112.148C86.9702 110.58 87.5503 110.083 87.7119 109.994L86.4499 107.7L85.188 105.406C83.7495 106.197 82.5696 107.74 81.5494 109.372L83.7699 110.76ZM86.4499 107.7H89.0685V102.22H86.4499H83.8313V107.7H86.4499ZM86.4499 102.22V99.6014H83.8099V102.22V104.839H86.4499V102.22ZM83.8099 102.22H86.4285V100.3H83.8099H81.1913V102.22H83.8099ZM83.8099 100.3V102.919H88.3899V100.3V97.6814H83.8099V100.3ZM88.3899 100.3H85.7713V107.92H88.3899H91.0085V100.3H88.3899ZM88.3899 107.92L86.5383 109.772L86.7383 109.972L88.5899 108.12L90.4415 106.268L90.2415 106.068L88.3899 107.92ZM88.5899 108.12L86.5909 109.811C87.1739 110.5 87.8641 111.129 88.6614 111.58L89.9499 109.3L91.2384 107.02C91.1158 106.951 90.8859 106.78 90.5889 106.429L88.5899 108.12ZM89.9499 109.3L88.7469 111.626C89.8537 112.198 91.1888 112.373 92.4597 112.417L92.5499 109.8L92.6402 107.183C92.1506 107.166 91.7863 107.126 91.5231 107.075C91.3939 107.051 91.3007 107.026 91.2372 107.006C91.1735 106.985 91.1491 106.972 91.153 106.974L89.9499 109.3ZM92.5499 109.8L92.504 112.418C93.6495 112.438 95.0072 112.459 96.5499 112.459V109.84V107.221C95.0526 107.221 93.7304 107.202 92.5959 107.182L92.5499 109.8ZM96.5499 109.84V112.459C97.0651 112.459 97.5783 112.453 98.0808 112.448C98.5875 112.443 99.0849 112.439 99.5899 112.439V109.82V107.201C99.055 107.201 98.5323 107.207 98.029 107.212C97.5215 107.217 97.0347 107.221 96.5499 107.221V109.84ZM99.5899 109.82L99.6925 112.437C100.721 112.396 101.537 112.355 102.123 112.311L101.93 109.7L101.736 107.089C101.242 107.125 100.498 107.164 99.4873 107.203L99.5899 109.82ZM101.93 109.7L99.3852 109.082L98.8852 111.142L101.43 111.76L103.975 112.378L104.475 110.318L101.93 109.7ZM101.43 111.76V109.141H96.8499V111.76V114.379H101.43V111.76ZM111.05 100.04V97.4214H108.431V100.04H111.05ZM111.05 102.02H108.431V104.639H111.05V102.02ZM115.21 102.02V104.639H117.829V102.02H115.21ZM115.21 100.04H117.829V97.4214H115.21V100.04ZM115.21 103.94H117.829V101.321H115.21V103.94ZM108.99 103.94H106.371V106.559H108.99V103.94ZM108.99 94.16V91.5414H106.371V94.16H108.99ZM123.51 94.16H126.129V91.5414H123.51V94.16ZM123.51 103.94V106.559H126.129V103.94H123.51ZM117.33 103.94V101.321H114.711V103.94H117.33ZM117.33 105.72H114.711V108.339H117.33V105.72ZM124.31 105.72H126.929V103.101H124.31V105.72ZM124.31 107.7V110.319H126.929V107.7H124.31ZM117.33 107.7V105.081H114.711V107.7H117.33ZM117.33 109.52H114.711V112.139H117.33V109.52ZM125.15 109.52H127.769V106.901H125.15V109.52ZM125.15 111.54V114.159H127.769V111.54H125.15ZM107.37 111.54H104.751V114.159H107.37V111.54ZM107.37 109.52V106.901H104.751V109.52H107.37ZM115.21 109.52V112.139H117.829V109.52H115.21ZM115.21 107.7H117.829V105.081H115.21V107.7ZM108.23 107.7H105.611V110.319H108.23V107.7ZM108.23 105.72V103.101H105.611V105.72H108.23ZM115.21 105.72V108.339H117.829V105.72H115.21ZM117.33 102.02H114.711V104.639H117.33V102.02ZM121.45 102.02V104.639H124.069V102.02H121.45ZM121.45 100.04H124.069V97.4214H121.45V100.04ZM117.33 100.04V97.4214H114.711V100.04H117.33ZM121.45 98.12V100.739H124.069V98.12H121.45ZM121.45 96.08H124.069V93.4614H121.45V96.08ZM117.33 96.08V93.4614H114.711V96.08H117.33ZM117.33 98.12H114.711V100.739H117.33V98.12ZM115.21 96.08H117.829V93.4614H115.21V96.08ZM111.05 96.08V93.4614H108.431V96.08H111.05ZM111.05 98.12H108.431V100.739H111.05V98.12ZM115.21 98.12V100.739H117.829V98.12H115.21ZM111.05 100.04H108.431V102.02H111.05H113.669V100.04H111.05ZM111.05 102.02V104.639H115.21V102.02V99.4014H111.05V102.02ZM115.21 102.02H117.829V100.04H115.21H112.591V102.02H115.21ZM115.21 100.04V97.4214H111.05V100.04V102.659H115.21V100.04ZM115.21 103.94V101.321H108.99V103.94V106.559H115.21V103.94ZM108.99 103.94H111.609V94.16H108.99H106.371V103.94H108.99ZM108.99 94.16V96.7786H123.51V94.16V91.5414H108.99V94.16ZM123.51 94.16H120.891V103.94H123.51H126.129V94.16H123.51ZM123.51 103.94V101.321H117.33V103.94V106.559H123.51V103.94ZM117.33 103.94H114.711V105.72H117.33H119.949V103.94H117.33ZM117.33 105.72V108.339H124.31V105.72V103.101H117.33V105.72ZM124.31 105.72H121.691V107.7H124.31H126.929V105.72H124.31ZM124.31 107.7V105.081H117.33V107.7V110.319H124.31V107.7ZM117.33 107.7H114.711V109.52H117.33H119.949V107.7H117.33ZM117.33 109.52V112.139H125.15V109.52V106.901H117.33V109.52ZM125.15 109.52H122.531V111.54H125.15H127.769V109.52H125.15ZM125.15 111.54V108.921H107.37V111.54V114.159H125.15V111.54ZM107.37 111.54H109.989V109.52H107.37H104.751V111.54H107.37ZM107.37 109.52V112.139H115.21V109.52V106.901H107.37V109.52ZM115.21 109.52H117.829V107.7H115.21H112.591V109.52H115.21ZM115.21 107.7V105.081H108.23V107.7V110.319H115.21V107.7ZM108.23 107.7H110.849V105.72H108.23H105.611V107.7H108.23ZM108.23 105.72V108.339H115.21V105.72V103.101H108.23V105.72ZM115.21 105.72H117.829V103.94H115.21H112.591V105.72H115.21ZM117.33 102.02V104.639H121.45V102.02V99.4014H117.33V102.02ZM121.45 102.02H124.069V100.04H121.45H118.831V102.02H121.45ZM121.45 100.04V97.4214H117.33V100.04V102.659H121.45V100.04ZM117.33 100.04H114.711V102.02H117.33H119.949V100.04H117.33ZM121.45 98.12H124.069V96.08H121.45H118.831V98.12H121.45ZM121.45 96.08V93.4614H117.33V96.08V98.6986H121.45V96.08ZM117.33 96.08H114.711V98.12H117.33H119.949V96.08H117.33ZM117.33 98.12V100.739H121.45V98.12V95.5014H117.33V98.12ZM115.21 96.08V93.4614H111.05V96.08V98.6986H115.21V96.08ZM111.05 96.08H108.431V98.12H111.05H113.669V96.08H111.05ZM111.05 98.12V100.739H115.21V98.12V95.5014H111.05V98.12ZM115.21 98.12H117.829V96.08H115.21H112.591V98.12H115.21ZM131.85 95.72V93.1014H129.1L129.234 95.8485L131.85 95.72ZM134.55 95.72L137.165 95.8485L137.3 93.1014H134.55V95.72ZM134.05 105.9V108.519H136.543L136.665 106.028L134.05 105.9ZM132.35 105.9L129.734 106.028L129.857 108.519H132.35V105.9ZM134.31 107.4L136.162 105.548L136.13 105.516L136.097 105.486L134.31 107.4ZM134.31 109.58L136.034 111.551L136.1 111.493L136.162 111.432L134.31 109.58ZM132.11 109.56L133.962 107.708L133.9 107.647L133.834 107.589L132.11 109.56ZM132.11 107.4L133.834 109.371L133.9 109.313L133.962 109.252L132.11 107.4ZM131.85 95.72V98.3386H134.55V95.72V93.1014H131.85V95.72ZM134.55 95.72L131.934 95.5915L131.434 105.772L134.05 105.9L136.665 106.028L137.165 95.8485L134.55 95.72ZM134.05 105.9V103.281H132.35V105.9V108.519H134.05V105.9ZM132.35 105.9L134.965 105.772L134.465 95.5915L131.85 95.72L129.234 95.8485L129.734 106.028L132.35 105.9ZM133.19 106.98V109.599C133.13 109.599 133.021 109.589 132.887 109.538C132.748 109.487 132.623 109.408 132.523 109.314L134.31 107.4L136.097 105.486C135.263 104.708 134.223 104.361 133.19 104.361V106.98ZM134.31 107.4L132.458 109.252C132.374 109.167 132.284 109.045 132.218 108.887C132.152 108.729 132.131 108.584 132.131 108.48H134.75H137.368C137.368 107.338 136.927 106.314 136.162 105.548L134.31 107.4ZM134.75 108.48H132.131C132.131 108.379 132.15 108.249 132.208 108.106C132.266 107.963 132.353 107.834 132.458 107.728L134.31 109.58L136.162 111.432C136.953 110.641 137.368 109.586 137.368 108.48H134.75ZM134.31 109.58L132.586 107.609C132.634 107.567 132.729 107.498 132.868 107.446C133.007 107.393 133.125 107.381 133.19 107.381V110V112.619C134.273 112.619 135.243 112.243 136.034 111.551L134.31 109.58ZM133.19 110V107.381C133.294 107.381 133.438 107.402 133.597 107.468C133.755 107.534 133.877 107.624 133.962 107.708L132.11 109.56L130.258 111.412C131.024 112.177 132.048 112.619 133.19 112.619V110ZM132.11 109.56L133.834 107.589C133.962 107.701 134.091 107.867 134.177 108.073C134.259 108.269 134.269 108.422 134.269 108.48H131.65H129.031C129.031 109.551 129.41 110.677 130.386 111.531L132.11 109.56ZM131.65 108.48H134.269C134.269 108.538 134.259 108.691 134.177 108.887C134.091 109.093 133.962 109.259 133.834 109.371L132.11 107.4L130.386 105.429C129.41 106.283 129.031 107.409 129.031 108.48H131.65ZM132.11 107.4L133.962 109.252C133.851 109.362 133.706 109.461 133.539 109.526C133.377 109.588 133.25 109.599 133.19 109.599V106.98V104.361C132.14 104.361 131.086 104.721 130.258 105.548L132.11 107.4Z" fill="white" mask="url(#path-47-outside-1_249_6578)"/>
</g>
<defs>
<filter id="filter0_d_249_6578" x="32.4618" y="68.4439" width="115.381" height="58.4332" filterUnits="userSpaceOnUse" color-interpolation-filters="sRGB">
<feFlood flood-opacity="0" result="BackgroundImageFix"/>
<feColorMatrix in="SourceAlpha" type="matrix" values="0 0 0 0 0 0 0 0 0 0 0 0 0 0 0 0 0 0 127 0" result="hardAlpha"/>
<feOffset dx="5.23716" dy="5.23716"/>
<feGaussianBlur stdDeviation="2.61858"/>
<feComposite in2="hardAlpha" operator="out"/>
<feColorMatrix type="matrix" values="0 0 0 0 0 0 0 0 0 0 0 0 0 0 0 0 0 0 0.02 0"/>
<feBlend mode="normal" in2="BackgroundImageFix" result="effect1_dropShadow_249_6578"/>
<feBlend mode="normal" in="SourceGraphic" in2="effect1_dropShadow_249_6578" result="shape"/>
</filter>
</defs>
</svg>
