<svg width="33" height="17" viewBox="0 0 33 17" fill="none" xmlns="http://www.w3.org/2000/svg">
<rect x="3.77783" width="6.61111" height="2.83333" fill="#624AFF"/>
<rect x="6.61121" width="6.61111" height="2.83333" transform="rotate(90 6.61121 0)" fill="#624AFF"/>
<rect width="6.61111" height="2.83333" transform="matrix(1 0 0 -1 3.77783 17)" fill="#624AFF"/>
<rect width="6.61111" height="2.83333" transform="matrix(-3.82475e-08 -1 -1 4.99559e-08 6.61121 17)" fill="#624AFF"/>
<rect y="2.8335" width="3.77778" height="3.77778" fill="#37CFD2"/>
<rect y="6.61133" width="3.77778" height="3.77778" fill="#624AFF"/>
<rect width="6.61111" height="2.83333" transform="matrix(-1 0 0 1 28.3333 0)" fill="#624AFF"/>
<rect width="6.61111" height="2.83333" transform="matrix(4.37114e-08 1 1 -4.37114e-08 25.4999 0)" fill="#624AFF"/>
<rect x="28.3333" y="17" width="6.61111" height="2.83333" transform="rotate(180 28.3333 17)" fill="#624AFF"/>
<rect x="25.4999" y="17" width="6.61111" height="2.83333" transform="rotate(-90 25.4999 17)" fill="#624AFF"/>
<rect width="3.77778" height="3.77778" transform="matrix(-1 0 0 1 32.1111 2.8335)" fill="#37CFD2"/>
<rect width="3.77778" height="3.77778" transform="matrix(-1 0 0 1 32.1111 6.61133)" fill="#624AFF"/>
<rect x="10.3889" y="5.6665" width="3.77778" height="3.77778" fill="#37CFD2"/>
<rect x="17.9445" y="5.6665" width="3.77778" height="3.77778" fill="#37CFD2"/>
<rect x="14.1667" y="9.44482" width="3.77778" height="3.77778" fill="#624AFF"/>
</svg>
