<svg width="164" height="164" viewBox="0 0 164 164" fill="none" xmlns="http://www.w3.org/2000/svg">
<path d="M82 163C126.735 163 163 126.735 163 82C163 37.2649 126.735 1 82 1C37.2649 1 1 37.2649 1 82C1 126.735 37.2649 163 82 163Z" fill="white"/>
<path d="M82 163C126.735 163 163 126.735 163 82C163 37.2649 126.735 1 82 1C37.2649 1 1 37.2649 1 82C1 126.735 37.2649 163 82 163Z" stroke="#E6E6E6" stroke-miterlimit="10" stroke-dasharray="4.82 4.82"/>
<path d="M82 163C126.735 163 163 126.735 163 82C163 37.2649 126.735 1 82 1C37.2649 1 1 37.2649 1 82C1 126.735 37.2649 163 82 163Z" stroke="#624AFF" stroke-miterlimit="10" stroke-dasharray="4.82 4.82"/>
<path fill-rule="evenodd" clip-rule="evenodd" d="M134 97.1765L133.867 97.924L133.858 97.9667C133.664 99.0757 133.478 100.138 133.25 101.192C130.882 112.151 124.765 120.42 114.837 125.422C102.732 131.521 90.7042 130.752 79.2818 123.39C76.7158 121.736 74.456 119.536 72.2687 117.372C67.2966 112.452 62.3563 107.502 57.4159 102.551L57.3842 102.519C53.4168 98.5423 49.4495 94.5657 45.4655 90.6057C42.9357 88.092 41.6218 85.2205 42.2705 81.6358C42.8527 78.414 44.7821 76.2035 47.7961 74.7081L46.8096 73.7053C46.0704 72.951 45.3448 72.2114 44.6011 71.4917C43.2103 70.1453 42.0985 68.6396 41.6263 66.7185C40.3773 61.6415 43.1635 56.7604 48.1627 55.2792C48.3 55.2385 48.4357 55.193 48.5866 55.1425L48.8506 55.0551C48.3754 51.2065 49.5505 48.0071 52.7003 45.722C55.8757 43.4197 59.2653 43.4175 62.6157 45.0297C62.8903 44.6714 63.1528 44.3018 63.4137 43.9329L63.4364 43.8981C64.0171 43.0733 64.5949 42.2534 65.3039 41.5721C68.8429 38.1756 74.3806 38.1187 77.8804 41.5458C82.1932 45.7689 86.4487 50.0515 90.7027 54.3339C92.4873 56.1298 94.2718 57.9256 96.0609 59.7171C98.0642 61.7228 100.068 63.7278 102.074 65.7308C102.246 65.9036 102.437 66.0581 102.815 66.1332L102.575 65.0884C102.395 64.3061 102.216 63.5227 102.03 62.7421C101.787 61.7229 101.534 60.7061 101.279 59.6893C100.743 57.5484 100.208 55.4074 99.7839 53.2446C98.7431 47.9446 102.259 42.6994 107.476 41.5544C112.891 40.3656 118.271 43.5722 119.515 48.9134C121.262 56.4059 123.477 63.734 126.676 70.7365C127.373 72.2621 128.112 73.768 128.853 75.2739C129.52 76.6314 130.186 77.9888 130.822 79.3607C132.505 82.9911 133.467 86.8268 133.926 90.8416C134 92.9441 134 95.0149 134 97.1765ZM88.4792 70.4885C89.3496 71.3603 89.6754 72.3779 89.3073 73.5811C88.9694 74.6846 88.1744 75.2939 87.0913 75.4959C85.9841 75.7022 85.1091 75.2223 84.3338 74.442C76.5152 66.5847 68.6875 58.7356 60.8568 50.8907C59.2321 49.2621 57.081 49.222 55.5348 50.7582C54.0248 52.2581 54.0942 54.4793 55.7113 56.097L79.2169 79.6075C80.57 80.9614 80.6937 82.7138 79.5186 83.8978C78.3374 85.0888 76.5664 85.0156 75.2284 83.6932C73.4182 81.9034 71.6231 80.0971 69.8234 78.2971L63.4831 71.9597C60.1041 68.5813 56.7265 65.2034 53.3444 61.8292C51.845 60.3347 49.7949 60.2274 48.312 61.5287C46.5471 63.0779 46.5727 65.3938 48.389 67.2097L58.3089 77.1251C63.0909 81.9032 67.8729 86.6813 72.6504 91.4627C73.9884 92.8004 74.0593 94.4832 72.8751 95.6752C71.697 96.8614 69.9878 96.8208 68.6679 95.5377C67.7945 94.689 66.9346 93.8256 66.0748 92.962L64.9011 91.7831L61.6986 88.5846C59.1628 86.0534 56.627 83.522 54.1002 80.9832C52.9356 79.8138 51.5825 79.4168 50.0498 80.0226C47.5759 81.0005 47.0328 84.0349 48.9773 85.9984C51.1511 88.1935 53.3384 90.3746 55.5272 92.5558C56.7175 93.7422 57.9077 94.9287 59.0949 96.1173C61.148 98.1718 63.1965 100.232 65.2436 102.292C69.6032 106.678 73.9628 111.063 78.3752 115.396C87.0702 123.933 100.644 126.092 111.499 120.786C126.646 113.382 132.663 95.3372 124.932 80.3042C120.072 70.8536 116.34 61.0056 114.073 50.6059C113.926 49.9357 113.594 49.2534 113.181 48.7046C111.929 47.0446 109.66 46.5654 107.803 47.4759C105.813 48.452 104.928 50.5326 105.492 52.8611C107.271 60.1925 109.048 67.5239 110.804 74.8606C110.927 75.376 110.995 75.9641 110.876 76.4682C110.405 78.4687 107.91 79.7585 105.818 77.618C103.643 75.3931 101.443 73.1927 99.2439 70.9923L99.2258 70.9761L96.7564 68.503C89.3194 61.0417 81.8824 53.5808 74.444 46.1219C72.7273 44.4002 70.6108 44.2897 69.0631 45.8299C67.5094 47.3745 67.5908 49.5213 69.2834 51.2239C72.4075 54.3669 75.5346 57.5063 78.704 60.6872L88.4792 70.4885Z" fill="black" fill-opacity="0.2"/>
<path d="M39 113.243C39.092 113.113 39.1795 112.982 39.2655 112.853L39.27 112.849C39.5793 112.387 39.8734 111.947 40.2747 111.651C41.747 110.563 43.7594 111.235 44.5649 113.06C45.8305 115.92 47.5186 118.49 49.6727 120.751C52.5645 123.786 55.9783 126.022 59.9095 127.467C61.0846 127.899 61.7257 128.795 61.7996 130.028C61.872 131.236 61.3003 132.153 60.2383 132.705C59.3528 133.166 58.4402 133.033 57.5336 132.676C49.2398 129.419 43.2193 123.738 39.4676 115.633C39.359 115.4 39.2444 115.17 39.0664 114.919C39 114.376 39 113.853 39 113.243Z" fill="black" fill-opacity="0.2"/>
<path d="M66.9618 120.824C66.9105 119.412 66.0567 118.48 64.2344 117.891C61.5854 116.846 59.3272 115.347 57.3888 113.356C55.7294 111.652 54.4758 109.685 53.4892 107.525C52.8406 106.104 51.4045 105.508 49.9593 105.974C48.6424 106.4 47.8263 107.762 48.1008 109.186C48.1974 109.681 48.4297 110.159 48.653 110.619C51.6851 116.857 56.4354 121.181 62.9717 123.491C65.0429 124.223 67.0357 122.869 66.9618 120.824Z" fill="black" fill-opacity="0.2"/>
<g filter="url(#filter0_d_318_11381)">
<mask id="path-3-outside-1_318_11381" maskUnits="userSpaceOnUse" x="23" y="56" width="116" height="57" fill="black">
<rect fill="white" x="23" y="56" width="116" height="57"/>
<path d="M33.7136 59.8C35.7886 59.8 37.4136 60.225 38.5886 61.125C39.8386 62.05 40.5386 63.475 40.7136 65.425H38.0136C37.7636 64.275 37.3136 63.425 36.6136 62.925C35.9136 62.4 34.9136 62.15 33.5636 62.15C32.3886 62.15 31.4886 62.325 30.8636 62.675C30.0886 63.075 29.7136 63.725 29.7136 64.625C29.7136 65.425 30.1386 66.05 31.0386 66.525C31.4386 66.75 32.4636 67.125 34.1386 67.625C36.5386 68.375 38.1136 68.95 38.8136 69.375C40.3386 70.3 41.1136 71.575 41.1136 73.225C41.1136 74.825 40.4886 76.075 39.2386 77C37.9886 77.9 36.2386 78.35 33.9886 78.35C31.8136 78.35 30.1136 77.9 28.8886 77.05C27.4136 76 26.6136 74.35 26.4636 72.1H29.1636C29.3636 73.5 29.8636 74.525 30.6636 75.125C31.3886 75.675 32.4886 75.95 33.9886 75.95C35.3386 75.95 36.4136 75.7 37.2136 75.25C38.0136 74.8 38.4136 74.175 38.4136 73.375C38.4136 72.375 37.8386 71.6 36.7136 71.025C36.3136 70.825 35.1386 70.425 33.1636 69.825C30.9636 69.125 29.6136 68.65 29.0636 68.35C27.6886 67.525 27.0136 66.325 27.0136 64.775C27.0136 63.2 27.6636 61.975 28.9886 61.075C30.2386 60.225 31.8136 59.8 33.7136 59.8ZM51.8251 60.9V65.075H54.7751V67.275H51.8251V74.775C51.8251 75.125 51.9001 75.375 52.0501 75.55C52.2001 75.7 52.4251 75.8 52.7501 75.8H54.4501V78H52.3251C51.2251 78 50.4001 77.7 49.9001 77.125C49.4001 76.575 49.1751 75.8 49.1751 74.775V67.275H46.7751V65.075H49.1751V62L51.8251 60.9ZM63.2839 59.9C63.8089 59.9 64.2589 60.05 64.6089 60.4C64.9589 60.725 65.1339 61.15 65.1339 61.675C65.1339 62.2 64.9339 62.625 64.5839 62.975C64.2339 63.3 63.7839 63.475 63.2839 63.475C62.7589 63.475 62.3339 63.3 61.9839 62.975C61.6339 62.625 61.4589 62.175 61.4589 61.675C61.4589 61.15 61.6339 60.725 61.9839 60.4C62.3339 60.05 62.7589 59.9 63.2839 59.9ZM61.9589 65.075H64.6089V78H61.9589V65.075ZM78.446 64.725C80.096 64.725 81.421 65.1 82.421 65.85C83.421 66.65 84.071 67.85 84.321 69.45H81.696C81.521 68.575 81.171 67.925 80.621 67.525C80.071 67.1 79.346 66.9 78.446 66.9C77.346 66.9 76.496 67.3 75.871 68.125C75.221 68.925 74.921 70.075 74.921 71.525C74.921 72.975 75.221 74.125 75.846 74.95C76.421 75.75 77.271 76.175 78.421 76.175C80.396 76.175 81.496 75.175 81.746 73.225H84.371C84.071 74.95 83.396 76.25 82.396 77.1C81.396 77.925 80.046 78.35 78.396 78.35C76.421 78.35 74.896 77.7 73.796 76.4C72.721 75.15 72.196 73.55 72.196 71.55C72.196 69.6 72.721 68 73.771 66.75C74.896 65.4 76.446 64.725 78.446 64.725ZM91.1364 59.8H93.7864V70.4L99.3864 65.075H102.811L97.0864 70.4L103.311 78H99.9114L95.2614 72.1L93.7864 73.475V78H91.1364V59.8ZM114.783 64.725C116.883 64.725 118.508 65.425 119.608 66.875C120.608 68.175 121.133 69.975 121.158 72.275H111.358C111.458 73.525 111.783 74.5 112.383 75.175C112.983 75.825 113.808 76.175 114.858 76.175C115.783 76.175 116.533 75.95 117.108 75.525C117.558 75.175 117.933 74.6 118.283 73.85H120.933C120.633 75.05 120.058 76.075 119.158 76.875C118.033 77.85 116.608 78.35 114.883 78.35C112.983 78.35 111.458 77.75 110.358 76.575C109.158 75.325 108.558 73.65 108.558 71.525C108.558 69.6 109.108 68 110.258 66.7C111.358 65.375 112.883 64.725 114.783 64.725ZM114.858 66.9C113.858 66.9 113.083 67.175 112.483 67.775C111.933 68.35 111.558 69.175 111.408 70.275H118.383C118.133 68.025 116.958 66.9 114.858 66.9ZM133.92 64.725C134.57 64.725 135.145 64.825 135.595 65.05V67.7C134.945 67.5 134.32 67.425 133.72 67.425C132.92 67.425 132.195 67.75 131.57 68.4C130.895 69.1 130.57 70.025 130.57 71.15V78H127.92V65.075H130.57V67.025C130.895 66.325 131.32 65.8 131.82 65.45C132.42 64.95 133.12 64.725 133.92 64.725ZM44.2699 89.58H46.3299V92.98H50.6499V94.94H46.3299V98.26H49.9499V108.02H47.9499V107.32H43.5299V108.02H41.5899V98.26H44.2699V89.58ZM43.5299 105.36H47.9499V100.2H43.5299V105.36ZM40.5299 90.2V103.02H38.6899V92.12H34.7699V103.02H32.8899V90.2H40.5299ZM35.8099 93.3H37.6099V99.86C37.5299 102.1 37.1699 103.9 36.5299 105.24C35.8899 106.48 34.8499 107.44 33.4099 108.12L32.2699 106.36C33.6299 105.7 34.5499 104.9 35.0299 103.94C35.4899 102.88 35.7499 101.52 35.8099 99.86V93.3ZM38.3299 103.48C39.3499 104.5 40.2299 105.5 40.9499 106.48L39.4299 107.98C38.8499 106.98 38.0299 105.92 36.9699 104.78L38.3299 103.48ZM62.1699 98.66H66.4699V95.22H68.5899V98.66H73.1699V100.7H68.5899V105.38H74.0299V107.42H61.4499V105.38H66.4699V100.7H62.1699V98.66ZM58.6699 100.66C58.1299 101.18 57.5699 101.68 56.9899 102.18L55.6499 100.44C57.8899 98.58 59.6899 96.46 61.0299 94.1H56.3699V92.06H62.0299C62.4099 91.18 62.7299 90.28 63.0099 89.36L65.1699 89.62C64.9299 90.46 64.6499 91.26 64.3499 92.06H74.0299V94.1H63.4299C62.6699 95.62 61.7699 97.04 60.7299 98.36V108.14H58.6699V100.66ZM85.7299 92.28H90.3699C90.1299 91.42 89.8699 90.62 89.5899 89.9L91.7299 89.54C91.9899 90.34 92.2499 91.26 92.5099 92.28H97.3499V94.3H95.7499C95.1899 96.36 94.4099 98.12 93.4499 99.6C94.8899 100.84 96.1899 102.08 97.3699 103.32L95.7299 104.96C94.7299 103.76 93.5499 102.52 92.1899 101.26C90.6499 102.96 88.7699 104.2 86.5299 104.98L85.3499 103.08C87.4899 102.42 89.2499 101.36 90.6499 99.9C89.3699 98.8 87.9899 97.68 86.4699 96.56L87.8899 95.18C89.3099 96.22 90.6499 97.24 91.8899 98.28C92.6499 97.12 93.2299 95.78 93.6699 94.3H85.7299V92.28ZM81.4699 89.74C82.7899 90.78 83.9099 91.82 84.8299 92.86L83.3299 94.34C82.5699 93.34 81.4699 92.26 80.0299 91.1L81.4699 89.74ZM92.8499 107.76C91.7699 107.76 90.5899 107.74 89.3299 107.72C88.0499 107.7 87.0099 107.58 86.1699 107.38C85.3699 107.14 84.6899 106.68 84.1099 106C83.8499 105.66 83.6099 105.5 83.3699 105.5C82.9899 105.5 82.3099 106.4 81.3099 108.2L79.7699 106.76C80.7699 105.16 81.6499 104.14 82.4499 103.7V98.22H79.8099V96.3H84.3899V103.92L84.5899 104.12C85.0299 104.64 85.4899 105.04 85.9499 105.3C86.5299 105.6 87.3899 105.76 88.5499 105.8C89.6899 105.82 91.0299 105.84 92.5499 105.84C93.5499 105.84 94.5499 105.82 95.5899 105.82C96.6099 105.78 97.3899 105.74 97.9299 105.7L97.4299 107.76H92.8499ZM107.05 96.04V98.02H111.21V96.04H107.05ZM111.21 99.94H104.99V90.16H119.51V99.94H113.33V101.72H120.31V103.7H113.33V105.52H121.15V107.54H103.37V105.52H111.21V103.7H104.23V101.72H111.21V99.94ZM113.33 98.02H117.45V96.04H113.33V98.02ZM117.45 94.12V92.08H113.33V94.12H117.45ZM111.21 92.08H107.05V94.12H111.21V92.08ZM127.85 91.72H130.55L130.05 101.9H128.35L127.85 91.72ZM129.19 102.98C129.63 102.98 130.01 103.12 130.31 103.4C130.59 103.68 130.75 104.04 130.75 104.48C130.75 104.92 130.59 105.3 130.31 105.58C129.99 105.86 129.63 106 129.19 106C128.75 106 128.39 105.84 128.11 105.56C127.79 105.28 127.65 104.92 127.65 104.48C127.65 104.04 127.79 103.68 128.11 103.4C128.39 103.12 128.75 102.98 129.19 102.98Z"/>
</mask>
<path d="M33.7136 59.8C35.7886 59.8 37.4136 60.225 38.5886 61.125C39.8386 62.05 40.5386 63.475 40.7136 65.425H38.0136C37.7636 64.275 37.3136 63.425 36.6136 62.925C35.9136 62.4 34.9136 62.15 33.5636 62.15C32.3886 62.15 31.4886 62.325 30.8636 62.675C30.0886 63.075 29.7136 63.725 29.7136 64.625C29.7136 65.425 30.1386 66.05 31.0386 66.525C31.4386 66.75 32.4636 67.125 34.1386 67.625C36.5386 68.375 38.1136 68.95 38.8136 69.375C40.3386 70.3 41.1136 71.575 41.1136 73.225C41.1136 74.825 40.4886 76.075 39.2386 77C37.9886 77.9 36.2386 78.35 33.9886 78.35C31.8136 78.35 30.1136 77.9 28.8886 77.05C27.4136 76 26.6136 74.35 26.4636 72.1H29.1636C29.3636 73.5 29.8636 74.525 30.6636 75.125C31.3886 75.675 32.4886 75.95 33.9886 75.95C35.3386 75.95 36.4136 75.7 37.2136 75.25C38.0136 74.8 38.4136 74.175 38.4136 73.375C38.4136 72.375 37.8386 71.6 36.7136 71.025C36.3136 70.825 35.1386 70.425 33.1636 69.825C30.9636 69.125 29.6136 68.65 29.0636 68.35C27.6886 67.525 27.0136 66.325 27.0136 64.775C27.0136 63.2 27.6636 61.975 28.9886 61.075C30.2386 60.225 31.8136 59.8 33.7136 59.8ZM51.8251 60.9V65.075H54.7751V67.275H51.8251V74.775C51.8251 75.125 51.9001 75.375 52.0501 75.55C52.2001 75.7 52.4251 75.8 52.7501 75.8H54.4501V78H52.3251C51.2251 78 50.4001 77.7 49.9001 77.125C49.4001 76.575 49.1751 75.8 49.1751 74.775V67.275H46.7751V65.075H49.1751V62L51.8251 60.9ZM63.2839 59.9C63.8089 59.9 64.2589 60.05 64.6089 60.4C64.9589 60.725 65.1339 61.15 65.1339 61.675C65.1339 62.2 64.9339 62.625 64.5839 62.975C64.2339 63.3 63.7839 63.475 63.2839 63.475C62.7589 63.475 62.3339 63.3 61.9839 62.975C61.6339 62.625 61.4589 62.175 61.4589 61.675C61.4589 61.15 61.6339 60.725 61.9839 60.4C62.3339 60.05 62.7589 59.9 63.2839 59.9ZM61.9589 65.075H64.6089V78H61.9589V65.075ZM78.446 64.725C80.096 64.725 81.421 65.1 82.421 65.85C83.421 66.65 84.071 67.85 84.321 69.45H81.696C81.521 68.575 81.171 67.925 80.621 67.525C80.071 67.1 79.346 66.9 78.446 66.9C77.346 66.9 76.496 67.3 75.871 68.125C75.221 68.925 74.921 70.075 74.921 71.525C74.921 72.975 75.221 74.125 75.846 74.95C76.421 75.75 77.271 76.175 78.421 76.175C80.396 76.175 81.496 75.175 81.746 73.225H84.371C84.071 74.95 83.396 76.25 82.396 77.1C81.396 77.925 80.046 78.35 78.396 78.35C76.421 78.35 74.896 77.7 73.796 76.4C72.721 75.15 72.196 73.55 72.196 71.55C72.196 69.6 72.721 68 73.771 66.75C74.896 65.4 76.446 64.725 78.446 64.725ZM91.1364 59.8H93.7864V70.4L99.3864 65.075H102.811L97.0864 70.4L103.311 78H99.9114L95.2614 72.1L93.7864 73.475V78H91.1364V59.8ZM114.783 64.725C116.883 64.725 118.508 65.425 119.608 66.875C120.608 68.175 121.133 69.975 121.158 72.275H111.358C111.458 73.525 111.783 74.5 112.383 75.175C112.983 75.825 113.808 76.175 114.858 76.175C115.783 76.175 116.533 75.95 117.108 75.525C117.558 75.175 117.933 74.6 118.283 73.85H120.933C120.633 75.05 120.058 76.075 119.158 76.875C118.033 77.85 116.608 78.35 114.883 78.35C112.983 78.35 111.458 77.75 110.358 76.575C109.158 75.325 108.558 73.65 108.558 71.525C108.558 69.6 109.108 68 110.258 66.7C111.358 65.375 112.883 64.725 114.783 64.725ZM114.858 66.9C113.858 66.9 113.083 67.175 112.483 67.775C111.933 68.35 111.558 69.175 111.408 70.275H118.383C118.133 68.025 116.958 66.9 114.858 66.9ZM133.92 64.725C134.57 64.725 135.145 64.825 135.595 65.05V67.7C134.945 67.5 134.32 67.425 133.72 67.425C132.92 67.425 132.195 67.75 131.57 68.4C130.895 69.1 130.57 70.025 130.57 71.15V78H127.92V65.075H130.57V67.025C130.895 66.325 131.32 65.8 131.82 65.45C132.42 64.95 133.12 64.725 133.92 64.725ZM44.2699 89.58H46.3299V92.98H50.6499V94.94H46.3299V98.26H49.9499V108.02H47.9499V107.32H43.5299V108.02H41.5899V98.26H44.2699V89.58ZM43.5299 105.36H47.9499V100.2H43.5299V105.36ZM40.5299 90.2V103.02H38.6899V92.12H34.7699V103.02H32.8899V90.2H40.5299ZM35.8099 93.3H37.6099V99.86C37.5299 102.1 37.1699 103.9 36.5299 105.24C35.8899 106.48 34.8499 107.44 33.4099 108.12L32.2699 106.36C33.6299 105.7 34.5499 104.9 35.0299 103.94C35.4899 102.88 35.7499 101.52 35.8099 99.86V93.3ZM38.3299 103.48C39.3499 104.5 40.2299 105.5 40.9499 106.48L39.4299 107.98C38.8499 106.98 38.0299 105.92 36.9699 104.78L38.3299 103.48ZM62.1699 98.66H66.4699V95.22H68.5899V98.66H73.1699V100.7H68.5899V105.38H74.0299V107.42H61.4499V105.38H66.4699V100.7H62.1699V98.66ZM58.6699 100.66C58.1299 101.18 57.5699 101.68 56.9899 102.18L55.6499 100.44C57.8899 98.58 59.6899 96.46 61.0299 94.1H56.3699V92.06H62.0299C62.4099 91.18 62.7299 90.28 63.0099 89.36L65.1699 89.62C64.9299 90.46 64.6499 91.26 64.3499 92.06H74.0299V94.1H63.4299C62.6699 95.62 61.7699 97.04 60.7299 98.36V108.14H58.6699V100.66ZM85.7299 92.28H90.3699C90.1299 91.42 89.8699 90.62 89.5899 89.9L91.7299 89.54C91.9899 90.34 92.2499 91.26 92.5099 92.28H97.3499V94.3H95.7499C95.1899 96.36 94.4099 98.12 93.4499 99.6C94.8899 100.84 96.1899 102.08 97.3699 103.32L95.7299 104.96C94.7299 103.76 93.5499 102.52 92.1899 101.26C90.6499 102.96 88.7699 104.2 86.5299 104.98L85.3499 103.08C87.4899 102.42 89.2499 101.36 90.6499 99.9C89.3699 98.8 87.9899 97.68 86.4699 96.56L87.8899 95.18C89.3099 96.22 90.6499 97.24 91.8899 98.28C92.6499 97.12 93.2299 95.78 93.6699 94.3H85.7299V92.28ZM81.4699 89.74C82.7899 90.78 83.9099 91.82 84.8299 92.86L83.3299 94.34C82.5699 93.34 81.4699 92.26 80.0299 91.1L81.4699 89.74ZM92.8499 107.76C91.7699 107.76 90.5899 107.74 89.3299 107.72C88.0499 107.7 87.0099 107.58 86.1699 107.38C85.3699 107.14 84.6899 106.68 84.1099 106C83.8499 105.66 83.6099 105.5 83.3699 105.5C82.9899 105.5 82.3099 106.4 81.3099 108.2L79.7699 106.76C80.7699 105.16 81.6499 104.14 82.4499 103.7V98.22H79.8099V96.3H84.3899V103.92L84.5899 104.12C85.0299 104.64 85.4899 105.04 85.9499 105.3C86.5299 105.6 87.3899 105.76 88.5499 105.8C89.6899 105.82 91.0299 105.84 92.5499 105.84C93.5499 105.84 94.5499 105.82 95.5899 105.82C96.6099 105.78 97.3899 105.74 97.9299 105.7L97.4299 107.76H92.8499ZM107.05 96.04V98.02H111.21V96.04H107.05ZM111.21 99.94H104.99V90.16H119.51V99.94H113.33V101.72H120.31V103.7H113.33V105.52H121.15V107.54H103.37V105.52H111.21V103.7H104.23V101.72H111.21V99.94ZM113.33 98.02H117.45V96.04H113.33V98.02ZM117.45 94.12V92.08H113.33V94.12H117.45ZM111.21 92.08H107.05V94.12H111.21V92.08ZM127.85 91.72H130.55L130.05 101.9H128.35L127.85 91.72ZM129.19 102.98C129.63 102.98 130.01 103.12 130.31 103.4C130.59 103.68 130.75 104.04 130.75 104.48C130.75 104.92 130.59 105.3 130.31 105.58C129.99 105.86 129.63 106 129.19 106C128.75 106 128.39 105.84 128.11 105.56C127.79 105.28 127.65 104.92 127.65 104.48C127.65 104.04 127.79 103.68 128.11 103.4C128.39 103.12 128.75 102.98 129.19 102.98Z" fill="#624AFF"/>
<path d="M38.5886 61.125L36.9963 63.2038L37.0135 63.217L37.0309 63.2299L38.5886 61.125ZM40.7136 65.425V68.0436H43.5777L43.3217 65.1909L40.7136 65.425ZM38.0136 65.425L35.4548 65.9813L35.9031 68.0436H38.0136V65.425ZM36.6136 62.925L35.0424 65.0199L35.0668 65.0381L35.0916 65.0558L36.6136 62.925ZM30.8636 62.675L32.0646 65.0019L32.1042 64.9815L32.143 64.9597L30.8636 62.675ZM31.0386 66.525L32.3224 64.2427L32.2918 64.2255L32.2608 64.2092L31.0386 66.525ZM34.1386 67.625L34.9196 65.1256L34.9036 65.1206L34.8876 65.1158L34.1386 67.625ZM38.8136 69.375L37.4546 71.6133L37.4555 71.6139L38.8136 69.375ZM39.2386 77L40.7686 79.1251L40.7825 79.1151L40.7962 79.1049L39.2386 77ZM28.8886 77.05L27.37 79.1833L27.3828 79.1924L27.3958 79.2014L28.8886 77.05ZM26.4636 72.1V69.4814H23.6646L23.8508 72.2742L26.4636 72.1ZM29.1636 72.1L31.7558 71.7297L31.4347 69.4814H29.1636V72.1ZM30.6636 75.125L32.2462 73.0388L32.2405 73.0345L32.2347 73.0301L30.6636 75.125ZM37.2136 75.25L35.9298 72.9677L37.2136 75.25ZM36.7136 71.025L37.9053 68.6933L37.895 68.6881L37.8846 68.6829L36.7136 71.025ZM33.1636 69.825L32.3696 72.3203L32.386 72.3255L32.4024 72.3305L33.1636 69.825ZM29.0636 68.35L27.7163 70.5954L27.7624 70.6231L27.8097 70.6488L29.0636 68.35ZM28.9886 61.075L30.4599 63.2411L30.461 63.2404L28.9886 61.075ZM33.7136 59.8V62.4186C35.4702 62.4186 36.4474 62.7834 36.9963 63.2038L38.5886 61.125L40.1809 59.0462C38.3798 57.6666 36.107 57.1814 33.7136 57.1814V59.8ZM38.5886 61.125L37.0309 63.2299C37.5257 63.596 37.9781 64.2393 38.1055 65.6591L40.7136 65.425L43.3217 65.1909C43.0991 62.7107 42.1515 60.504 40.1462 59.0201L38.5886 61.125ZM40.7136 65.425V62.8064H38.0136V65.425V68.0436H40.7136V65.425ZM38.0136 65.425L40.5724 64.8687C40.2522 63.396 39.5774 61.824 38.1356 60.7942L36.6136 62.925L35.0916 65.0558C35.0498 65.026 35.2749 65.154 35.4548 65.9813L38.0136 65.425ZM36.6136 62.925L38.1847 60.8301C36.8382 59.8203 35.1784 59.5314 33.5636 59.5314V62.15V64.7686C34.6487 64.7686 34.9889 64.9797 35.0424 65.0199L36.6136 62.925ZM33.5636 62.15V59.5314C32.196 59.5314 30.7748 59.7235 29.5841 60.3903L30.8636 62.675L32.143 64.9597C32.2024 64.9265 32.5811 64.7686 33.5636 64.7686V62.15ZM30.8636 62.675L29.6626 60.3481C28.9009 60.7412 28.2157 61.3254 27.7392 62.1377C27.2677 62.9415 27.095 63.8076 27.095 64.625H29.7136H32.3322C32.3322 64.5424 32.3469 64.6335 32.2567 64.7873C32.2146 64.8591 32.1651 64.9169 32.1199 64.958C32.0767 64.9975 32.0516 65.0086 32.0646 65.0019L30.8636 62.675ZM29.7136 64.625H27.095C27.095 65.5218 27.3439 66.4058 27.8864 67.1885C28.4079 67.9409 29.1074 68.4667 29.8163 68.8408L31.0386 66.525L32.2608 64.2092C32.0697 64.1083 32.1068 64.0841 32.1908 64.2052C32.234 64.2676 32.274 64.3469 32.3008 64.4356C32.3272 64.5228 32.3322 64.5906 32.3322 64.625H29.7136ZM31.0386 66.525L29.7548 68.8073C30.4552 69.2013 31.7734 69.6517 33.3896 70.1342L34.1386 67.625L34.8876 65.1158C34.0774 64.874 33.4497 64.6698 32.9921 64.5062C32.4899 64.3266 32.3144 64.2383 32.3224 64.2427L31.0386 66.525ZM34.1386 67.625L33.3575 70.1244C35.8474 70.9025 37.0834 71.388 37.4546 71.6133L38.8136 69.375L40.1726 67.1367C39.1437 66.512 37.2297 65.8475 34.9196 65.1256L34.1386 67.625ZM38.8136 69.375L37.4555 71.6139C38.2949 72.123 38.495 72.5983 38.495 73.225H41.1136H43.7322C43.7322 70.5517 42.3822 68.477 40.1716 67.1361L38.8136 69.375ZM41.1136 73.225H38.495C38.495 74.0153 38.2473 74.4759 37.6809 74.8951L39.2386 77L40.7962 79.1049C42.7298 77.6741 43.7322 75.6347 43.7322 73.225H41.1136ZM39.2386 77L37.7085 74.8749C37.0669 75.3369 35.9313 75.7314 33.9886 75.7314V78.35V80.9686C36.5459 80.9686 38.9103 80.4631 40.7686 79.1251L39.2386 77ZM33.9886 78.35V75.7314C32.1437 75.7314 31.0262 75.346 30.3814 74.8986L28.8886 77.05L27.3958 79.2014C29.2009 80.454 31.4835 80.9686 33.9886 80.9686V78.35ZM28.8886 77.05L30.4072 74.9167C29.735 74.4382 29.189 73.6153 29.0764 71.9258L26.4636 72.1L23.8508 72.2742C24.0382 75.0847 25.0922 77.5618 27.37 79.1833L28.8886 77.05ZM26.4636 72.1V74.7186H29.1636V72.1V69.4814H26.4636V72.1ZM29.1636 72.1L26.5713 72.4703C26.8253 74.2482 27.5286 76.047 29.0924 77.2199L30.6636 75.125L32.2347 73.0301C32.1985 73.003 31.9019 72.7518 31.7558 71.7297L29.1636 72.1ZM30.6636 75.125L29.0809 77.2112C30.4698 78.2648 32.2503 78.5686 33.9886 78.5686V75.95V73.3314C32.7268 73.3314 32.3074 73.0852 32.2462 73.0388L30.6636 75.125ZM33.9886 75.95V78.5686C35.6381 78.5686 37.1925 78.2663 38.4974 77.5323L37.2136 75.25L35.9298 72.9677C35.6346 73.1337 35.0391 73.3314 33.9886 73.3314V75.95ZM37.2136 75.25L38.4974 77.5323C39.9757 76.7007 41.0322 75.2777 41.0322 73.375H38.4136H35.795C35.795 73.355 35.7978 73.3045 35.8174 73.2345C35.8375 73.163 35.869 73.0931 35.908 73.0322C35.9878 72.9075 36.0431 72.904 35.9298 72.9677L37.2136 75.25ZM38.4136 73.375H41.0322C41.0322 71.0853 39.5952 69.5571 37.9053 68.6933L36.7136 71.025L35.5218 73.3567C35.8339 73.5162 35.8926 73.6149 35.8684 73.5818C35.8538 73.5617 35.8306 73.5221 35.8133 73.4685C35.7963 73.4155 35.795 73.3796 35.795 73.375H38.4136ZM36.7136 71.025L37.8846 68.6829C37.2391 68.3601 35.8086 67.8918 33.9247 67.3195L33.1636 69.825L32.4024 72.3305C33.377 72.6266 34.1354 72.8677 34.6893 73.0552C34.9666 73.1491 35.1802 73.2254 35.3373 73.2851C35.5098 73.3508 35.5612 73.3765 35.5425 73.3671L36.7136 71.025ZM33.1636 69.825L33.9575 67.3297C32.8676 66.9829 32.0146 66.7001 31.377 66.472C31.0586 66.3581 30.8093 66.2632 30.6199 66.1856C30.5259 66.1471 30.4536 66.1156 30.3996 66.0908C30.3729 66.0786 30.3528 66.069 30.3384 66.0618C30.3238 66.0546 30.3173 66.0511 30.3175 66.0512L29.0636 68.35L27.8097 70.6488C28.6334 71.0981 30.274 71.6535 32.3696 72.3203L33.1636 69.825ZM29.0636 68.35L30.4108 66.1046C29.8128 65.7458 29.6322 65.3916 29.6322 64.775H27.0136H24.395C24.395 67.2584 25.5643 69.3042 27.7163 70.5954L29.0636 68.35ZM27.0136 64.775H29.6322C29.6322 64.0779 29.8439 63.6595 30.4599 63.2411L28.9886 61.075L27.5172 58.9089C25.4832 60.2905 24.395 62.3221 24.395 64.775H27.0136ZM28.9886 61.075L30.461 63.2404C31.177 62.7535 32.2035 62.4186 33.7136 62.4186V59.8V57.1814C31.4236 57.1814 29.3001 57.6965 27.5161 58.9096L28.9886 61.075ZM51.8251 60.9H54.4437V56.9778L50.8212 58.4815L51.8251 60.9ZM51.8251 65.075H49.2065V67.6936H51.8251V65.075ZM54.7751 65.075H57.3937V62.4564H54.7751V65.075ZM54.7751 67.275V69.8936H57.3937V67.275H54.7751ZM51.8251 67.275V64.6564H49.2065V67.275H51.8251ZM52.0501 75.55L50.0619 77.2542L50.1274 77.3305L50.1985 77.4016L52.0501 75.55ZM54.4501 75.8H57.0687V73.1814H54.4501V75.8ZM54.4501 78V80.6186H57.0687V78H54.4501ZM49.9001 77.125L51.8761 75.4067L51.8571 75.3849L51.8377 75.3636L49.9001 77.125ZM49.1751 67.275H51.7937V64.6564H49.1751V67.275ZM46.7751 67.275H44.1565V69.8936H46.7751V67.275ZM46.7751 65.075V62.4564H44.1565V65.075H46.7751ZM49.1751 65.075V67.6936H51.7937V65.075H49.1751ZM49.1751 62L48.1712 59.5815L46.5565 60.2517V62H49.1751ZM51.8251 60.9H49.2065V65.075H51.8251H54.4437V60.9H51.8251ZM51.8251 65.075V67.6936H54.7751V65.075V62.4564H51.8251V65.075ZM54.7751 65.075H52.1565V67.275H54.7751H57.3937V65.075H54.7751ZM54.7751 67.275V64.6564H51.8251V67.275V69.8936H54.7751V67.275ZM51.8251 67.275H49.2065V74.775H51.8251H54.4437V67.275H51.8251ZM51.8251 74.775H49.2065C49.2065 75.4669 49.3525 76.4265 50.0619 77.2542L52.0501 75.55L54.0383 73.8458C54.2338 74.074 54.3409 74.3094 54.3945 74.4926C54.4442 74.6624 54.4437 74.7711 54.4437 74.775H51.8251ZM52.0501 75.55L50.1985 77.4016C50.9192 78.1223 51.852 78.4186 52.7501 78.4186V75.8V73.1814C52.8565 73.1814 53.0392 73.1981 53.2612 73.2821C53.4895 73.3685 53.7118 73.5085 53.9017 73.6984L52.0501 75.55ZM52.7501 75.8V78.4186H54.4501V75.8V73.1814H52.7501V75.8ZM54.4501 75.8H51.8315V78H54.4501H57.0687V75.8H54.4501ZM54.4501 78V75.3814H52.3251V78V80.6186H54.4501V78ZM52.3251 78V75.3814C52.0039 75.3814 51.836 75.3365 51.7779 75.3155C51.7321 75.299 51.795 75.3134 51.8761 75.4067L49.9001 77.125L47.9241 78.8433C49.1062 80.2027 50.8035 80.6186 52.3251 80.6186V78ZM49.9001 77.125L51.8377 75.3636C51.8795 75.4095 51.8755 75.4323 51.8555 75.3665C51.8309 75.2858 51.7937 75.1048 51.7937 74.775H49.1751H46.5565C46.5565 76.1491 46.8564 77.6697 47.9625 78.8864L49.9001 77.125ZM49.1751 74.775H51.7937V67.275H49.1751H46.5565V74.775H49.1751ZM49.1751 67.275V64.6564H46.7751V67.275V69.8936H49.1751V67.275ZM46.7751 67.275H49.3937V65.075H46.7751H44.1565V67.275H46.7751ZM46.7751 65.075V67.6936H49.1751V65.075V62.4564H46.7751V65.075ZM49.1751 65.075H51.7937V62H49.1751H46.5565V65.075H49.1751ZM49.1751 62L50.179 64.4185L52.829 63.3185L51.8251 60.9L50.8212 58.4815L48.1712 59.5815L49.1751 62ZM64.6089 60.4L62.7573 62.2516L62.7915 62.2859L62.8271 62.3189L64.6089 60.4ZM64.5839 62.975L66.3657 64.8939L66.4012 64.8609L66.4355 64.8266L64.5839 62.975ZM61.9839 62.975L60.1323 64.8266L60.1665 64.8609L60.2021 64.8939L61.9839 62.975ZM61.9839 60.4L63.7657 62.3189L63.8012 62.2859L63.8355 62.2516L61.9839 60.4ZM61.9589 65.075V62.4564H59.3403V65.075H61.9589ZM64.6089 65.075H67.2275V62.4564H64.6089V65.075ZM64.6089 78V80.6186H67.2275V78H64.6089ZM61.9589 78H59.3403V80.6186H61.9589V78ZM63.2839 59.9V62.5186C63.2989 62.5186 63.2293 62.5208 63.1116 62.4776C62.9836 62.4308 62.8571 62.3514 62.7573 62.2516L64.6089 60.4L66.4605 58.5484C65.5137 57.6016 64.338 57.2814 63.2839 57.2814V59.9ZM64.6089 60.4L62.8271 62.3189C62.7359 62.2343 62.6435 62.1107 62.5813 61.9595C62.5214 61.814 62.5153 61.7062 62.5153 61.675H65.1339H67.7525C67.7525 60.5022 67.3304 59.3537 66.3907 58.4811L64.6089 60.4ZM65.1339 61.675H62.5153C62.5153 61.5945 62.5329 61.475 62.5887 61.3465C62.6426 61.2225 62.7065 61.1492 62.7323 61.1234L64.5839 62.975L66.4355 64.8266C67.229 64.0331 67.7525 62.959 67.7525 61.675H65.1339ZM64.5839 62.975L62.8021 61.0561C62.8683 60.9946 62.9524 60.9405 63.0478 60.9037C63.1425 60.8672 63.2257 60.8564 63.2839 60.8564V63.475V66.0936C64.4219 66.0936 65.5148 65.684 66.3657 64.8939L64.5839 62.975ZM63.2839 63.475V60.8564C63.3186 60.8564 63.4079 60.8635 63.5225 60.9083C63.6375 60.9534 63.7201 61.0138 63.7657 61.0561L61.9839 62.975L60.2021 64.8939C61.0397 65.6717 62.1024 66.0936 63.2839 66.0936V63.475ZM61.9839 62.975L63.8355 61.1234C63.9077 61.1956 63.9754 61.2936 64.0214 61.4087C64.0666 61.5217 64.0775 61.6169 64.0775 61.675H61.4589H58.8403C58.8403 62.8227 59.2591 63.9534 60.1323 64.8266L61.9839 62.975ZM61.4589 61.675H64.0775C64.0775 61.7062 64.0714 61.814 64.0115 61.9595C63.9492 62.1107 63.8568 62.2343 63.7657 62.3189L61.9839 60.4L60.2021 58.4811C59.2623 59.3537 58.8403 60.5022 58.8403 61.675H61.4589ZM61.9839 60.4L63.8355 62.2516C63.7572 62.33 63.6374 62.4142 63.4916 62.4691C63.3562 62.5202 63.271 62.5186 63.2839 62.5186V59.9V57.2814C62.1914 57.2814 61.0564 57.6243 60.1323 58.5484L61.9839 60.4ZM61.9589 65.075V67.6936H64.6089V65.075V62.4564H61.9589V65.075ZM64.6089 65.075H61.9903V78H64.6089H67.2275V65.075H64.6089ZM64.6089 78V75.3814H61.9589V78V80.6186H64.6089V78ZM61.9589 78H64.5775V65.075H61.9589H59.3403V78H61.9589ZM82.421 65.85L84.0568 63.8052L84.0249 63.7797L83.9921 63.7551L82.421 65.85ZM84.321 69.45V72.0686H87.3805L86.9082 69.0458L84.321 69.45ZM81.696 69.45L79.1283 69.9635L79.5493 72.0686H81.696V69.45ZM80.621 67.525L79.0199 69.597L79.05 69.6203L79.0808 69.6427L80.621 67.525ZM75.871 68.125L77.9033 69.7763L77.9314 69.7417L77.9582 69.7062L75.871 68.125ZM75.846 74.95L77.9723 73.4217L77.9531 73.395L77.9332 73.3687L75.846 74.95ZM81.746 73.225V70.6064H79.4417L79.1487 72.892L81.746 73.225ZM84.371 73.225L86.9509 73.6737L87.4843 70.6064H84.371V73.225ZM82.396 77.1L84.0624 79.1199L84.0773 79.1077L84.0919 79.0952L82.396 77.1ZM73.796 76.4L75.795 74.7085L75.7882 74.7005L75.7814 74.6926L73.796 76.4ZM73.771 66.75L75.7761 68.4343L75.7826 68.4264L73.771 66.75ZM78.446 64.725V67.3436C79.7101 67.3436 80.429 67.6292 80.8498 67.9449L82.421 65.85L83.9921 63.7551C82.413 62.5708 80.4819 62.1064 78.446 62.1064V64.725ZM82.421 65.85L80.7852 67.8948C81.1707 68.2032 81.5623 68.7566 81.7338 69.8542L84.321 69.45L86.9082 69.0458C86.5797 66.9434 85.6713 65.0968 84.0568 63.8052L82.421 65.85ZM84.321 69.45V66.8314H81.696V69.45V72.0686H84.321V69.45ZM81.696 69.45L84.2637 68.9365C84.0108 67.6721 83.4216 66.3239 82.1612 65.4073L80.621 67.525L79.0808 69.6427C79.0129 69.5933 78.9939 69.5519 79.008 69.5773C79.0275 69.6127 79.0809 69.7266 79.1283 69.9635L81.696 69.45ZM80.621 67.525L82.2221 65.453C81.0739 64.5657 79.72 64.2814 78.446 64.2814V66.9V69.5186C78.972 69.5186 79.068 69.6343 79.0199 69.597L80.621 67.525ZM78.446 66.9V64.2814C76.5986 64.2814 74.9459 65.0097 73.7837 66.5437L75.871 68.125L77.9582 69.7062C78.0402 69.5981 78.0881 69.5759 78.1028 69.5689C78.1244 69.5587 78.2174 69.5186 78.446 69.5186V66.9ZM75.871 68.125L73.8387 66.4737C72.6565 67.9288 72.3024 69.7718 72.3024 71.525H74.921H77.5396C77.5396 70.3782 77.7855 69.9212 77.9033 69.7763L75.871 68.125ZM74.921 71.525H72.3024C72.3024 73.2943 72.6629 75.0848 73.7587 76.5312L75.846 74.95L77.9332 73.3687C77.7791 73.1652 77.5396 72.6557 77.5396 71.525H74.921ZM75.846 74.95L73.7197 76.4783C74.8422 78.0401 76.5279 78.7936 78.421 78.7936V76.175V73.5564C78.171 73.5564 78.071 73.5114 78.0544 73.5034C78.0435 73.4982 78.0367 73.4936 78.029 73.487C78.0208 73.48 78.001 73.4615 77.9723 73.4217L75.846 74.95ZM78.421 76.175V78.7936C79.8439 78.7936 81.306 78.4276 82.4742 77.3847C83.6366 76.3471 84.1655 74.9447 84.3433 73.558L81.746 73.225L79.1487 72.892C79.0764 73.4553 78.9304 73.5279 78.9866 73.4778C79.0485 73.4224 78.9731 73.5564 78.421 73.5564V76.175ZM81.746 73.225V75.8436H84.371V73.225V70.6064H81.746V73.225ZM84.371 73.225L81.7911 72.7763C81.5649 74.0772 81.112 74.7547 80.7001 75.1048L82.396 77.1L84.0919 79.0952C85.68 77.7453 86.5771 75.8228 86.9509 73.6737L84.371 73.225ZM82.396 77.1L80.7296 75.0801C80.3105 75.4258 79.6006 75.7314 78.396 75.7314V78.35V80.9686C80.4914 80.9686 82.4815 80.4242 84.0624 79.1199L82.396 77.1ZM78.396 78.35V75.7314C77.0604 75.7314 76.3187 75.3275 75.795 74.7085L73.796 76.4L71.797 78.0915C73.4733 80.0725 75.7815 80.9686 78.396 80.9686V78.35ZM73.796 76.4L75.7814 74.6926C75.2 74.0166 74.8146 73.0676 74.8146 71.55H72.196H69.5774C69.5774 74.0324 70.242 76.2834 71.8106 78.1074L73.796 76.4ZM72.196 71.55H74.8146C74.8146 70.0909 75.196 69.1247 75.7761 68.4342L73.771 66.75L71.7659 65.0657C70.2459 66.8753 69.5774 69.1091 69.5774 71.55H72.196ZM73.771 66.75L75.7826 68.4264C76.3413 67.756 77.1088 67.3436 78.446 67.3436V64.725V62.1064C75.7832 62.1064 73.4507 63.044 71.7593 65.0736L73.771 66.75ZM91.1364 59.8V57.1814H88.5178V59.8H91.1364ZM93.7864 59.8H96.405V57.1814H93.7864V59.8ZM93.7864 70.4H91.1678V76.5034L95.5909 72.2976L93.7864 70.4ZM99.3864 65.075V62.4564H98.3402L97.582 63.1774L99.3864 65.075ZM102.811 65.075L104.595 66.9924L109.472 62.4564H102.811V65.075ZM97.0864 70.4L95.303 68.4826L93.5027 70.1572L95.0606 72.0593L97.0864 70.4ZM103.311 78V80.6186H108.841L105.337 76.3407L103.311 78ZM99.9114 78L97.8548 79.6209L98.6411 80.6186H99.9114V78ZM95.2614 72.1L97.318 70.4791L95.5569 68.2446L93.4759 70.1846L95.2614 72.1ZM93.7864 73.475L92.0009 71.5596L91.1678 72.3361V73.475H93.7864ZM93.7864 78V80.6186H96.405V78H93.7864ZM91.1364 78H88.5178V80.6186H91.1364V78ZM91.1364 59.8V62.4186H93.7864V59.8V57.1814H91.1364V59.8ZM93.7864 59.8H91.1678V70.4H93.7864H96.405V59.8H93.7864ZM93.7864 70.4L95.5909 72.2976L101.191 66.9726L99.3864 65.075L97.582 63.1774L91.982 68.5024L93.7864 70.4ZM99.3864 65.075V67.6936H102.811V65.075V62.4564H99.3864V65.075ZM102.811 65.075L101.028 63.1576L95.303 68.4826L97.0864 70.4L98.8698 72.3174L104.595 66.9924L102.811 65.075ZM97.0864 70.4L95.0606 72.0593L101.286 79.6593L103.311 78L105.337 76.3407L99.1122 68.7407L97.0864 70.4ZM103.311 78V75.3814H99.9114V78V80.6186H103.311V78ZM99.9114 78L101.968 76.3791L97.318 70.4791L95.2614 72.1L93.2048 73.7209L97.8548 79.6209L99.9114 78ZM95.2614 72.1L93.4759 70.1846L92.0009 71.5596L93.7864 73.475L95.572 75.3904L97.047 74.0154L95.2614 72.1ZM93.7864 73.475H91.1678V78H93.7864H96.405V73.475H93.7864ZM93.7864 78V75.3814H91.1364V78V80.6186H93.7864V78ZM91.1364 78H93.755V59.8H91.1364H88.5178V78H91.1364ZM119.608 66.875L117.522 68.4576L117.527 68.4646L117.533 68.4716L119.608 66.875ZM121.158 72.275V74.8936H123.805L123.777 72.2465L121.158 72.275ZM111.358 72.275V69.6564H108.522L108.748 72.4838L111.358 72.275ZM112.383 75.175L110.426 76.9147L110.442 76.9331L110.459 76.9511L112.383 75.175ZM117.108 75.525L118.665 77.6308L118.691 77.6117L118.716 77.592L117.108 75.525ZM118.283 73.85V71.2314H116.616L115.91 72.7426L118.283 73.85ZM120.933 73.85L123.474 74.4851L124.287 71.2314H120.933V73.85ZM119.158 76.875L120.873 78.8538L120.886 78.8431L120.898 78.8322L119.158 76.875ZM110.358 76.575L112.27 74.7854L112.259 74.7734L112.247 74.7615L110.358 76.575ZM110.258 66.7L112.22 68.435L112.247 68.4042L112.273 68.3726L110.258 66.7ZM112.483 67.775L110.632 65.9234L110.611 65.944L110.591 65.965L112.483 67.775ZM111.408 70.275L108.814 69.9212L108.408 72.8936H111.408V70.275ZM118.383 70.275V72.8936H121.309L120.986 69.9858L118.383 70.275ZM114.783 64.725V67.3436C116.247 67.3436 117.018 67.7932 117.522 68.4576L119.608 66.875L121.694 65.2924C119.999 63.0568 117.52 62.1064 114.783 62.1064V64.725ZM119.608 66.875L117.533 68.4716C118.078 69.18 118.519 70.362 118.54 72.3035L121.158 72.275L123.777 72.2465C123.748 69.588 123.139 67.17 121.684 65.2784L119.608 66.875ZM121.158 72.275V69.6564H111.358V72.275V74.8936H121.158V72.275ZM111.358 72.275L108.748 72.4838C108.871 74.0268 109.298 75.646 110.426 76.9147L112.383 75.175L114.34 73.4353C114.268 73.354 114.045 73.0232 113.969 72.0662L111.358 72.275ZM112.383 75.175L110.459 76.9511C111.616 78.2045 113.173 78.7936 114.858 78.7936V76.175V73.5564C114.626 73.5564 114.5 73.5184 114.444 73.4951C114.392 73.4742 114.353 73.448 114.307 73.3989L112.383 75.175ZM114.858 76.175V78.7936C116.21 78.7936 117.543 78.4602 118.665 77.6308L117.108 75.525L115.552 73.4192C115.524 73.4398 115.356 73.5564 114.858 73.5564V76.175ZM117.108 75.525L118.716 77.592C119.663 76.8555 120.252 75.8228 120.656 74.9574L118.283 73.85L115.91 72.7426C115.775 73.0326 115.663 73.2267 115.577 73.352C115.49 73.4779 115.459 73.4901 115.501 73.458L117.108 75.525ZM118.283 73.85V76.4686H120.933V73.85V71.2314H118.283V73.85ZM120.933 73.85L118.393 73.2149C118.204 73.9724 117.875 74.5122 117.419 74.9178L119.158 76.875L120.898 78.8322C122.242 77.6378 123.063 76.1276 123.474 74.4851L120.933 73.85ZM119.158 76.875L117.443 74.8962C116.858 75.403 116.069 75.7314 114.883 75.7314V78.35V80.9686C117.148 80.9686 119.208 80.297 120.873 78.8538L119.158 76.875ZM114.883 78.35V75.7314C113.569 75.7314 112.787 75.338 112.27 74.7854L110.358 76.575L108.447 78.3646C110.129 80.162 112.398 80.9686 114.883 80.9686V78.35ZM110.358 76.575L112.247 74.7615C111.614 74.1017 111.177 73.1308 111.177 71.525H108.558H105.94C105.94 74.1692 106.703 76.5483 108.469 78.3885L110.358 76.575ZM108.558 71.525H111.177C111.177 70.1417 111.554 69.1879 112.22 68.435L110.258 66.7L108.297 64.965C106.663 66.8121 105.94 69.0583 105.94 71.525H108.558ZM110.258 66.7L112.273 68.3726C112.805 67.7319 113.544 67.3436 114.783 67.3436V64.725V62.1064C112.222 62.1064 109.912 63.0181 108.244 65.0274L110.258 66.7ZM114.858 66.9V64.2814C113.333 64.2814 111.831 64.7242 110.632 65.9234L112.483 67.775L114.335 69.6266C114.366 69.5959 114.384 69.585 114.419 69.5723C114.467 69.5548 114.596 69.5186 114.858 69.5186V66.9ZM112.483 67.775L110.591 65.965C109.568 67.0343 109.018 68.4206 108.814 69.9212L111.408 70.275L114.003 70.6288C114.098 69.9294 114.298 69.6657 114.376 69.585L112.483 67.775ZM111.408 70.275V72.8936H118.383V70.275V67.6564H111.408V70.275ZM118.383 70.275L120.986 69.9858C120.819 68.4874 120.303 66.9795 119.125 65.8523C117.921 64.6991 116.379 64.2814 114.858 64.2814V66.9V69.5186C115.153 69.5186 115.325 69.5585 115.409 69.5875C115.483 69.613 115.501 69.6329 115.504 69.6352C115.509 69.6402 115.553 69.6826 115.61 69.817C115.67 69.9589 115.74 70.1961 115.781 70.5642L118.383 70.275ZM135.595 65.05H138.213V63.4316L136.766 62.7079L135.595 65.05ZM135.595 67.7L134.825 70.2028L138.213 71.2454V67.7H135.595ZM131.57 68.4L133.455 70.2177L133.457 70.215L131.57 68.4ZM130.57 78V80.6186H133.188V78H130.57ZM127.92 78H125.301V80.6186H127.92V78ZM127.92 65.075V62.4564H125.301V65.075H127.92ZM130.57 65.075H133.188V62.4564H130.57V65.075ZM130.57 67.025H127.951L132.945 68.1277L130.57 67.025ZM131.82 65.45L133.321 67.5952L133.411 67.5321L133.496 67.4616L131.82 65.45ZM133.92 64.725V67.3436C134.114 67.3436 134.254 67.3589 134.346 67.3762C134.439 67.3937 134.456 67.4083 134.424 67.3921L135.595 65.05L136.766 62.7079C135.821 62.2356 134.799 62.1064 133.92 62.1064V64.725ZM135.595 65.05H132.976V67.7H135.595H138.213V65.05H135.595ZM135.595 67.7L136.365 65.1972C135.432 64.9103 134.544 64.8064 133.72 64.8064V67.425V70.0436C134.096 70.0436 134.457 70.0897 134.825 70.2028L135.595 67.7ZM133.72 67.425V64.8064C132.125 64.8064 130.741 65.4838 129.682 66.585L131.57 68.4L133.457 70.215C133.569 70.0989 133.639 70.0634 133.658 70.0547C133.672 70.0484 133.685 70.0436 133.72 70.0436V67.425ZM131.57 68.4L129.685 66.5823C128.445 67.8675 127.951 69.495 127.951 71.15H130.57H133.188C133.188 70.555 133.344 70.3325 133.455 70.2177L131.57 68.4ZM130.57 71.15H127.951V78H130.57H133.188V71.15H130.57ZM130.57 78V75.3814H127.92V78V80.6186H130.57V78ZM127.92 78H130.538V65.075H127.92H125.301V78H127.92ZM127.92 65.075V67.6936H130.57V65.075V62.4564H127.92V65.075ZM130.57 65.075H127.951V67.025H130.57H133.188V65.075H130.57ZM130.57 67.025L132.945 68.1277C133.114 67.7636 133.267 67.633 133.321 67.5952L131.82 65.45L130.318 63.3048C129.372 63.967 128.675 64.8864 128.195 65.9223L130.57 67.025ZM131.82 65.45L133.496 67.4616C133.569 67.4007 133.655 67.3436 133.92 67.3436V64.725V62.1064C132.584 62.1064 131.27 62.4993 130.143 63.4383L131.82 65.45ZM44.2699 89.58V86.9614H41.6513V89.58H44.2699ZM46.3299 89.58H48.9485V86.9614H46.3299V89.58ZM46.3299 92.98H43.7113V95.5986H46.3299V92.98ZM50.6499 92.98H53.2685V90.3614H50.6499V92.98ZM50.6499 94.94V97.5586H53.2685V94.94H50.6499ZM46.3299 94.94V92.3214H43.7113V94.94H46.3299ZM46.3299 98.26H43.7113V100.879H46.3299V98.26ZM49.9499 98.26H52.5685V95.6414H49.9499V98.26ZM49.9499 108.02V110.639H52.5685V108.02H49.9499ZM47.9499 108.02H45.3313V110.639H47.9499V108.02ZM47.9499 107.32H50.5685V104.701H47.9499V107.32ZM43.5299 107.32V104.701H40.9113V107.32H43.5299ZM43.5299 108.02V110.639H46.1485V108.02H43.5299ZM41.5899 108.02H38.9713V110.639H41.5899V108.02ZM41.5899 98.26V95.6414H38.9713V98.26H41.5899ZM44.2699 98.26V100.879H46.8885V98.26H44.2699ZM43.5299 105.36H40.9113V107.979H43.5299V105.36ZM47.9499 105.36V107.979H50.5685V105.36H47.9499ZM47.9499 100.2H50.5685V97.5814H47.9499V100.2ZM43.5299 100.2V97.5814H40.9113V100.2H43.5299ZM40.5299 90.2H43.1485V87.5814H40.5299V90.2ZM40.5299 103.02V105.639H43.1485V103.02H40.5299ZM38.6899 103.02H36.0713V105.639H38.6899V103.02ZM38.6899 92.12H41.3085V89.5014H38.6899V92.12ZM34.7699 92.12V89.5014H32.1513V92.12H34.7699ZM34.7699 103.02V105.639H37.3885V103.02H34.7699ZM32.8899 103.02H30.2713V105.639H32.8899V103.02ZM32.8899 90.2V87.5814H30.2713V90.2H32.8899ZM35.8099 93.3V90.6814H33.1913V93.3H35.8099ZM37.6099 93.3H40.2285V90.6814H37.6099V93.3ZM37.6099 99.86L40.2268 99.9535L40.2285 99.9067V99.86H37.6099ZM36.5299 105.24L38.8568 106.441L38.8754 106.405L38.8928 106.369L36.5299 105.24ZM33.4099 108.12L31.2121 109.544L32.4572 111.466L34.5281 110.488L33.4099 108.12ZM32.2699 106.36L31.1267 104.004L28.4618 105.297L30.0721 107.784L32.2699 106.36ZM35.0299 103.94L37.3721 105.111L37.4038 105.048L37.4321 104.982L35.0299 103.94ZM35.8099 99.86L38.4268 99.9546L38.4285 99.9073V99.86H35.8099ZM38.3299 103.48L40.1815 101.628L38.3712 99.8181L36.5205 101.587L38.3299 103.48ZM40.9499 106.48L42.7892 108.344L44.4004 106.754L43.0602 104.93L40.9499 106.48ZM39.4299 107.98L37.1648 109.294L38.8618 112.22L41.2692 109.844L39.4299 107.98ZM36.9699 104.78L35.1605 102.887L33.2936 104.672L35.0522 106.563L36.9699 104.78ZM44.2699 89.58V92.1986H46.3299V89.58V86.9614H44.2699V89.58ZM46.3299 89.58H43.7113V92.98H46.3299H48.9485V89.58H46.3299ZM46.3299 92.98V95.5986H50.6499V92.98V90.3614H46.3299V92.98ZM50.6499 92.98H48.0313V94.94H50.6499H53.2685V92.98H50.6499ZM50.6499 94.94V92.3214H46.3299V94.94V97.5586H50.6499V94.94ZM46.3299 94.94H43.7113V98.26H46.3299H48.9485V94.94H46.3299ZM46.3299 98.26V100.879H49.9499V98.26V95.6414H46.3299V98.26ZM49.9499 98.26H47.3313V108.02H49.9499H52.5685V98.26H49.9499ZM49.9499 108.02V105.401H47.9499V108.02V110.639H49.9499V108.02ZM47.9499 108.02H50.5685V107.32H47.9499H45.3313V108.02H47.9499ZM47.9499 107.32V104.701H43.5299V107.32V109.939H47.9499V107.32ZM43.5299 107.32H40.9113V108.02H43.5299H46.1485V107.32H43.5299ZM43.5299 108.02V105.401H41.5899V108.02V110.639H43.5299V108.02ZM41.5899 108.02H44.2085V98.26H41.5899H38.9713V108.02H41.5899ZM41.5899 98.26V100.879H44.2699V98.26V95.6414H41.5899V98.26ZM44.2699 98.26H46.8885V89.58H44.2699H41.6513V98.26H44.2699ZM43.5299 105.36V107.979H47.9499V105.36V102.741H43.5299V105.36ZM47.9499 105.36H50.5685V100.2H47.9499H45.3313V105.36H47.9499ZM47.9499 100.2V97.5814H43.5299V100.2V102.819H47.9499V100.2ZM43.5299 100.2H40.9113V105.36H43.5299H46.1485V100.2H43.5299ZM40.5299 90.2H37.9113V103.02H40.5299H43.1485V90.2H40.5299ZM40.5299 103.02V100.401H38.6899V103.02V105.639H40.5299V103.02ZM38.6899 103.02H41.3085V92.12H38.6899H36.0713V103.02H38.6899ZM38.6899 92.12V89.5014H34.7699V92.12V94.7386H38.6899V92.12ZM34.7699 92.12H32.1513V103.02H34.7699H37.3885V92.12H34.7699ZM34.7699 103.02V100.401H32.8899V103.02V105.639H34.7699V103.02ZM32.8899 103.02H35.5085V90.2H32.8899H30.2713V103.02H32.8899ZM32.8899 90.2V92.8186H40.5299V90.2V87.5814H32.8899V90.2ZM35.8099 93.3V95.9186H37.6099V93.3V90.6814H35.8099V93.3ZM37.6099 93.3H34.9913V99.86H37.6099H40.2285V93.3H37.6099ZM37.6099 99.86L34.993 99.7665C34.9198 101.816 34.5934 103.219 34.167 104.111L36.5299 105.24L38.8928 106.369C39.7464 104.581 40.14 102.384 40.2268 99.9535L37.6099 99.86ZM36.5299 105.24L34.203 104.039C33.8633 104.697 33.2885 105.281 32.2918 105.752L33.4099 108.12L34.5281 110.488C36.4113 109.599 37.9165 108.263 38.8568 106.441L36.5299 105.24ZM33.4099 108.12L35.6077 106.696L34.4677 104.936L32.2699 106.36L30.0721 107.784L31.2121 109.544L33.4099 108.12ZM32.2699 106.36L33.4132 108.716C35.0734 107.91 36.5429 106.769 37.3721 105.111L35.0299 103.94L32.6878 102.769C32.557 103.031 32.1864 103.49 31.1267 104.004L32.2699 106.36ZM35.0299 103.94L37.4321 104.982C38.0658 103.522 38.3597 101.81 38.4268 99.9546L35.8099 99.86L33.193 99.7654C33.1401 101.23 32.9141 102.238 32.6278 102.898L35.0299 103.94ZM35.8099 99.86H38.4285V93.3H35.8099H33.1913V99.86H35.8099ZM38.3299 103.48L36.4783 105.332C37.4291 106.282 38.2163 107.182 38.8397 108.03L40.9499 106.48L43.0602 104.93C42.2436 103.818 41.2708 102.718 40.1815 101.628L38.3299 103.48ZM40.9499 106.48L39.1106 104.616L37.5906 106.116L39.4299 107.98L41.2692 109.844L42.7892 108.344L40.9499 106.48ZM39.4299 107.98L41.6951 106.666C40.9867 105.445 40.0317 104.227 38.8876 102.997L36.9699 104.78L35.0522 106.563C36.0281 107.613 36.7131 108.515 37.1648 109.294L39.4299 107.98ZM36.9699 104.78L38.7793 106.673L40.1393 105.373L38.3299 103.48L36.5205 101.587L35.1605 102.887L36.9699 104.78ZM62.1699 98.66V96.0414H59.5513V98.66H62.1699ZM66.4699 98.66V101.279H69.0885V98.66H66.4699ZM66.4699 95.22V92.6014H63.8513V95.22H66.4699ZM68.5899 95.22H71.2085V92.6014H68.5899V95.22ZM68.5899 98.66H65.9713V101.279H68.5899V98.66ZM73.1699 98.66H75.7885V96.0414H73.1699V98.66ZM73.1699 100.7V103.319H75.7885V100.7H73.1699ZM68.5899 100.7V98.0814H65.9713V100.7H68.5899ZM68.5899 105.38H65.9713V107.999H68.5899V105.38ZM74.0299 105.38H76.6485V102.761H74.0299V105.38ZM74.0299 107.42V110.039H76.6485V107.42H74.0299ZM61.4499 107.42H58.8313V110.039H61.4499V107.42ZM61.4499 105.38V102.761H58.8313V105.38H61.4499ZM66.4699 105.38V107.999H69.0885V105.38H66.4699ZM66.4699 100.7H69.0885V98.0814H66.4699V100.7ZM62.1699 100.7H59.5513V103.319H62.1699V100.7ZM58.6699 100.66H61.2885V94.5031L56.8536 98.7738L58.6699 100.66ZM56.9899 102.18L54.9153 103.778L56.6037 105.97L58.6997 104.163L56.9899 102.18ZM55.6499 100.44L53.9771 98.4254L52.0352 100.038L53.5753 102.038L55.6499 100.44ZM61.0299 94.1L63.307 95.3929L65.528 91.4814H61.0299V94.1ZM56.3699 94.1H53.7513V96.7186H56.3699V94.1ZM56.3699 92.06V89.4414H53.7513V92.06H56.3699ZM62.0299 92.06V94.6786H63.7515L64.4339 93.0981L62.0299 92.06ZM63.0099 89.36L63.3229 86.7602L61.1438 86.4979L60.5048 88.5976L63.0099 89.36ZM65.1699 89.62L67.6878 90.3394L68.5312 87.3871L65.4829 87.0202L65.1699 89.62ZM64.3499 92.06L61.8981 91.1406L60.5713 94.6786H64.3499V92.06ZM74.0299 92.06H76.6485V89.4414H74.0299V92.06ZM74.0299 94.1V96.7186H76.6485V94.1H74.0299ZM63.4299 94.1V91.4814H61.8116L61.0878 92.9289L63.4299 94.1ZM60.7299 98.36L58.673 96.7394L58.1113 97.4524V98.36H60.7299ZM60.7299 108.14V110.759H63.3485V108.14H60.7299ZM58.6699 108.14H56.0513V110.759H58.6699V108.14ZM62.1699 98.66V101.279H66.4699V98.66V96.0414H62.1699V98.66ZM66.4699 98.66H69.0885V95.22H66.4699H63.8513V98.66H66.4699ZM66.4699 95.22V97.8386H68.5899V95.22V92.6014H66.4699V95.22ZM68.5899 95.22H65.9713V98.66H68.5899H71.2085V95.22H68.5899ZM68.5899 98.66V101.279H73.1699V98.66V96.0414H68.5899V98.66ZM73.1699 98.66H70.5513V100.7H73.1699H75.7885V98.66H73.1699ZM73.1699 100.7V98.0814H68.5899V100.7V103.319H73.1699V100.7ZM68.5899 100.7H65.9713V105.38H68.5899H71.2085V100.7H68.5899ZM68.5899 105.38V107.999H74.0299V105.38V102.761H68.5899V105.38ZM74.0299 105.38H71.4113V107.42H74.0299H76.6485V105.38H74.0299ZM74.0299 107.42V104.801H61.4499V107.42V110.039H74.0299V107.42ZM61.4499 107.42H64.0685V105.38H61.4499H58.8313V107.42H61.4499ZM61.4499 105.38V107.999H66.4699V105.38V102.761H61.4499V105.38ZM66.4699 105.38H69.0885V100.7H66.4699H63.8513V105.38H66.4699ZM66.4699 100.7V98.0814H62.1699V100.7V103.319H66.4699V100.7ZM62.1699 100.7H64.7885V98.66H62.1699H59.5513V100.7H62.1699ZM58.6699 100.66L56.8536 98.7738C56.36 99.249 55.8388 99.7151 55.2801 100.197L56.9899 102.18L58.6997 104.163C59.3011 103.645 59.8998 103.111 60.4863 102.546L58.6699 100.66ZM56.9899 102.18L59.0646 100.582L57.7246 98.8423L55.6499 100.44L53.5753 102.038L54.9153 103.778L56.9899 102.18ZM55.6499 100.44L57.3228 102.455C59.7877 100.408 61.7994 98.0481 63.307 95.3929L61.0299 94.1L58.7528 92.8071C57.5804 94.8719 55.9922 96.7522 53.9771 98.4254L55.6499 100.44ZM61.0299 94.1V91.4814H56.3699V94.1V96.7186H61.0299V94.1ZM56.3699 94.1H58.9885V92.06H56.3699H53.7513V94.1H56.3699ZM56.3699 92.06V94.6786H62.0299V92.06V89.4414H56.3699V92.06ZM62.0299 92.06L64.4339 93.0981C64.8594 92.1128 65.2118 91.1187 65.5151 90.1224L63.0099 89.36L60.5048 88.5976C60.248 89.4413 59.9605 90.2472 59.6259 91.0219L62.0299 92.06ZM63.0099 89.36L62.697 91.9598L64.857 92.2198L65.1699 89.62L65.4829 87.0202L63.3229 86.7602L63.0099 89.36ZM65.1699 89.62L62.6521 88.9006C62.4389 89.6468 62.1853 90.3745 61.8981 91.1406L64.3499 92.06L66.8018 92.9794C67.1145 92.1455 67.421 91.2732 67.6878 90.3394L65.1699 89.62ZM64.3499 92.06V94.6786H74.0299V92.06V89.4414H64.3499V92.06ZM74.0299 92.06H71.4113V94.1H74.0299H76.6485V92.06H74.0299ZM74.0299 94.1V91.4814H63.4299V94.1V96.7186H74.0299V94.1ZM63.4299 94.1L61.0878 92.9289C60.4065 94.2916 59.6017 95.5608 58.673 96.7394L60.7299 98.36L62.7868 99.9806C63.9381 98.5192 64.9334 96.9484 65.7721 95.2711L63.4299 94.1ZM60.7299 98.36H58.1113V108.14H60.7299H63.3485V98.36H60.7299ZM60.7299 108.14V105.521H58.6699V108.14V110.759H60.7299V108.14ZM58.6699 108.14H61.2885V100.66H58.6699H56.0513V108.14H58.6699ZM85.7299 92.28V89.6614H83.1113V92.28H85.7299ZM90.3699 92.28V94.8986H93.8193L92.8921 91.5761L90.3699 92.28ZM89.5899 89.9L89.1555 87.3177L85.9836 87.8513L87.1494 90.8491L89.5899 89.9ZM91.7299 89.54L94.2203 88.7306L93.5223 86.5831L91.2955 86.9577L91.7299 89.54ZM92.5099 92.28L89.9725 92.9268L90.4751 94.8986H92.5099V92.28ZM97.3499 92.28H99.9685V89.6614H97.3499V92.28ZM97.3499 94.3V96.9186H99.9685V94.3H97.3499ZM95.7499 94.3V91.6814H93.7482L93.223 93.6131L95.7499 94.3ZM93.4499 99.6L91.253 98.175L90.0091 100.093L91.7412 101.584L93.4499 99.6ZM97.3699 103.32L99.2215 105.172L101.028 103.365L99.2669 101.515L97.3699 103.32ZM95.7299 104.96L93.7183 106.636L95.554 108.839L97.5815 106.812L95.7299 104.96ZM92.1899 101.26L93.9696 99.3391L92.0271 97.5394L90.2492 99.502L92.1899 101.26ZM86.5299 104.98L84.3054 106.362L85.4114 108.142L87.391 107.453L86.5299 104.98ZM85.3499 103.08L84.5782 100.578L81.3347 101.578L83.1254 104.462L85.3499 103.08ZM90.6499 99.9L92.54 101.712L94.4539 99.7164L92.3566 97.914L90.6499 99.9ZM86.4699 96.56L84.6449 94.6821L82.4293 96.8354L84.9166 98.6681L86.4699 96.56ZM87.8899 95.18L89.4372 93.0674L87.6519 91.7599L86.0649 93.3021L87.8899 95.18ZM91.8899 98.28L90.2072 100.286L92.4652 102.18L94.0803 99.7151L91.8899 98.28ZM93.6699 94.3L96.1799 95.0462L97.1803 91.6814H93.6699V94.3ZM85.7299 94.3H83.1113V96.9186H85.7299V94.3ZM81.4699 89.74L83.0905 87.6831L81.3151 86.2844L79.6719 87.8363L81.4699 89.74ZM84.8299 92.86L86.6691 94.724L88.4343 92.9823L86.7912 91.125L84.8299 92.86ZM83.3299 94.34L81.2451 95.9245L83.048 98.2967L85.1691 96.204L83.3299 94.34ZM80.0299 91.1L78.2319 89.1963L76.0503 91.2567L78.3872 93.1392L80.0299 91.1ZM89.3299 107.72L89.3715 105.102L89.3708 105.102L89.3299 107.72ZM86.1699 107.38L85.4175 109.888L85.4899 109.91L85.5634 109.927L86.1699 107.38ZM84.1099 106L82.0298 107.591L82.0723 107.646L82.1176 107.699L84.1099 106ZM81.3099 108.2L79.5214 110.113L81.9706 112.403L83.599 109.472L81.3099 108.2ZM79.7699 106.76L77.5494 105.372L76.4068 107.2L77.9814 108.673L79.7699 106.76ZM82.4499 103.7L83.7119 105.994L85.0685 105.248V103.7H82.4499ZM82.4499 98.22H85.0685V95.6014H82.4499V98.22ZM79.8099 98.22H77.1913V100.839H79.8099V98.22ZM79.8099 96.3V93.6814H77.1913V96.3H79.8099ZM84.3899 96.3H87.0085V93.6814H84.3899V96.3ZM84.3899 103.92H81.7713V105.005L82.5383 105.772L84.3899 103.92ZM84.5899 104.12L86.5889 102.429L86.5186 102.345L86.4415 102.268L84.5899 104.12ZM85.9499 105.3L84.6614 107.58L84.7037 107.604L84.7469 107.626L85.9499 105.3ZM88.5499 105.8L88.4597 108.417L88.4818 108.418L88.504 108.418L88.5499 105.8ZM95.5899 105.82V108.439H95.6413L95.6925 108.437L95.5899 105.82ZM97.9299 105.7L100.475 106.318L101.323 102.823L97.7365 103.089L97.9299 105.7ZM97.4299 107.76V110.379H99.489L99.9746 108.378L97.4299 107.76ZM85.7299 92.28V94.8986H90.3699V92.28V89.6614H85.7299V92.28ZM90.3699 92.28L92.8921 91.5761C92.6343 90.6524 92.3482 89.768 92.0304 88.9509L89.5899 89.9L87.1494 90.8491C87.3916 91.472 87.6255 92.1876 87.8477 92.9839L90.3699 92.28ZM89.5899 89.9L90.0243 92.4823L92.1643 92.1223L91.7299 89.54L91.2955 86.9577L89.1555 87.3177L89.5899 89.9ZM91.7299 89.54L89.2396 90.3494C89.4771 91.0802 89.7217 91.943 89.9725 92.9268L92.5099 92.28L95.0474 91.6332C94.7781 90.577 94.5028 89.5998 94.2203 88.7306L91.7299 89.54ZM92.5099 92.28V94.8986H97.3499V92.28V89.6614H92.5099V92.28ZM97.3499 92.28H94.7313V94.3H97.3499H99.9685V92.28H97.3499ZM97.3499 94.3V91.6814H95.7499V94.3V96.9186H97.3499V94.3ZM95.7499 94.3L93.223 93.6131C92.7255 95.4432 92.0486 96.9485 91.253 98.175L93.4499 99.6L95.6468 101.025C96.7713 99.2915 97.6543 97.2768 98.2768 94.9869L95.7499 94.3ZM93.4499 99.6L91.7412 101.584C93.1174 102.769 94.3544 103.95 95.473 105.125L97.3699 103.32L99.2669 101.515C98.0255 100.21 96.6625 98.9107 95.1586 97.6157L93.4499 99.6ZM97.3699 103.32L95.5183 101.468L93.8783 103.108L95.7299 104.96L97.5815 106.812L99.2215 105.172L97.3699 103.32ZM95.7299 104.96L97.7416 103.284C96.662 101.988 95.4029 100.667 93.9696 99.3391L92.1899 101.26L90.4103 103.181C91.697 104.373 92.7979 105.532 93.7183 106.636L95.7299 104.96ZM92.1899 101.26L90.2492 99.502C89.0109 100.869 87.5052 101.868 85.6688 102.507L86.5299 104.98L87.391 107.453C90.0346 106.532 92.2889 105.051 94.1306 103.018L92.1899 101.26ZM86.5299 104.98L88.7544 103.598L87.5744 101.698L85.3499 103.08L83.1254 104.462L84.3054 106.362L86.5299 104.98ZM85.3499 103.08L86.1217 105.582C88.6449 104.804 90.8028 103.524 92.54 101.712L90.6499 99.9L88.7599 98.0876C87.697 99.196 86.3349 100.036 84.5782 100.578L85.3499 103.08ZM90.6499 99.9L92.3566 97.914C91.037 96.78 89.6055 95.6178 88.0233 94.4519L86.4699 96.56L84.9166 98.6681C86.3744 99.7422 87.7028 100.82 88.9432 101.886L90.6499 99.9ZM86.4699 96.56L88.2949 98.4379L89.7149 97.0579L87.8899 95.18L86.0649 93.3021L84.6449 94.6821L86.4699 96.56ZM87.8899 95.18L86.3427 97.2926C87.7412 98.3169 89.0297 99.2988 90.2072 100.286L91.8899 98.28L93.5727 96.2737C92.2701 95.1812 90.8786 94.1231 89.4372 93.0674L87.8899 95.18ZM91.8899 98.28L94.0803 99.7151C95.0106 98.295 95.6855 96.7094 96.1799 95.0462L93.6699 94.3L91.1599 93.5538C90.7744 94.8506 90.2892 95.945 89.6996 96.8449L91.8899 98.28ZM93.6699 94.3V91.6814H85.7299V94.3V96.9186H93.6699V94.3ZM85.7299 94.3H88.3485V92.28H85.7299H83.1113V94.3H85.7299ZM81.4699 89.74L79.8494 91.7969C81.071 92.7594 82.0713 93.6936 82.8686 94.595L84.8299 92.86L86.7912 91.125C85.7486 89.9464 84.5088 88.8006 83.0905 87.6831L81.4699 89.74ZM84.8299 92.86L82.9908 90.996L81.4908 92.476L83.3299 94.34L85.1691 96.204L86.6691 94.724L84.8299 92.86ZM83.3299 94.34L85.4147 92.7555C84.4815 91.5276 83.208 90.2976 81.6726 89.0608L80.0299 91.1L78.3872 93.1392C79.7319 94.2224 80.6583 95.1524 81.2451 95.9245L83.3299 94.34ZM80.0299 91.1L81.8279 93.0037L83.2679 91.6437L81.4699 89.74L79.6719 87.8363L78.2319 89.1963L80.0299 91.1ZM92.8499 107.76V105.141C91.7955 105.141 90.6396 105.122 89.3715 105.102L89.3299 107.72L89.2884 110.338C90.5402 110.358 91.7443 110.379 92.8499 110.379V107.76ZM89.3299 107.72L89.3708 105.102C88.2227 105.084 87.3816 104.977 86.7764 104.833L86.1699 107.38L85.5634 109.927C86.6383 110.183 87.8771 110.316 89.289 110.338L89.3299 107.72ZM86.1699 107.38L86.9224 104.872C86.6503 104.79 86.3876 104.635 86.1022 104.301L84.1099 106L82.1176 107.699C82.9923 108.725 84.0896 109.49 85.4175 109.888L86.1699 107.38ZM84.1099 106L86.19 104.409C85.7927 103.89 84.8744 102.881 83.3699 102.881V105.5V108.119C82.8696 108.119 82.4891 107.942 82.2697 107.794C82.076 107.664 82.0021 107.554 82.0298 107.591L84.1099 106ZM83.3699 105.5V102.881C82.3145 102.881 81.5922 103.454 81.3359 103.671C80.9963 103.958 80.7126 104.295 80.4887 104.589C80.0315 105.19 79.5396 105.995 79.0209 106.928L81.3099 108.2L83.599 109.472C84.0803 108.605 84.4284 108.06 84.6561 107.761C84.7748 107.605 84.7948 107.604 84.7209 107.667C84.6804 107.701 84.5634 107.796 84.3734 107.89C84.1856 107.983 83.8368 108.119 83.3699 108.119V105.5ZM81.3099 108.2L83.0984 106.287L81.5584 104.847L79.7699 106.76L77.9814 108.673L79.5214 110.113L81.3099 108.2ZM79.7699 106.76L81.9905 108.148C82.9702 106.58 83.5503 106.083 83.7119 105.994L82.4499 103.7L81.188 101.406C79.7495 102.197 78.5696 103.74 77.5494 105.372L79.7699 106.76ZM82.4499 103.7H85.0685V98.22H82.4499H79.8313V103.7H82.4499ZM82.4499 98.22V95.6014H79.8099V98.22V100.839H82.4499V98.22ZM79.8099 98.22H82.4285V96.3H79.8099H77.1913V98.22H79.8099ZM79.8099 96.3V98.9186H84.3899V96.3V93.6814H79.8099V96.3ZM84.3899 96.3H81.7713V103.92H84.3899H87.0085V96.3H84.3899ZM84.3899 103.92L82.5383 105.772L82.7383 105.972L84.5899 104.12L86.4415 102.268L86.2415 102.068L84.3899 103.92ZM84.5899 104.12L82.5909 105.811C83.1739 106.5 83.8641 107.129 84.6614 107.58L85.9499 105.3L87.2384 103.02C87.1158 102.951 86.8859 102.78 86.5889 102.429L84.5899 104.12ZM85.9499 105.3L84.7469 107.626C85.8537 108.198 87.1888 108.373 88.4597 108.417L88.5499 105.8L88.6402 103.183C88.1506 103.166 87.7863 103.126 87.5231 103.075C87.3939 103.051 87.3007 103.026 87.2372 103.006C87.1735 102.985 87.1491 102.972 87.153 102.974L85.9499 105.3ZM88.5499 105.8L88.504 108.418C89.6495 108.438 91.0072 108.459 92.5499 108.459V105.84V103.221C91.0526 103.221 89.7304 103.202 88.5959 103.182L88.5499 105.8ZM92.5499 105.84V108.459C93.0651 108.459 93.5783 108.453 94.0808 108.448C94.5875 108.443 95.0849 108.439 95.5899 108.439V105.82V103.201C95.055 103.201 94.5323 103.207 94.029 103.212C93.5215 103.217 93.0347 103.221 92.5499 103.221V105.84ZM95.5899 105.82L95.6925 108.437C96.7214 108.396 97.5374 108.355 98.1234 108.311L97.9299 105.7L97.7365 103.089C97.2424 103.125 96.4985 103.164 95.4873 103.203L95.5899 105.82ZM97.9299 105.7L95.3852 105.082L94.8852 107.142L97.4299 107.76L99.9746 108.378L100.475 106.318L97.9299 105.7ZM97.4299 107.76V105.141H92.8499V107.76V110.379H97.4299V107.76ZM107.05 96.04V93.4214H104.431V96.04H107.05ZM107.05 98.02H104.431V100.639H107.05V98.02ZM111.21 98.02V100.639H113.829V98.02H111.21ZM111.21 96.04H113.829V93.4214H111.21V96.04ZM111.21 99.94H113.829V97.3214H111.21V99.94ZM104.99 99.94H102.371V102.559H104.99V99.94ZM104.99 90.16V87.5414H102.371V90.16H104.99ZM119.51 90.16H122.129V87.5414H119.51V90.16ZM119.51 99.94V102.559H122.129V99.94H119.51ZM113.33 99.94V97.3214H110.711V99.94H113.33ZM113.33 101.72H110.711V104.339H113.33V101.72ZM120.31 101.72H122.929V99.1014H120.31V101.72ZM120.31 103.7V106.319H122.929V103.7H120.31ZM113.33 103.7V101.081H110.711V103.7H113.33ZM113.33 105.52H110.711V108.139H113.33V105.52ZM121.15 105.52H123.769V102.901H121.15V105.52ZM121.15 107.54V110.159H123.769V107.54H121.15ZM103.37 107.54H100.751V110.159H103.37V107.54ZM103.37 105.52V102.901H100.751V105.52H103.37ZM111.21 105.52V108.139H113.829V105.52H111.21ZM111.21 103.7H113.829V101.081H111.21V103.7ZM104.23 103.7H101.611V106.319H104.23V103.7ZM104.23 101.72V99.1014H101.611V101.72H104.23ZM111.21 101.72V104.339H113.829V101.72H111.21ZM113.33 98.02H110.711V100.639H113.33V98.02ZM117.45 98.02V100.639H120.069V98.02H117.45ZM117.45 96.04H120.069V93.4214H117.45V96.04ZM113.33 96.04V93.4214H110.711V96.04H113.33ZM117.45 94.12V96.7386H120.069V94.12H117.45ZM117.45 92.08H120.069V89.4614H117.45V92.08ZM113.33 92.08V89.4614H110.711V92.08H113.33ZM113.33 94.12H110.711V96.7386H113.33V94.12ZM111.21 92.08H113.829V89.4614H111.21V92.08ZM107.05 92.08V89.4614H104.431V92.08H107.05ZM107.05 94.12H104.431V96.7386H107.05V94.12ZM111.21 94.12V96.7386H113.829V94.12H111.21ZM107.05 96.04H104.431V98.02H107.05H109.669V96.04H107.05ZM107.05 98.02V100.639H111.21V98.02V95.4014H107.05V98.02ZM111.21 98.02H113.829V96.04H111.21H108.591V98.02H111.21ZM111.21 96.04V93.4214H107.05V96.04V98.6586H111.21V96.04ZM111.21 99.94V97.3214H104.99V99.94V102.559H111.21V99.94ZM104.99 99.94H107.609V90.16H104.99H102.371V99.94H104.99ZM104.99 90.16V92.7786H119.51V90.16V87.5414H104.99V90.16ZM119.51 90.16H116.891V99.94H119.51H122.129V90.16H119.51ZM119.51 99.94V97.3214H113.33V99.94V102.559H119.51V99.94ZM113.33 99.94H110.711V101.72H113.33H115.949V99.94H113.33ZM113.33 101.72V104.339H120.31V101.72V99.1014H113.33V101.72ZM120.31 101.72H117.691V103.7H120.31H122.929V101.72H120.31ZM120.31 103.7V101.081H113.33V103.7V106.319H120.31V103.7ZM113.33 103.7H110.711V105.52H113.33H115.949V103.7H113.33ZM113.33 105.52V108.139H121.15V105.52V102.901H113.33V105.52ZM121.15 105.52H118.531V107.54H121.15H123.769V105.52H121.15ZM121.15 107.54V104.921H103.37V107.54V110.159H121.15V107.54ZM103.37 107.54H105.989V105.52H103.37H100.751V107.54H103.37ZM103.37 105.52V108.139H111.21V105.52V102.901H103.37V105.52ZM111.21 105.52H113.829V103.7H111.21H108.591V105.52H111.21ZM111.21 103.7V101.081H104.23V103.7V106.319H111.21V103.7ZM104.23 103.7H106.849V101.72H104.23H101.611V103.7H104.23ZM104.23 101.72V104.339H111.21V101.72V99.1014H104.23V101.72ZM111.21 101.72H113.829V99.94H111.21H108.591V101.72H111.21ZM113.33 98.02V100.639H117.45V98.02V95.4014H113.33V98.02ZM117.45 98.02H120.069V96.04H117.45H114.831V98.02H117.45ZM117.45 96.04V93.4214H113.33V96.04V98.6586H117.45V96.04ZM113.33 96.04H110.711V98.02H113.33H115.949V96.04H113.33ZM117.45 94.12H120.069V92.08H117.45H114.831V94.12H117.45ZM117.45 92.08V89.4614H113.33V92.08V94.6986H117.45V92.08ZM113.33 92.08H110.711V94.12H113.33H115.949V92.08H113.33ZM113.33 94.12V96.7386H117.45V94.12V91.5014H113.33V94.12ZM111.21 92.08V89.4614H107.05V92.08V94.6986H111.21V92.08ZM107.05 92.08H104.431V94.12H107.05H109.669V92.08H107.05ZM107.05 94.12V96.7386H111.21V94.12V91.5014H107.05V94.12ZM111.21 94.12H113.829V92.08H111.21H108.591V94.12H111.21ZM127.85 91.72V89.1014H125.1L125.234 91.8485L127.85 91.72ZM130.55 91.72L133.165 91.8485L133.3 89.1014H130.55V91.72ZM130.05 101.9V104.519H132.543L132.665 102.028L130.05 101.9ZM128.35 101.9L125.734 102.028L125.857 104.519H128.35V101.9ZM130.31 103.4L132.162 101.548L132.13 101.516L132.097 101.486L130.31 103.4ZM130.31 105.58L132.034 107.551L132.1 107.493L132.162 107.432L130.31 105.58ZM128.11 105.56L129.962 103.708L129.9 103.647L129.834 103.589L128.11 105.56ZM128.11 103.4L129.834 105.371L129.9 105.313L129.962 105.252L128.11 103.4ZM127.85 91.72V94.3386H130.55V91.72V89.1014H127.85V91.72ZM130.55 91.72L127.934 91.5915L127.434 101.772L130.05 101.9L132.665 102.028L133.165 91.8485L130.55 91.72ZM130.05 101.9V99.2814H128.35V101.9V104.519H130.05V101.9ZM128.35 101.9L130.965 101.772L130.465 91.5915L127.85 91.72L125.234 91.8485L125.734 102.028L128.35 101.9ZM129.19 102.98V105.599C129.13 105.599 129.021 105.589 128.887 105.538C128.748 105.487 128.623 105.408 128.523 105.314L130.31 103.4L132.097 101.486C131.263 100.708 130.223 100.361 129.19 100.361V102.98ZM130.31 103.4L128.458 105.252C128.374 105.167 128.284 105.045 128.218 104.887C128.152 104.729 128.131 104.584 128.131 104.48H130.75H133.368C133.368 103.338 132.927 102.314 132.162 101.548L130.31 103.4ZM130.75 104.48H128.131C128.131 104.379 128.15 104.249 128.208 104.106C128.266 103.963 128.353 103.834 128.458 103.728L130.31 105.58L132.162 107.432C132.953 106.641 133.368 105.586 133.368 104.48H130.75ZM130.31 105.58L128.586 103.609C128.634 103.567 128.729 103.498 128.868 103.446C129.007 103.393 129.125 103.381 129.19 103.381V106V108.619C130.273 108.619 131.243 108.243 132.034 107.551L130.31 105.58ZM129.19 106V103.381C129.294 103.381 129.438 103.402 129.597 103.468C129.755 103.534 129.877 103.624 129.962 103.708L128.11 105.56L126.258 107.412C127.024 108.177 128.048 108.619 129.19 108.619V106ZM128.11 105.56L129.834 103.589C129.962 103.701 130.091 103.867 130.177 104.073C130.259 104.269 130.269 104.422 130.269 104.48H127.65H125.031C125.031 105.551 125.41 106.677 126.386 107.531L128.11 105.56ZM127.65 104.48H130.269C130.269 104.538 130.259 104.691 130.177 104.887C130.091 105.093 129.962 105.259 129.834 105.371L128.11 103.4L126.386 101.429C125.41 102.283 125.031 103.409 125.031 104.48H127.65ZM128.11 103.4L129.962 105.252C129.851 105.362 129.706 105.461 129.539 105.526C129.377 105.588 129.25 105.599 129.19 105.599V102.98V100.361C128.14 100.361 127.086 100.721 126.258 101.548L128.11 103.4Z" fill="white" mask="url(#path-3-outside-1_318_11381)"/>
</g>
<defs>
<filter id="filter0_d_318_11381" x="23.6646" y="56.978" width="125.023" height="65.8991" filterUnits="userSpaceOnUse" color-interpolation-filters="sRGB">
<feFlood flood-opacity="0" result="BackgroundImageFix"/>
<feColorMatrix in="SourceAlpha" type="matrix" values="0 0 0 0 0 0 0 0 0 0 0 0 0 0 0 0 0 0 127 0" result="hardAlpha"/>
<feOffset dx="5.23716" dy="5.23716"/>
<feGaussianBlur stdDeviation="2.61858"/>
<feComposite in2="hardAlpha" operator="out"/>
<feColorMatrix type="matrix" values="0 0 0 0 0 0 0 0 0 0 0 0 0 0 0 0 0 0 0.02 0"/>
<feBlend mode="normal" in2="BackgroundImageFix" result="effect1_dropShadow_318_11381"/>
<feBlend mode="normal" in="SourceGraphic" in2="effect1_dropShadow_318_11381" result="shape"/>
</filter>
</defs>
</svg>
